G04 #@! TF.FileFunction,Legend,Top*
%FSLAX46Y46*%
G04 Gerber Fmt 4.6, Leading zero omitted, Abs format (unit mm)*
G04 Created by KiCad (PCBNEW 4.0.6) date Wednesday, 03 May 2017 'AMt' 11:52:44*
%MOMM*%
%LPD*%
G01*
G04 APERTURE LIST*
%ADD10C,0.100000*%
%ADD11C,0.300000*%
%ADD12C,0.150000*%
%ADD13C,0.002540*%
G04 APERTURE END LIST*
D10*
D11*
X186372858Y-82998571D02*
X186872858Y-84498571D01*
X187372858Y-82998571D01*
X188944286Y-83141429D02*
X189015715Y-83070000D01*
X189158572Y-82998571D01*
X189515715Y-82998571D01*
X189658572Y-83070000D01*
X189730001Y-83141429D01*
X189801429Y-83284286D01*
X189801429Y-83427143D01*
X189730001Y-83641429D01*
X188872858Y-84498571D01*
X189801429Y-84498571D01*
X190444286Y-84355714D02*
X190515714Y-84427143D01*
X190444286Y-84498571D01*
X190372857Y-84427143D01*
X190444286Y-84355714D01*
X190444286Y-84498571D01*
X191015715Y-82998571D02*
X191944286Y-82998571D01*
X191444286Y-83570000D01*
X191658572Y-83570000D01*
X191801429Y-83641429D01*
X191872858Y-83712857D01*
X191944286Y-83855714D01*
X191944286Y-84212857D01*
X191872858Y-84355714D01*
X191801429Y-84427143D01*
X191658572Y-84498571D01*
X191230000Y-84498571D01*
X191087143Y-84427143D01*
X191015715Y-84355714D01*
X191330001Y-92118571D02*
X191330001Y-90618571D01*
X192901430Y-92118571D02*
X192401430Y-91404286D01*
X192044287Y-92118571D02*
X192044287Y-90618571D01*
X192615715Y-90618571D01*
X192758573Y-90690000D01*
X192830001Y-90761429D01*
X192901430Y-90904286D01*
X192901430Y-91118571D01*
X192830001Y-91261429D01*
X192758573Y-91332857D01*
X192615715Y-91404286D01*
X192044287Y-91404286D01*
X194044287Y-91332857D02*
X193544287Y-91332857D01*
X193544287Y-92118571D02*
X193544287Y-90618571D01*
X194258573Y-90618571D01*
X194901429Y-92118571D02*
X195187144Y-92118571D01*
X195330001Y-92047143D01*
X195401429Y-91975714D01*
X195544287Y-91761429D01*
X195615715Y-91475714D01*
X195615715Y-90904286D01*
X195544287Y-90761429D01*
X195472858Y-90690000D01*
X195330001Y-90618571D01*
X195044287Y-90618571D01*
X194901429Y-90690000D01*
X194830001Y-90761429D01*
X194758572Y-90904286D01*
X194758572Y-91261429D01*
X194830001Y-91404286D01*
X194901429Y-91475714D01*
X195044287Y-91547143D01*
X195330001Y-91547143D01*
X195472858Y-91475714D01*
X195544287Y-91404286D01*
X195615715Y-91261429D01*
X196901429Y-90618571D02*
X196615715Y-90618571D01*
X196472858Y-90690000D01*
X196401429Y-90761429D01*
X196258572Y-90975714D01*
X196187143Y-91261429D01*
X196187143Y-91832857D01*
X196258572Y-91975714D01*
X196330000Y-92047143D01*
X196472858Y-92118571D01*
X196758572Y-92118571D01*
X196901429Y-92047143D01*
X196972858Y-91975714D01*
X197044286Y-91832857D01*
X197044286Y-91475714D01*
X196972858Y-91332857D01*
X196901429Y-91261429D01*
X196758572Y-91190000D01*
X196472858Y-91190000D01*
X196330000Y-91261429D01*
X196258572Y-91332857D01*
X196187143Y-91475714D01*
X197615714Y-90761429D02*
X197687143Y-90690000D01*
X197830000Y-90618571D01*
X198187143Y-90618571D01*
X198330000Y-90690000D01*
X198401429Y-90761429D01*
X198472857Y-90904286D01*
X198472857Y-91047143D01*
X198401429Y-91261429D01*
X197544286Y-92118571D01*
X198472857Y-92118571D01*
X199401428Y-90618571D02*
X199544285Y-90618571D01*
X199687142Y-90690000D01*
X199758571Y-90761429D01*
X199830000Y-90904286D01*
X199901428Y-91190000D01*
X199901428Y-91547143D01*
X199830000Y-91832857D01*
X199758571Y-91975714D01*
X199687142Y-92047143D01*
X199544285Y-92118571D01*
X199401428Y-92118571D01*
X199258571Y-92047143D01*
X199187142Y-91975714D01*
X199115714Y-91832857D01*
X199044285Y-91547143D01*
X199044285Y-91190000D01*
X199115714Y-90904286D01*
X199187142Y-90761429D01*
X199258571Y-90690000D01*
X199401428Y-90618571D01*
X96258572Y-90761429D02*
X96330001Y-90690000D01*
X96472858Y-90618571D01*
X96830001Y-90618571D01*
X96972858Y-90690000D01*
X97044287Y-90761429D01*
X97115715Y-90904286D01*
X97115715Y-91047143D01*
X97044287Y-91261429D01*
X96187144Y-92118571D01*
X97115715Y-92118571D01*
X97758572Y-92118571D02*
X97758572Y-90618571D01*
X98615715Y-92118571D01*
X98615715Y-90618571D01*
X99187144Y-90618571D02*
X100187144Y-90618571D01*
X99544287Y-92118571D01*
X101044286Y-90618571D02*
X101187143Y-90618571D01*
X101330000Y-90690000D01*
X101401429Y-90761429D01*
X101472858Y-90904286D01*
X101544286Y-91190000D01*
X101544286Y-91547143D01*
X101472858Y-91832857D01*
X101401429Y-91975714D01*
X101330000Y-92047143D01*
X101187143Y-92118571D01*
X101044286Y-92118571D01*
X100901429Y-92047143D01*
X100830000Y-91975714D01*
X100758572Y-91832857D01*
X100687143Y-91547143D01*
X100687143Y-91190000D01*
X100758572Y-90904286D01*
X100830000Y-90761429D01*
X100901429Y-90690000D01*
X101044286Y-90618571D01*
X102472857Y-90618571D02*
X102615714Y-90618571D01*
X102758571Y-90690000D01*
X102830000Y-90761429D01*
X102901429Y-90904286D01*
X102972857Y-91190000D01*
X102972857Y-91547143D01*
X102901429Y-91832857D01*
X102830000Y-91975714D01*
X102758571Y-92047143D01*
X102615714Y-92118571D01*
X102472857Y-92118571D01*
X102330000Y-92047143D01*
X102258571Y-91975714D01*
X102187143Y-91832857D01*
X102115714Y-91547143D01*
X102115714Y-91190000D01*
X102187143Y-90904286D01*
X102258571Y-90761429D01*
X102330000Y-90690000D01*
X102472857Y-90618571D01*
X103901428Y-90618571D02*
X104044285Y-90618571D01*
X104187142Y-90690000D01*
X104258571Y-90761429D01*
X104330000Y-90904286D01*
X104401428Y-91190000D01*
X104401428Y-91547143D01*
X104330000Y-91832857D01*
X104258571Y-91975714D01*
X104187142Y-92047143D01*
X104044285Y-92118571D01*
X103901428Y-92118571D01*
X103758571Y-92047143D01*
X103687142Y-91975714D01*
X103615714Y-91832857D01*
X103544285Y-91547143D01*
X103544285Y-91190000D01*
X103615714Y-90904286D01*
X103687142Y-90761429D01*
X103758571Y-90690000D01*
X103901428Y-90618571D01*
X159032859Y-90848571D02*
X159032859Y-89348571D01*
X159390002Y-89348571D01*
X159604287Y-89420000D01*
X159747145Y-89562857D01*
X159818573Y-89705714D01*
X159890002Y-89991429D01*
X159890002Y-90205714D01*
X159818573Y-90491429D01*
X159747145Y-90634286D01*
X159604287Y-90777143D01*
X159390002Y-90848571D01*
X159032859Y-90848571D01*
X160461430Y-90777143D02*
X160675716Y-90848571D01*
X161032859Y-90848571D01*
X161175716Y-90777143D01*
X161247145Y-90705714D01*
X161318573Y-90562857D01*
X161318573Y-90420000D01*
X161247145Y-90277143D01*
X161175716Y-90205714D01*
X161032859Y-90134286D01*
X160747145Y-90062857D01*
X160604287Y-89991429D01*
X160532859Y-89920000D01*
X160461430Y-89777143D01*
X160461430Y-89634286D01*
X160532859Y-89491429D01*
X160604287Y-89420000D01*
X160747145Y-89348571D01*
X161104287Y-89348571D01*
X161318573Y-89420000D01*
X161818573Y-89348571D02*
X162747144Y-89348571D01*
X162247144Y-89920000D01*
X162461430Y-89920000D01*
X162604287Y-89991429D01*
X162675716Y-90062857D01*
X162747144Y-90205714D01*
X162747144Y-90562857D01*
X162675716Y-90705714D01*
X162604287Y-90777143D01*
X162461430Y-90848571D01*
X162032858Y-90848571D01*
X161890001Y-90777143D01*
X161818573Y-90705714D01*
X163318572Y-89491429D02*
X163390001Y-89420000D01*
X163532858Y-89348571D01*
X163890001Y-89348571D01*
X164032858Y-89420000D01*
X164104287Y-89491429D01*
X164175715Y-89634286D01*
X164175715Y-89777143D01*
X164104287Y-89991429D01*
X163247144Y-90848571D01*
X164175715Y-90848571D01*
X164675715Y-89348571D02*
X165604286Y-89348571D01*
X165104286Y-89920000D01*
X165318572Y-89920000D01*
X165461429Y-89991429D01*
X165532858Y-90062857D01*
X165604286Y-90205714D01*
X165604286Y-90562857D01*
X165532858Y-90705714D01*
X165461429Y-90777143D01*
X165318572Y-90848571D01*
X164890000Y-90848571D01*
X164747143Y-90777143D01*
X164675715Y-90705714D01*
X167032857Y-90848571D02*
X166175714Y-90848571D01*
X166604286Y-90848571D02*
X166604286Y-89348571D01*
X166461429Y-89562857D01*
X166318571Y-89705714D01*
X166175714Y-89777143D01*
X168818571Y-90848571D02*
X168818571Y-89848571D01*
X168818571Y-89991429D02*
X168889999Y-89920000D01*
X169032857Y-89848571D01*
X169247142Y-89848571D01*
X169389999Y-89920000D01*
X169461428Y-90062857D01*
X169461428Y-90848571D01*
X169461428Y-90062857D02*
X169532857Y-89920000D01*
X169675714Y-89848571D01*
X169889999Y-89848571D01*
X170032857Y-89920000D01*
X170104285Y-90062857D01*
X170104285Y-90848571D01*
X171032857Y-90848571D02*
X170889999Y-90777143D01*
X170818571Y-90705714D01*
X170747142Y-90562857D01*
X170747142Y-90134286D01*
X170818571Y-89991429D01*
X170889999Y-89920000D01*
X171032857Y-89848571D01*
X171247142Y-89848571D01*
X171389999Y-89920000D01*
X171461428Y-89991429D01*
X171532857Y-90134286D01*
X171532857Y-90562857D01*
X171461428Y-90705714D01*
X171389999Y-90777143D01*
X171247142Y-90848571D01*
X171032857Y-90848571D01*
X172818571Y-90848571D02*
X172818571Y-89348571D01*
X172818571Y-90777143D02*
X172675714Y-90848571D01*
X172390000Y-90848571D01*
X172247142Y-90777143D01*
X172175714Y-90705714D01*
X172104285Y-90562857D01*
X172104285Y-90134286D01*
X172175714Y-89991429D01*
X172247142Y-89920000D01*
X172390000Y-89848571D01*
X172675714Y-89848571D01*
X172818571Y-89920000D01*
X174175714Y-89848571D02*
X174175714Y-90848571D01*
X173532857Y-89848571D02*
X173532857Y-90634286D01*
X173604285Y-90777143D01*
X173747143Y-90848571D01*
X173961428Y-90848571D01*
X174104285Y-90777143D01*
X174175714Y-90705714D01*
X175104286Y-90848571D02*
X174961428Y-90777143D01*
X174890000Y-90634286D01*
X174890000Y-89348571D01*
X176247142Y-90777143D02*
X176104285Y-90848571D01*
X175818571Y-90848571D01*
X175675714Y-90777143D01*
X175604285Y-90634286D01*
X175604285Y-90062857D01*
X175675714Y-89920000D01*
X175818571Y-89848571D01*
X176104285Y-89848571D01*
X176247142Y-89920000D01*
X176318571Y-90062857D01*
X176318571Y-90205714D01*
X175604285Y-90348571D01*
X126408571Y-107997142D02*
X126408571Y-108711428D01*
X124908571Y-108711428D01*
X125408571Y-107639999D02*
X126408571Y-107282856D01*
X125408571Y-106925714D01*
X126408571Y-106139999D02*
X126337143Y-106282857D01*
X126194286Y-106354285D01*
X124908571Y-106354285D01*
X126337143Y-105640000D02*
X126408571Y-105425714D01*
X126408571Y-105068571D01*
X126337143Y-104925714D01*
X126265714Y-104854285D01*
X126122857Y-104782857D01*
X125980000Y-104782857D01*
X125837143Y-104854285D01*
X125765714Y-104925714D01*
X125694286Y-105068571D01*
X125622857Y-105354285D01*
X125551429Y-105497143D01*
X125480000Y-105568571D01*
X125337143Y-105640000D01*
X125194286Y-105640000D01*
X125051429Y-105568571D01*
X124980000Y-105497143D01*
X124908571Y-105354285D01*
X124908571Y-104997143D01*
X124980000Y-104782857D01*
X126408571Y-104140000D02*
X124908571Y-104140000D01*
X126408571Y-103497143D02*
X125622857Y-103497143D01*
X125480000Y-103568572D01*
X125408571Y-103711429D01*
X125408571Y-103925714D01*
X125480000Y-104068572D01*
X125551429Y-104140000D01*
X125408571Y-102997143D02*
X125408571Y-102425714D01*
X126408571Y-102782857D02*
X125122857Y-102782857D01*
X124980000Y-102711429D01*
X124908571Y-102568571D01*
X124908571Y-102425714D01*
X125408571Y-102140000D02*
X125408571Y-101568571D01*
X124908571Y-101925714D02*
X126194286Y-101925714D01*
X126337143Y-101854286D01*
X126408571Y-101711428D01*
X126408571Y-101568571D01*
X126337143Y-100497143D02*
X126408571Y-100640000D01*
X126408571Y-100925714D01*
X126337143Y-101068571D01*
X126194286Y-101140000D01*
X125622857Y-101140000D01*
X125480000Y-101068571D01*
X125408571Y-100925714D01*
X125408571Y-100640000D01*
X125480000Y-100497143D01*
X125622857Y-100425714D01*
X125765714Y-100425714D01*
X125908571Y-101140000D01*
X126408571Y-99782857D02*
X125408571Y-99782857D01*
X125694286Y-99782857D02*
X125551429Y-99711429D01*
X125480000Y-99640000D01*
X125408571Y-99497143D01*
X125408571Y-99354286D01*
X126408571Y-123237142D02*
X126408571Y-123951428D01*
X124908571Y-123951428D01*
X125408571Y-122879999D02*
X126408571Y-122522856D01*
X125408571Y-122165714D01*
X126408571Y-121379999D02*
X126337143Y-121522857D01*
X126194286Y-121594285D01*
X124908571Y-121594285D01*
X126337143Y-120880000D02*
X126408571Y-120665714D01*
X126408571Y-120308571D01*
X126337143Y-120165714D01*
X126265714Y-120094285D01*
X126122857Y-120022857D01*
X125980000Y-120022857D01*
X125837143Y-120094285D01*
X125765714Y-120165714D01*
X125694286Y-120308571D01*
X125622857Y-120594285D01*
X125551429Y-120737143D01*
X125480000Y-120808571D01*
X125337143Y-120880000D01*
X125194286Y-120880000D01*
X125051429Y-120808571D01*
X124980000Y-120737143D01*
X124908571Y-120594285D01*
X124908571Y-120237143D01*
X124980000Y-120022857D01*
X126408571Y-119380000D02*
X124908571Y-119380000D01*
X126408571Y-118737143D02*
X125622857Y-118737143D01*
X125480000Y-118808572D01*
X125408571Y-118951429D01*
X125408571Y-119165714D01*
X125480000Y-119308572D01*
X125551429Y-119380000D01*
X125408571Y-118237143D02*
X125408571Y-117665714D01*
X126408571Y-118022857D02*
X125122857Y-118022857D01*
X124980000Y-117951429D01*
X124908571Y-117808571D01*
X124908571Y-117665714D01*
X125408571Y-117380000D02*
X125408571Y-116808571D01*
X124908571Y-117165714D02*
X126194286Y-117165714D01*
X126337143Y-117094286D01*
X126408571Y-116951428D01*
X126408571Y-116808571D01*
X126337143Y-115737143D02*
X126408571Y-115880000D01*
X126408571Y-116165714D01*
X126337143Y-116308571D01*
X126194286Y-116380000D01*
X125622857Y-116380000D01*
X125480000Y-116308571D01*
X125408571Y-116165714D01*
X125408571Y-115880000D01*
X125480000Y-115737143D01*
X125622857Y-115665714D01*
X125765714Y-115665714D01*
X125908571Y-116380000D01*
X126408571Y-115022857D02*
X125408571Y-115022857D01*
X125694286Y-115022857D02*
X125551429Y-114951429D01*
X125480000Y-114880000D01*
X125408571Y-114737143D01*
X125408571Y-114594286D01*
X183130000Y-125185714D02*
X183130000Y-124471428D01*
X183558571Y-125328571D02*
X182058571Y-124828571D01*
X183558571Y-124328571D01*
X182058571Y-124042857D02*
X182058571Y-123185714D01*
X183558571Y-123614285D02*
X182058571Y-123614285D01*
X182058571Y-122900000D02*
X182058571Y-122042857D01*
X183558571Y-122471428D02*
X182058571Y-122471428D01*
X183558571Y-121542857D02*
X182558571Y-121542857D01*
X182058571Y-121542857D02*
X182130000Y-121614286D01*
X182201429Y-121542857D01*
X182130000Y-121471429D01*
X182058571Y-121542857D01*
X182201429Y-121542857D01*
X182558571Y-120828571D02*
X183558571Y-120828571D01*
X182701429Y-120828571D02*
X182630000Y-120757143D01*
X182558571Y-120614285D01*
X182558571Y-120400000D01*
X182630000Y-120257143D01*
X182772857Y-120185714D01*
X183558571Y-120185714D01*
X182558571Y-119614285D02*
X183558571Y-119257142D01*
X182558571Y-118900000D02*
X183558571Y-119257142D01*
X183915714Y-119400000D01*
X183987143Y-119471428D01*
X184058571Y-119614285D01*
X182701429Y-118114285D02*
X182630000Y-118257143D01*
X182558571Y-118328571D01*
X182415714Y-118400000D01*
X182344286Y-118400000D01*
X182201429Y-118328571D01*
X182130000Y-118257143D01*
X182058571Y-118114285D01*
X182058571Y-117828571D01*
X182130000Y-117685714D01*
X182201429Y-117614285D01*
X182344286Y-117542857D01*
X182415714Y-117542857D01*
X182558571Y-117614285D01*
X182630000Y-117685714D01*
X182701429Y-117828571D01*
X182701429Y-118114285D01*
X182772857Y-118257143D01*
X182844286Y-118328571D01*
X182987143Y-118400000D01*
X183272857Y-118400000D01*
X183415714Y-118328571D01*
X183487143Y-118257143D01*
X183558571Y-118114285D01*
X183558571Y-117828571D01*
X183487143Y-117685714D01*
X183415714Y-117614285D01*
X183272857Y-117542857D01*
X182987143Y-117542857D01*
X182844286Y-117614285D01*
X182772857Y-117685714D01*
X182701429Y-117828571D01*
X182558571Y-116257143D02*
X183558571Y-116257143D01*
X181987143Y-116614286D02*
X183058571Y-116971429D01*
X183058571Y-116042857D01*
X151798573Y-109200000D02*
X151727145Y-109128571D01*
X151584288Y-108914286D01*
X151512859Y-108771429D01*
X151441430Y-108557143D01*
X151370002Y-108200000D01*
X151370002Y-107914286D01*
X151441430Y-107557143D01*
X151512859Y-107342857D01*
X151584288Y-107200000D01*
X151727145Y-106985714D01*
X151798573Y-106914286D01*
X153012859Y-108557143D02*
X152870002Y-108628571D01*
X152584288Y-108628571D01*
X152441430Y-108557143D01*
X152370002Y-108485714D01*
X152298573Y-108342857D01*
X152298573Y-107914286D01*
X152370002Y-107771429D01*
X152441430Y-107700000D01*
X152584288Y-107628571D01*
X152870002Y-107628571D01*
X153012859Y-107700000D01*
X153512859Y-109200000D02*
X153584287Y-109128571D01*
X153727144Y-108914286D01*
X153798573Y-108771429D01*
X153870002Y-108557143D01*
X153941430Y-108200000D01*
X153941430Y-107914286D01*
X153870002Y-107557143D01*
X153798573Y-107342857D01*
X153727144Y-107200000D01*
X153584287Y-106985714D01*
X153512859Y-106914286D01*
X155727144Y-107271429D02*
X155798573Y-107200000D01*
X155941430Y-107128571D01*
X156298573Y-107128571D01*
X156441430Y-107200000D01*
X156512859Y-107271429D01*
X156584287Y-107414286D01*
X156584287Y-107557143D01*
X156512859Y-107771429D01*
X155655716Y-108628571D01*
X156584287Y-108628571D01*
X157512858Y-107128571D02*
X157655715Y-107128571D01*
X157798572Y-107200000D01*
X157870001Y-107271429D01*
X157941430Y-107414286D01*
X158012858Y-107700000D01*
X158012858Y-108057143D01*
X157941430Y-108342857D01*
X157870001Y-108485714D01*
X157798572Y-108557143D01*
X157655715Y-108628571D01*
X157512858Y-108628571D01*
X157370001Y-108557143D01*
X157298572Y-108485714D01*
X157227144Y-108342857D01*
X157155715Y-108057143D01*
X157155715Y-107700000D01*
X157227144Y-107414286D01*
X157298572Y-107271429D01*
X157370001Y-107200000D01*
X157512858Y-107128571D01*
X159441429Y-108628571D02*
X158584286Y-108628571D01*
X159012858Y-108628571D02*
X159012858Y-107128571D01*
X158870001Y-107342857D01*
X158727143Y-107485714D01*
X158584286Y-107557143D01*
X159941429Y-107128571D02*
X160941429Y-107128571D01*
X160298572Y-108628571D01*
X162512857Y-107128571D02*
X162870000Y-108628571D01*
X163155714Y-107557143D01*
X163441428Y-108628571D01*
X163798571Y-107128571D01*
X164370000Y-108628571D02*
X164370000Y-107628571D01*
X164370000Y-107128571D02*
X164298571Y-107200000D01*
X164370000Y-107271429D01*
X164441428Y-107200000D01*
X164370000Y-107128571D01*
X164370000Y-107271429D01*
X165298572Y-108628571D02*
X165155714Y-108557143D01*
X165084286Y-108414286D01*
X165084286Y-107128571D01*
X166084286Y-108628571D02*
X165941428Y-108557143D01*
X165870000Y-108414286D01*
X165870000Y-107128571D01*
X167227142Y-108557143D02*
X167084285Y-108628571D01*
X166798571Y-108628571D01*
X166655714Y-108557143D01*
X166584285Y-108414286D01*
X166584285Y-107842857D01*
X166655714Y-107700000D01*
X166798571Y-107628571D01*
X167084285Y-107628571D01*
X167227142Y-107700000D01*
X167298571Y-107842857D01*
X167298571Y-107985714D01*
X166584285Y-108128571D01*
X167941428Y-108628571D02*
X167941428Y-107628571D01*
X167941428Y-107771429D02*
X168012856Y-107700000D01*
X168155714Y-107628571D01*
X168369999Y-107628571D01*
X168512856Y-107700000D01*
X168584285Y-107842857D01*
X168584285Y-108628571D01*
X168584285Y-107842857D02*
X168655714Y-107700000D01*
X168798571Y-107628571D01*
X169012856Y-107628571D01*
X169155714Y-107700000D01*
X169227142Y-107842857D01*
X169227142Y-108628571D01*
X171012856Y-108200000D02*
X171727142Y-108200000D01*
X170869999Y-108628571D02*
X171369999Y-107128571D01*
X171869999Y-108628571D01*
X173012856Y-108628571D02*
X173012856Y-107842857D01*
X172941427Y-107700000D01*
X172798570Y-107628571D01*
X172512856Y-107628571D01*
X172369999Y-107700000D01*
X173012856Y-108557143D02*
X172869999Y-108628571D01*
X172512856Y-108628571D01*
X172369999Y-108557143D01*
X172298570Y-108414286D01*
X172298570Y-108271429D01*
X172369999Y-108128571D01*
X172512856Y-108057143D01*
X172869999Y-108057143D01*
X173012856Y-107985714D01*
X173727142Y-107628571D02*
X173727142Y-108628571D01*
X173727142Y-107771429D02*
X173798570Y-107700000D01*
X173941428Y-107628571D01*
X174155713Y-107628571D01*
X174298570Y-107700000D01*
X174369999Y-107842857D01*
X174369999Y-108628571D01*
X175727142Y-108628571D02*
X175727142Y-107128571D01*
X175727142Y-108557143D02*
X175584285Y-108628571D01*
X175298571Y-108628571D01*
X175155713Y-108557143D01*
X175084285Y-108485714D01*
X175012856Y-108342857D01*
X175012856Y-107914286D01*
X175084285Y-107771429D01*
X175155713Y-107700000D01*
X175298571Y-107628571D01*
X175584285Y-107628571D01*
X175727142Y-107700000D01*
X177012856Y-108557143D02*
X176869999Y-108628571D01*
X176584285Y-108628571D01*
X176441428Y-108557143D01*
X176369999Y-108414286D01*
X176369999Y-107842857D01*
X176441428Y-107700000D01*
X176584285Y-107628571D01*
X176869999Y-107628571D01*
X177012856Y-107700000D01*
X177084285Y-107842857D01*
X177084285Y-107985714D01*
X176369999Y-108128571D01*
X177584285Y-107628571D02*
X177869999Y-108628571D01*
X178155713Y-107914286D01*
X178441428Y-108628571D01*
X178727142Y-107628571D01*
X179298571Y-108628571D02*
X179298571Y-107628571D01*
X179298571Y-107128571D02*
X179227142Y-107200000D01*
X179298571Y-107271429D01*
X179369999Y-107200000D01*
X179298571Y-107128571D01*
X179298571Y-107271429D01*
X180584285Y-108557143D02*
X180441428Y-108628571D01*
X180155714Y-108628571D01*
X180012857Y-108557143D01*
X179941428Y-108414286D01*
X179941428Y-107842857D01*
X180012857Y-107700000D01*
X180155714Y-107628571D01*
X180441428Y-107628571D01*
X180584285Y-107700000D01*
X180655714Y-107842857D01*
X180655714Y-107985714D01*
X179941428Y-108128571D01*
X181512857Y-108628571D02*
X181369999Y-108557143D01*
X181298571Y-108414286D01*
X181298571Y-107128571D01*
D12*
X187960000Y-110490000D02*
X187960000Y-87630000D01*
X149860000Y-110490000D02*
X149860000Y-87630000D01*
X187960000Y-110490000D02*
X149860000Y-110490000D01*
X187960000Y-87630000D02*
X149860000Y-87630000D01*
X179070000Y-82550000D02*
X179070000Y-85090000D01*
X173990000Y-82550000D02*
X173990000Y-85090000D01*
X173990000Y-85090000D02*
X179070000Y-85090000D01*
X173990000Y-82550000D02*
X179070000Y-82550000D01*
X149130000Y-125960000D02*
X149130000Y-112960000D01*
X149130000Y-112960000D02*
X153130000Y-112960000D01*
X153130000Y-112960000D02*
X153130000Y-125960000D01*
X153130000Y-125960000D02*
X149130000Y-125960000D01*
X129540000Y-87630000D02*
X129540000Y-95250000D01*
X127000000Y-95250000D02*
X129540000Y-95250000D01*
X129540000Y-87630000D02*
X127000000Y-87630000D01*
X129540000Y-95250000D02*
X129540000Y-87630000D01*
X127000000Y-95250000D02*
X127000000Y-87630000D01*
X127000000Y-87630000D02*
X127000000Y-95250000D01*
X147550000Y-88360000D02*
X134550000Y-88360000D01*
X134550000Y-88360000D02*
X134550000Y-84360000D01*
X134550000Y-84360000D02*
X147550000Y-84360000D01*
X147550000Y-84360000D02*
X147550000Y-88360000D01*
X160020000Y-116840000D02*
X160020000Y-124460000D01*
X157480000Y-124460000D02*
X160020000Y-124460000D01*
X160020000Y-116840000D02*
X157480000Y-116840000D01*
X160020000Y-124460000D02*
X160020000Y-116840000D01*
X157480000Y-124460000D02*
X157480000Y-116840000D01*
X157480000Y-116840000D02*
X157480000Y-124460000D01*
X199334888Y-115315096D02*
G75*
G03X199350000Y-118340000I-2484888J-1524904D01*
G01*
X199350000Y-115340000D02*
X199350000Y-118340000D01*
X199367936Y-116840000D02*
G75*
G03X199367936Y-116840000I-2517936J0D01*
G01*
X199334888Y-108965096D02*
G75*
G03X199350000Y-111990000I-2484888J-1524904D01*
G01*
X199350000Y-108990000D02*
X199350000Y-111990000D01*
X199367936Y-110490000D02*
G75*
G03X199367936Y-110490000I-2517936J0D01*
G01*
X118110000Y-82550000D02*
X118110000Y-85090000D01*
X128270000Y-82550000D02*
X128270000Y-85090000D01*
X118110000Y-85090000D02*
X128270000Y-85090000D01*
X118110000Y-82550000D02*
X128270000Y-82550000D01*
X165100000Y-121920000D02*
X165100000Y-119380000D01*
X163830000Y-119380000D02*
X165100000Y-119380000D01*
X163830000Y-121920000D02*
X165100000Y-121920000D01*
X165100000Y-121920000D02*
X163830000Y-121920000D01*
X163830000Y-125730000D02*
X163830000Y-115570000D01*
X181610000Y-115570000D02*
X163830000Y-115570000D01*
X181610000Y-125730000D02*
X181610000Y-115570000D01*
X163830000Y-125730000D02*
X181610000Y-125730000D01*
X109220000Y-93980000D02*
X107950000Y-92710000D01*
X114300000Y-93980000D02*
X109220000Y-93980000D01*
X115570000Y-92710000D02*
X114300000Y-93980000D01*
X115570000Y-90170000D02*
X115570000Y-92710000D01*
X107950000Y-90170000D02*
X107950000Y-92710000D01*
X107950000Y-92710000D02*
X107950000Y-90170000D01*
X115570000Y-90170000D02*
X107950000Y-90170000D01*
X107950000Y-90170000D02*
X115570000Y-90170000D01*
X191770000Y-92710000D02*
X199390000Y-92710000D01*
X199390000Y-93980000D02*
X199390000Y-92710000D01*
X191770000Y-93980000D02*
X191770000Y-92710000D01*
X191770000Y-93980000D02*
X199390000Y-93980000D01*
X191770000Y-93980000D02*
X191770000Y-96520000D01*
X191770000Y-96520000D02*
X191770000Y-93980000D01*
X199390000Y-96520000D02*
X199390000Y-93980000D01*
X191770000Y-96520000D02*
X199390000Y-96520000D01*
X191770000Y-96520000D02*
X199390000Y-96520000D01*
X199390000Y-96520000D02*
X191770000Y-96520000D01*
X171450000Y-114300000D02*
X166370000Y-114300000D01*
X166370000Y-114300000D02*
X166370000Y-111760000D01*
X166370000Y-111760000D02*
X171450000Y-111760000D01*
X171450000Y-111760000D02*
X171450000Y-114300000D01*
X193040000Y-124460000D02*
X187960000Y-124460000D01*
X187960000Y-124460000D02*
X187960000Y-121920000D01*
X187960000Y-121920000D02*
X193040000Y-121920000D01*
X193040000Y-121920000D02*
X193040000Y-124460000D01*
X115570000Y-88900000D02*
X110490000Y-88900000D01*
X110490000Y-88900000D02*
X110490000Y-86360000D01*
X110490000Y-86360000D02*
X115570000Y-86360000D01*
X115570000Y-86360000D02*
X115570000Y-88900000D01*
X198120000Y-101600000D02*
X193040000Y-101600000D01*
X193040000Y-101600000D02*
X193040000Y-99060000D01*
X193040000Y-99060000D02*
X198120000Y-99060000D01*
X198120000Y-99060000D02*
X198120000Y-101600000D01*
X198120000Y-106680000D02*
X193040000Y-106680000D01*
X193040000Y-106680000D02*
X193040000Y-104140000D01*
X193040000Y-104140000D02*
X198120000Y-104140000D01*
X198120000Y-104140000D02*
X198120000Y-106680000D01*
X167640000Y-82550000D02*
X167640000Y-85090000D01*
X162560000Y-82550000D02*
X162560000Y-85090000D01*
X167640000Y-82550000D02*
X162560000Y-82550000D01*
X167640000Y-85090000D02*
X167640000Y-82550000D01*
X162560000Y-85090000D02*
X167640000Y-85090000D01*
X143510000Y-90170000D02*
X144780000Y-91440000D01*
X138430000Y-90170000D02*
X143510000Y-90170000D01*
X137160000Y-91440000D02*
X138430000Y-90170000D01*
X137160000Y-93980000D02*
X137160000Y-91440000D01*
X144780000Y-93980000D02*
X144780000Y-91440000D01*
X144780000Y-91440000D02*
X144780000Y-93980000D01*
X137160000Y-93980000D02*
X144780000Y-93980000D01*
X144780000Y-93980000D02*
X137160000Y-93980000D01*
X127000000Y-125730000D02*
X142240000Y-125730000D01*
X142240000Y-125730000D02*
X142240000Y-113030000D01*
X127000000Y-125730000D02*
X142240000Y-125730000D01*
X127000000Y-125730000D02*
X142240000Y-125730000D01*
X142240000Y-125730000D02*
X142240000Y-113030000D01*
X142240000Y-113030000D02*
X127000000Y-113030000D01*
X127000000Y-125730000D02*
X127000000Y-113030000D01*
X127000000Y-113030000D02*
X127000000Y-125730000D01*
X127000000Y-110490000D02*
X142240000Y-110490000D01*
X142240000Y-110490000D02*
X142240000Y-97790000D01*
X127000000Y-110490000D02*
X142240000Y-110490000D01*
X127000000Y-110490000D02*
X142240000Y-110490000D01*
X142240000Y-110490000D02*
X142240000Y-97790000D01*
X142240000Y-97790000D02*
X127000000Y-97790000D01*
X127000000Y-110490000D02*
X127000000Y-97790000D01*
X127000000Y-97790000D02*
X127000000Y-110490000D01*
X90170000Y-125730000D02*
X90170000Y-95250000D01*
X119380000Y-125730000D02*
X119380000Y-95250000D01*
X90170000Y-125730000D02*
X119380000Y-125730000D01*
X90170000Y-95250000D02*
X119380000Y-95250000D01*
X119380000Y-95250000D02*
X90170000Y-95250000D01*
X119380000Y-125730000D02*
X119380000Y-95250000D01*
X202946000Y-82550000D02*
G75*
G03X202946000Y-82550000I-2286000J0D01*
G01*
X202946000Y-128270000D02*
G75*
G03X202946000Y-128270000I-2286000J0D01*
G01*
X92456000Y-82550000D02*
G75*
G03X92456000Y-82550000I-2286000J0D01*
G01*
X92456000Y-128270000D02*
G75*
G03X92456000Y-128270000I-2286000J0D01*
G01*
D13*
G36*
X94759780Y-114980720D02*
X94810580Y-114952780D01*
X94929960Y-114879120D01*
X95095060Y-114769900D01*
X95293180Y-114637820D01*
X95491300Y-114505740D01*
X95653860Y-114396520D01*
X95768160Y-114322860D01*
X95816420Y-114294920D01*
X95841820Y-114305080D01*
X95935800Y-114350800D01*
X96072960Y-114421920D01*
X96151700Y-114462560D01*
X96276160Y-114515900D01*
X96339660Y-114528600D01*
X96349820Y-114510820D01*
X96395540Y-114414300D01*
X96466660Y-114251740D01*
X96560640Y-114033300D01*
X96669860Y-113779300D01*
X96784160Y-113507520D01*
X96901000Y-113228120D01*
X97012760Y-112961420D01*
X97109280Y-112722660D01*
X97188020Y-112527080D01*
X97238820Y-112392460D01*
X97259140Y-112334040D01*
X97254060Y-112321340D01*
X97190560Y-112260380D01*
X97081340Y-112179100D01*
X96845120Y-111986060D01*
X96611440Y-111693960D01*
X96469200Y-111363760D01*
X96420940Y-110995460D01*
X96461580Y-110655100D01*
X96596200Y-110327440D01*
X96824800Y-110032800D01*
X97101660Y-109811820D01*
X97426780Y-109674660D01*
X97790000Y-109628940D01*
X98137980Y-109669580D01*
X98473260Y-109801660D01*
X98767900Y-110025180D01*
X98892360Y-110169960D01*
X99065080Y-110467140D01*
X99161600Y-110787180D01*
X99171760Y-110868460D01*
X99159060Y-111218980D01*
X99054920Y-111556800D01*
X98869500Y-111859060D01*
X98610420Y-112105440D01*
X98579940Y-112128300D01*
X98460560Y-112217200D01*
X98379280Y-112278160D01*
X98318320Y-112328960D01*
X98765360Y-113405920D01*
X98836480Y-113576100D01*
X98958400Y-113870740D01*
X99067620Y-114124740D01*
X99151440Y-114325400D01*
X99212400Y-114460020D01*
X99237800Y-114515900D01*
X99240340Y-114518440D01*
X99280980Y-114526060D01*
X99362260Y-114495580D01*
X99512120Y-114421920D01*
X99611180Y-114371120D01*
X99725480Y-114315240D01*
X99778820Y-114294920D01*
X99822000Y-114320320D01*
X99931220Y-114391440D01*
X100091240Y-114498120D01*
X100284280Y-114627660D01*
X100467160Y-114752120D01*
X100634800Y-114863880D01*
X100759260Y-114942620D01*
X100817680Y-114975640D01*
X100827840Y-114975640D01*
X100881180Y-114945160D01*
X100977700Y-114863880D01*
X101125020Y-114726720D01*
X101330760Y-114520980D01*
X101363780Y-114490500D01*
X101533960Y-114315240D01*
X101671120Y-114170460D01*
X101765100Y-114066320D01*
X101798120Y-114020600D01*
X101798120Y-114020600D01*
X101767640Y-113962180D01*
X101691440Y-113840260D01*
X101579680Y-113667540D01*
X101442520Y-113469420D01*
X101086920Y-112951260D01*
X101282500Y-112461040D01*
X101340920Y-112311180D01*
X101417120Y-112130840D01*
X101475540Y-112001300D01*
X101503480Y-111945420D01*
X101556820Y-111925100D01*
X101691440Y-111894620D01*
X101884480Y-111853980D01*
X102115620Y-111810800D01*
X102336600Y-111770160D01*
X102534720Y-111732060D01*
X102679500Y-111704120D01*
X102743000Y-111691420D01*
X102758240Y-111681260D01*
X102773480Y-111650780D01*
X102781100Y-111582200D01*
X102786180Y-111462820D01*
X102788720Y-111272320D01*
X102788720Y-110995460D01*
X102788720Y-110964980D01*
X102786180Y-110703360D01*
X102781100Y-110492540D01*
X102773480Y-110355380D01*
X102765860Y-110302040D01*
X102763320Y-110302040D01*
X102702360Y-110286800D01*
X102562660Y-110256320D01*
X102362000Y-110218220D01*
X102125780Y-110172500D01*
X102110540Y-110169960D01*
X101874320Y-110124240D01*
X101676200Y-110083600D01*
X101536500Y-110050580D01*
X101478080Y-110032800D01*
X101465380Y-110015020D01*
X101419660Y-109923580D01*
X101351080Y-109776260D01*
X101272340Y-109598460D01*
X101196140Y-109413040D01*
X101127560Y-109245400D01*
X101084380Y-109120940D01*
X101069140Y-109065060D01*
X101071680Y-109062520D01*
X101107240Y-109006640D01*
X101188520Y-108884720D01*
X101302820Y-108714540D01*
X101439980Y-108511340D01*
X101450140Y-108496100D01*
X101587300Y-108297980D01*
X101696520Y-108127800D01*
X101770180Y-108008420D01*
X101798120Y-107952540D01*
X101798120Y-107950000D01*
X101752400Y-107889040D01*
X101650800Y-107777280D01*
X101506020Y-107624880D01*
X101330760Y-107447080D01*
X101274880Y-107393740D01*
X101079300Y-107203240D01*
X100944680Y-107078780D01*
X100860860Y-107012740D01*
X100820220Y-106997500D01*
X100820220Y-107000040D01*
X100759260Y-107035600D01*
X100632260Y-107116880D01*
X100462080Y-107233720D01*
X100258880Y-107370880D01*
X100243640Y-107381040D01*
X100045520Y-107518200D01*
X99877880Y-107629960D01*
X99761040Y-107708700D01*
X99707700Y-107739180D01*
X99700080Y-107739180D01*
X99618800Y-107716320D01*
X99476560Y-107665520D01*
X99301300Y-107596940D01*
X99115880Y-107523280D01*
X98948240Y-107452160D01*
X98821240Y-107396280D01*
X98762820Y-107360720D01*
X98760280Y-107358180D01*
X98739960Y-107287060D01*
X98704400Y-107137200D01*
X98663760Y-106931460D01*
X98615500Y-106687620D01*
X98607880Y-106646980D01*
X98564700Y-106408220D01*
X98526600Y-106212640D01*
X98498660Y-106075480D01*
X98483420Y-106019600D01*
X98450400Y-106011980D01*
X98333560Y-106004360D01*
X98155760Y-105999280D01*
X97939860Y-105996740D01*
X97713800Y-105999280D01*
X97492820Y-106004360D01*
X97304860Y-106009440D01*
X97170240Y-106019600D01*
X97114360Y-106029760D01*
X97111820Y-106034840D01*
X97091500Y-106108500D01*
X97058480Y-106258360D01*
X97015300Y-106464100D01*
X96969580Y-106710480D01*
X96959420Y-106753660D01*
X96916240Y-106989880D01*
X96875600Y-107185460D01*
X96847660Y-107320080D01*
X96832420Y-107373420D01*
X96809560Y-107383580D01*
X96713040Y-107426760D01*
X96553020Y-107492800D01*
X96354900Y-107571540D01*
X95897700Y-107756960D01*
X95336360Y-107373420D01*
X95285560Y-107337860D01*
X95082360Y-107200700D01*
X94917260Y-107091480D01*
X94802960Y-107015280D01*
X94754700Y-106989880D01*
X94749620Y-106989880D01*
X94693740Y-107040680D01*
X94584520Y-107144820D01*
X94432120Y-107292140D01*
X94254320Y-107467400D01*
X94124780Y-107599480D01*
X93969840Y-107756960D01*
X93870780Y-107861100D01*
X93817440Y-107929680D01*
X93799660Y-107970320D01*
X93804740Y-107998260D01*
X93840300Y-108056680D01*
X93921580Y-108178600D01*
X94038420Y-108348780D01*
X94175580Y-108546900D01*
X94287340Y-108714540D01*
X94409260Y-108902500D01*
X94488000Y-109037120D01*
X94515940Y-109103160D01*
X94508320Y-109128560D01*
X94470220Y-109240320D01*
X94401640Y-109405420D01*
X94317820Y-109603540D01*
X94122240Y-110048040D01*
X93832680Y-110103920D01*
X93654880Y-110136940D01*
X93408500Y-110185200D01*
X93172280Y-110230920D01*
X92803980Y-110302040D01*
X92791280Y-111655860D01*
X92847160Y-111681260D01*
X92903040Y-111696500D01*
X93040200Y-111726980D01*
X93233240Y-111765080D01*
X93464380Y-111808260D01*
X93659960Y-111843820D01*
X93858080Y-111881920D01*
X94000320Y-111909860D01*
X94061280Y-111922560D01*
X94079060Y-111945420D01*
X94127320Y-112039400D01*
X94198440Y-112191800D01*
X94277180Y-112374680D01*
X94355920Y-112565180D01*
X94424500Y-112740440D01*
X94472760Y-112872520D01*
X94493080Y-112941100D01*
X94465140Y-112994440D01*
X94391480Y-113111280D01*
X94282260Y-113276380D01*
X94147640Y-113471960D01*
X94013020Y-113667540D01*
X93898720Y-113835180D01*
X93819980Y-113957100D01*
X93786960Y-114012980D01*
X93804740Y-114048540D01*
X93883480Y-114145060D01*
X94030800Y-114297460D01*
X94251780Y-114515900D01*
X94287340Y-114551460D01*
X94462600Y-114719100D01*
X94609920Y-114856260D01*
X94714060Y-114947700D01*
X94759780Y-114980720D01*
X94759780Y-114980720D01*
G37*
X94759780Y-114980720D02*
X94810580Y-114952780D01*
X94929960Y-114879120D01*
X95095060Y-114769900D01*
X95293180Y-114637820D01*
X95491300Y-114505740D01*
X95653860Y-114396520D01*
X95768160Y-114322860D01*
X95816420Y-114294920D01*
X95841820Y-114305080D01*
X95935800Y-114350800D01*
X96072960Y-114421920D01*
X96151700Y-114462560D01*
X96276160Y-114515900D01*
X96339660Y-114528600D01*
X96349820Y-114510820D01*
X96395540Y-114414300D01*
X96466660Y-114251740D01*
X96560640Y-114033300D01*
X96669860Y-113779300D01*
X96784160Y-113507520D01*
X96901000Y-113228120D01*
X97012760Y-112961420D01*
X97109280Y-112722660D01*
X97188020Y-112527080D01*
X97238820Y-112392460D01*
X97259140Y-112334040D01*
X97254060Y-112321340D01*
X97190560Y-112260380D01*
X97081340Y-112179100D01*
X96845120Y-111986060D01*
X96611440Y-111693960D01*
X96469200Y-111363760D01*
X96420940Y-110995460D01*
X96461580Y-110655100D01*
X96596200Y-110327440D01*
X96824800Y-110032800D01*
X97101660Y-109811820D01*
X97426780Y-109674660D01*
X97790000Y-109628940D01*
X98137980Y-109669580D01*
X98473260Y-109801660D01*
X98767900Y-110025180D01*
X98892360Y-110169960D01*
X99065080Y-110467140D01*
X99161600Y-110787180D01*
X99171760Y-110868460D01*
X99159060Y-111218980D01*
X99054920Y-111556800D01*
X98869500Y-111859060D01*
X98610420Y-112105440D01*
X98579940Y-112128300D01*
X98460560Y-112217200D01*
X98379280Y-112278160D01*
X98318320Y-112328960D01*
X98765360Y-113405920D01*
X98836480Y-113576100D01*
X98958400Y-113870740D01*
X99067620Y-114124740D01*
X99151440Y-114325400D01*
X99212400Y-114460020D01*
X99237800Y-114515900D01*
X99240340Y-114518440D01*
X99280980Y-114526060D01*
X99362260Y-114495580D01*
X99512120Y-114421920D01*
X99611180Y-114371120D01*
X99725480Y-114315240D01*
X99778820Y-114294920D01*
X99822000Y-114320320D01*
X99931220Y-114391440D01*
X100091240Y-114498120D01*
X100284280Y-114627660D01*
X100467160Y-114752120D01*
X100634800Y-114863880D01*
X100759260Y-114942620D01*
X100817680Y-114975640D01*
X100827840Y-114975640D01*
X100881180Y-114945160D01*
X100977700Y-114863880D01*
X101125020Y-114726720D01*
X101330760Y-114520980D01*
X101363780Y-114490500D01*
X101533960Y-114315240D01*
X101671120Y-114170460D01*
X101765100Y-114066320D01*
X101798120Y-114020600D01*
X101798120Y-114020600D01*
X101767640Y-113962180D01*
X101691440Y-113840260D01*
X101579680Y-113667540D01*
X101442520Y-113469420D01*
X101086920Y-112951260D01*
X101282500Y-112461040D01*
X101340920Y-112311180D01*
X101417120Y-112130840D01*
X101475540Y-112001300D01*
X101503480Y-111945420D01*
X101556820Y-111925100D01*
X101691440Y-111894620D01*
X101884480Y-111853980D01*
X102115620Y-111810800D01*
X102336600Y-111770160D01*
X102534720Y-111732060D01*
X102679500Y-111704120D01*
X102743000Y-111691420D01*
X102758240Y-111681260D01*
X102773480Y-111650780D01*
X102781100Y-111582200D01*
X102786180Y-111462820D01*
X102788720Y-111272320D01*
X102788720Y-110995460D01*
X102788720Y-110964980D01*
X102786180Y-110703360D01*
X102781100Y-110492540D01*
X102773480Y-110355380D01*
X102765860Y-110302040D01*
X102763320Y-110302040D01*
X102702360Y-110286800D01*
X102562660Y-110256320D01*
X102362000Y-110218220D01*
X102125780Y-110172500D01*
X102110540Y-110169960D01*
X101874320Y-110124240D01*
X101676200Y-110083600D01*
X101536500Y-110050580D01*
X101478080Y-110032800D01*
X101465380Y-110015020D01*
X101419660Y-109923580D01*
X101351080Y-109776260D01*
X101272340Y-109598460D01*
X101196140Y-109413040D01*
X101127560Y-109245400D01*
X101084380Y-109120940D01*
X101069140Y-109065060D01*
X101071680Y-109062520D01*
X101107240Y-109006640D01*
X101188520Y-108884720D01*
X101302820Y-108714540D01*
X101439980Y-108511340D01*
X101450140Y-108496100D01*
X101587300Y-108297980D01*
X101696520Y-108127800D01*
X101770180Y-108008420D01*
X101798120Y-107952540D01*
X101798120Y-107950000D01*
X101752400Y-107889040D01*
X101650800Y-107777280D01*
X101506020Y-107624880D01*
X101330760Y-107447080D01*
X101274880Y-107393740D01*
X101079300Y-107203240D01*
X100944680Y-107078780D01*
X100860860Y-107012740D01*
X100820220Y-106997500D01*
X100820220Y-107000040D01*
X100759260Y-107035600D01*
X100632260Y-107116880D01*
X100462080Y-107233720D01*
X100258880Y-107370880D01*
X100243640Y-107381040D01*
X100045520Y-107518200D01*
X99877880Y-107629960D01*
X99761040Y-107708700D01*
X99707700Y-107739180D01*
X99700080Y-107739180D01*
X99618800Y-107716320D01*
X99476560Y-107665520D01*
X99301300Y-107596940D01*
X99115880Y-107523280D01*
X98948240Y-107452160D01*
X98821240Y-107396280D01*
X98762820Y-107360720D01*
X98760280Y-107358180D01*
X98739960Y-107287060D01*
X98704400Y-107137200D01*
X98663760Y-106931460D01*
X98615500Y-106687620D01*
X98607880Y-106646980D01*
X98564700Y-106408220D01*
X98526600Y-106212640D01*
X98498660Y-106075480D01*
X98483420Y-106019600D01*
X98450400Y-106011980D01*
X98333560Y-106004360D01*
X98155760Y-105999280D01*
X97939860Y-105996740D01*
X97713800Y-105999280D01*
X97492820Y-106004360D01*
X97304860Y-106009440D01*
X97170240Y-106019600D01*
X97114360Y-106029760D01*
X97111820Y-106034840D01*
X97091500Y-106108500D01*
X97058480Y-106258360D01*
X97015300Y-106464100D01*
X96969580Y-106710480D01*
X96959420Y-106753660D01*
X96916240Y-106989880D01*
X96875600Y-107185460D01*
X96847660Y-107320080D01*
X96832420Y-107373420D01*
X96809560Y-107383580D01*
X96713040Y-107426760D01*
X96553020Y-107492800D01*
X96354900Y-107571540D01*
X95897700Y-107756960D01*
X95336360Y-107373420D01*
X95285560Y-107337860D01*
X95082360Y-107200700D01*
X94917260Y-107091480D01*
X94802960Y-107015280D01*
X94754700Y-106989880D01*
X94749620Y-106989880D01*
X94693740Y-107040680D01*
X94584520Y-107144820D01*
X94432120Y-107292140D01*
X94254320Y-107467400D01*
X94124780Y-107599480D01*
X93969840Y-107756960D01*
X93870780Y-107861100D01*
X93817440Y-107929680D01*
X93799660Y-107970320D01*
X93804740Y-107998260D01*
X93840300Y-108056680D01*
X93921580Y-108178600D01*
X94038420Y-108348780D01*
X94175580Y-108546900D01*
X94287340Y-108714540D01*
X94409260Y-108902500D01*
X94488000Y-109037120D01*
X94515940Y-109103160D01*
X94508320Y-109128560D01*
X94470220Y-109240320D01*
X94401640Y-109405420D01*
X94317820Y-109603540D01*
X94122240Y-110048040D01*
X93832680Y-110103920D01*
X93654880Y-110136940D01*
X93408500Y-110185200D01*
X93172280Y-110230920D01*
X92803980Y-110302040D01*
X92791280Y-111655860D01*
X92847160Y-111681260D01*
X92903040Y-111696500D01*
X93040200Y-111726980D01*
X93233240Y-111765080D01*
X93464380Y-111808260D01*
X93659960Y-111843820D01*
X93858080Y-111881920D01*
X94000320Y-111909860D01*
X94061280Y-111922560D01*
X94079060Y-111945420D01*
X94127320Y-112039400D01*
X94198440Y-112191800D01*
X94277180Y-112374680D01*
X94355920Y-112565180D01*
X94424500Y-112740440D01*
X94472760Y-112872520D01*
X94493080Y-112941100D01*
X94465140Y-112994440D01*
X94391480Y-113111280D01*
X94282260Y-113276380D01*
X94147640Y-113471960D01*
X94013020Y-113667540D01*
X93898720Y-113835180D01*
X93819980Y-113957100D01*
X93786960Y-114012980D01*
X93804740Y-114048540D01*
X93883480Y-114145060D01*
X94030800Y-114297460D01*
X94251780Y-114515900D01*
X94287340Y-114551460D01*
X94462600Y-114719100D01*
X94609920Y-114856260D01*
X94714060Y-114947700D01*
X94759780Y-114980720D01*
D12*
X179792381Y-99821905D02*
X180601905Y-99821905D01*
X180697143Y-99774286D01*
X180744762Y-99726667D01*
X180792381Y-99631429D01*
X180792381Y-99440952D01*
X180744762Y-99345714D01*
X180697143Y-99298095D01*
X180601905Y-99250476D01*
X179792381Y-99250476D01*
X179887619Y-98821905D02*
X179840000Y-98774286D01*
X179792381Y-98679048D01*
X179792381Y-98440952D01*
X179840000Y-98345714D01*
X179887619Y-98298095D01*
X179982857Y-98250476D01*
X180078095Y-98250476D01*
X180220952Y-98298095D01*
X180792381Y-98869524D01*
X180792381Y-98250476D01*
X182840476Y-92162381D02*
X183459524Y-92162381D01*
X183126190Y-92543333D01*
X183269048Y-92543333D01*
X183364286Y-92590952D01*
X183411905Y-92638571D01*
X183459524Y-92733810D01*
X183459524Y-92971905D01*
X183411905Y-93067143D01*
X183364286Y-93114762D01*
X183269048Y-93162381D01*
X182983333Y-93162381D01*
X182888095Y-93114762D01*
X182840476Y-93067143D01*
X183840476Y-92257619D02*
X183888095Y-92210000D01*
X183983333Y-92162381D01*
X184221429Y-92162381D01*
X184316667Y-92210000D01*
X184364286Y-92257619D01*
X184411905Y-92352857D01*
X184411905Y-92448095D01*
X184364286Y-92590952D01*
X183792857Y-93162381D01*
X184411905Y-93162381D01*
X184840476Y-93162381D02*
X184840476Y-92162381D01*
X185411905Y-93162381D02*
X184983333Y-92590952D01*
X185411905Y-92162381D02*
X184840476Y-92733810D01*
X182769048Y-95654762D02*
X182911905Y-95702381D01*
X183150001Y-95702381D01*
X183245239Y-95654762D01*
X183292858Y-95607143D01*
X183340477Y-95511905D01*
X183340477Y-95416667D01*
X183292858Y-95321429D01*
X183245239Y-95273810D01*
X183150001Y-95226190D01*
X182959524Y-95178571D01*
X182864286Y-95130952D01*
X182816667Y-95083333D01*
X182769048Y-94988095D01*
X182769048Y-94892857D01*
X182816667Y-94797619D01*
X182864286Y-94750000D01*
X182959524Y-94702381D01*
X183197620Y-94702381D01*
X183340477Y-94750000D01*
X184435715Y-95797619D02*
X184340477Y-95750000D01*
X184245239Y-95654762D01*
X184102382Y-95511905D01*
X184007143Y-95464286D01*
X183911905Y-95464286D01*
X183959524Y-95702381D02*
X183864286Y-95654762D01*
X183769048Y-95559524D01*
X183721429Y-95369048D01*
X183721429Y-95035714D01*
X183769048Y-94845238D01*
X183864286Y-94750000D01*
X183959524Y-94702381D01*
X184150001Y-94702381D01*
X184245239Y-94750000D01*
X184340477Y-94845238D01*
X184388096Y-95035714D01*
X184388096Y-95369048D01*
X184340477Y-95559524D01*
X184245239Y-95654762D01*
X184150001Y-95702381D01*
X183959524Y-95702381D01*
X184721429Y-94702381D02*
X184959524Y-95702381D01*
X185150001Y-94988095D01*
X185340477Y-95702381D01*
X185578572Y-94702381D01*
X182483333Y-98194762D02*
X182626190Y-98242381D01*
X182864286Y-98242381D01*
X182959524Y-98194762D01*
X183007143Y-98147143D01*
X183054762Y-98051905D01*
X183054762Y-97956667D01*
X183007143Y-97861429D01*
X182959524Y-97813810D01*
X182864286Y-97766190D01*
X182673809Y-97718571D01*
X182578571Y-97670952D01*
X182530952Y-97623333D01*
X182483333Y-97528095D01*
X182483333Y-97432857D01*
X182530952Y-97337619D01*
X182578571Y-97290000D01*
X182673809Y-97242381D01*
X182911905Y-97242381D01*
X183054762Y-97290000D01*
X184054762Y-98147143D02*
X184007143Y-98194762D01*
X183864286Y-98242381D01*
X183769048Y-98242381D01*
X183626190Y-98194762D01*
X183530952Y-98099524D01*
X183483333Y-98004286D01*
X183435714Y-97813810D01*
X183435714Y-97670952D01*
X183483333Y-97480476D01*
X183530952Y-97385238D01*
X183626190Y-97290000D01*
X183769048Y-97242381D01*
X183864286Y-97242381D01*
X184007143Y-97290000D01*
X184054762Y-97337619D01*
X184959524Y-98242381D02*
X184483333Y-98242381D01*
X184483333Y-97242381D01*
X185245238Y-97337619D02*
X185292857Y-97290000D01*
X185388095Y-97242381D01*
X185626191Y-97242381D01*
X185721429Y-97290000D01*
X185769048Y-97337619D01*
X185816667Y-97432857D01*
X185816667Y-97528095D01*
X185769048Y-97670952D01*
X185197619Y-98242381D01*
X185816667Y-98242381D01*
X182459524Y-100734762D02*
X182602381Y-100782381D01*
X182840477Y-100782381D01*
X182935715Y-100734762D01*
X182983334Y-100687143D01*
X183030953Y-100591905D01*
X183030953Y-100496667D01*
X182983334Y-100401429D01*
X182935715Y-100353810D01*
X182840477Y-100306190D01*
X182650000Y-100258571D01*
X182554762Y-100210952D01*
X182507143Y-100163333D01*
X182459524Y-100068095D01*
X182459524Y-99972857D01*
X182507143Y-99877619D01*
X182554762Y-99830000D01*
X182650000Y-99782381D01*
X182888096Y-99782381D01*
X183030953Y-99830000D01*
X183459524Y-100782381D02*
X183459524Y-99782381D01*
X183697619Y-99782381D01*
X183840477Y-99830000D01*
X183935715Y-99925238D01*
X183983334Y-100020476D01*
X184030953Y-100210952D01*
X184030953Y-100353810D01*
X183983334Y-100544286D01*
X183935715Y-100639524D01*
X183840477Y-100734762D01*
X183697619Y-100782381D01*
X183459524Y-100782381D01*
X184411905Y-100496667D02*
X184888096Y-100496667D01*
X184316667Y-100782381D02*
X184650000Y-99782381D01*
X184983334Y-100782381D01*
X185269048Y-99877619D02*
X185316667Y-99830000D01*
X185411905Y-99782381D01*
X185650001Y-99782381D01*
X185745239Y-99830000D01*
X185792858Y-99877619D01*
X185840477Y-99972857D01*
X185840477Y-100068095D01*
X185792858Y-100210952D01*
X185221429Y-100782381D01*
X185840477Y-100782381D01*
X182483333Y-102322381D02*
X182816666Y-103322381D01*
X183150000Y-102322381D01*
X183911905Y-103274762D02*
X183816667Y-103322381D01*
X183626190Y-103322381D01*
X183530952Y-103274762D01*
X183483333Y-103227143D01*
X183435714Y-103131905D01*
X183435714Y-102846190D01*
X183483333Y-102750952D01*
X183530952Y-102703333D01*
X183626190Y-102655714D01*
X183816667Y-102655714D01*
X183911905Y-102703333D01*
X184769048Y-103274762D02*
X184673810Y-103322381D01*
X184483333Y-103322381D01*
X184388095Y-103274762D01*
X184340476Y-103227143D01*
X184292857Y-103131905D01*
X184292857Y-102846190D01*
X184340476Y-102750952D01*
X184388095Y-102703333D01*
X184483333Y-102655714D01*
X184673810Y-102655714D01*
X184769048Y-102703333D01*
X185150000Y-102417619D02*
X185197619Y-102370000D01*
X185292857Y-102322381D01*
X185530953Y-102322381D01*
X185626191Y-102370000D01*
X185673810Y-102417619D01*
X185721429Y-102512857D01*
X185721429Y-102608095D01*
X185673810Y-102750952D01*
X185102381Y-103322381D01*
X185721429Y-103322381D01*
X182911905Y-104910000D02*
X182816667Y-104862381D01*
X182673810Y-104862381D01*
X182530952Y-104910000D01*
X182435714Y-105005238D01*
X182388095Y-105100476D01*
X182340476Y-105290952D01*
X182340476Y-105433810D01*
X182388095Y-105624286D01*
X182435714Y-105719524D01*
X182530952Y-105814762D01*
X182673810Y-105862381D01*
X182769048Y-105862381D01*
X182911905Y-105814762D01*
X182959524Y-105767143D01*
X182959524Y-105433810D01*
X182769048Y-105433810D01*
X183388095Y-105862381D02*
X183388095Y-104862381D01*
X183959524Y-105862381D01*
X183959524Y-104862381D01*
X184435714Y-105862381D02*
X184435714Y-104862381D01*
X184673809Y-104862381D01*
X184816667Y-104910000D01*
X184911905Y-105005238D01*
X184959524Y-105100476D01*
X185007143Y-105290952D01*
X185007143Y-105433810D01*
X184959524Y-105624286D01*
X184911905Y-105719524D01*
X184816667Y-105814762D01*
X184673809Y-105862381D01*
X184435714Y-105862381D01*
X185388095Y-104957619D02*
X185435714Y-104910000D01*
X185530952Y-104862381D01*
X185769048Y-104862381D01*
X185864286Y-104910000D01*
X185911905Y-104957619D01*
X185959524Y-105052857D01*
X185959524Y-105148095D01*
X185911905Y-105290952D01*
X185340476Y-105862381D01*
X185959524Y-105862381D01*
X152479524Y-95654762D02*
X152622381Y-95702381D01*
X152860477Y-95702381D01*
X152955715Y-95654762D01*
X153003334Y-95607143D01*
X153050953Y-95511905D01*
X153050953Y-95416667D01*
X153003334Y-95321429D01*
X152955715Y-95273810D01*
X152860477Y-95226190D01*
X152670000Y-95178571D01*
X152574762Y-95130952D01*
X152527143Y-95083333D01*
X152479524Y-94988095D01*
X152479524Y-94892857D01*
X152527143Y-94797619D01*
X152574762Y-94750000D01*
X152670000Y-94702381D01*
X152908096Y-94702381D01*
X153050953Y-94750000D01*
X154050953Y-95607143D02*
X154003334Y-95654762D01*
X153860477Y-95702381D01*
X153765239Y-95702381D01*
X153622381Y-95654762D01*
X153527143Y-95559524D01*
X153479524Y-95464286D01*
X153431905Y-95273810D01*
X153431905Y-95130952D01*
X153479524Y-94940476D01*
X153527143Y-94845238D01*
X153622381Y-94750000D01*
X153765239Y-94702381D01*
X153860477Y-94702381D01*
X154003334Y-94750000D01*
X154050953Y-94797619D01*
X154955715Y-95702381D02*
X154479524Y-95702381D01*
X154479524Y-94702381D01*
X152455714Y-98194762D02*
X152598571Y-98242381D01*
X152836667Y-98242381D01*
X152931905Y-98194762D01*
X152979524Y-98147143D01*
X153027143Y-98051905D01*
X153027143Y-97956667D01*
X152979524Y-97861429D01*
X152931905Y-97813810D01*
X152836667Y-97766190D01*
X152646190Y-97718571D01*
X152550952Y-97670952D01*
X152503333Y-97623333D01*
X152455714Y-97528095D01*
X152455714Y-97432857D01*
X152503333Y-97337619D01*
X152550952Y-97290000D01*
X152646190Y-97242381D01*
X152884286Y-97242381D01*
X153027143Y-97290000D01*
X153455714Y-98242381D02*
X153455714Y-97242381D01*
X153693809Y-97242381D01*
X153836667Y-97290000D01*
X153931905Y-97385238D01*
X153979524Y-97480476D01*
X154027143Y-97670952D01*
X154027143Y-97813810D01*
X153979524Y-98004286D01*
X153931905Y-98099524D01*
X153836667Y-98194762D01*
X153693809Y-98242381D01*
X153455714Y-98242381D01*
X154408095Y-97956667D02*
X154884286Y-97956667D01*
X154312857Y-98242381D02*
X154646190Y-97242381D01*
X154979524Y-98242381D01*
X152479524Y-99782381D02*
X152812857Y-100782381D01*
X153146191Y-99782381D01*
X153908096Y-100734762D02*
X153812858Y-100782381D01*
X153622381Y-100782381D01*
X153527143Y-100734762D01*
X153479524Y-100687143D01*
X153431905Y-100591905D01*
X153431905Y-100306190D01*
X153479524Y-100210952D01*
X153527143Y-100163333D01*
X153622381Y-100115714D01*
X153812858Y-100115714D01*
X153908096Y-100163333D01*
X154765239Y-100734762D02*
X154670001Y-100782381D01*
X154479524Y-100782381D01*
X154384286Y-100734762D01*
X154336667Y-100687143D01*
X154289048Y-100591905D01*
X154289048Y-100306190D01*
X154336667Y-100210952D01*
X154384286Y-100163333D01*
X154479524Y-100115714D01*
X154670001Y-100115714D01*
X154765239Y-100163333D01*
X152908096Y-102370000D02*
X152812858Y-102322381D01*
X152670001Y-102322381D01*
X152527143Y-102370000D01*
X152431905Y-102465238D01*
X152384286Y-102560476D01*
X152336667Y-102750952D01*
X152336667Y-102893810D01*
X152384286Y-103084286D01*
X152431905Y-103179524D01*
X152527143Y-103274762D01*
X152670001Y-103322381D01*
X152765239Y-103322381D01*
X152908096Y-103274762D01*
X152955715Y-103227143D01*
X152955715Y-102893810D01*
X152765239Y-102893810D01*
X153384286Y-103322381D02*
X153384286Y-102322381D01*
X153955715Y-103322381D01*
X153955715Y-102322381D01*
X154431905Y-103322381D02*
X154431905Y-102322381D01*
X154670000Y-102322381D01*
X154812858Y-102370000D01*
X154908096Y-102465238D01*
X154955715Y-102560476D01*
X155003334Y-102750952D01*
X155003334Y-102893810D01*
X154955715Y-103084286D01*
X154908096Y-103179524D01*
X154812858Y-103274762D01*
X154670000Y-103322381D01*
X154431905Y-103322381D01*
X175744286Y-86288571D02*
X175887143Y-86336190D01*
X175934762Y-86383810D01*
X175982381Y-86479048D01*
X175982381Y-86621905D01*
X175934762Y-86717143D01*
X175887143Y-86764762D01*
X175791905Y-86812381D01*
X175410952Y-86812381D01*
X175410952Y-85812381D01*
X175744286Y-85812381D01*
X175839524Y-85860000D01*
X175887143Y-85907619D01*
X175934762Y-86002857D01*
X175934762Y-86098095D01*
X175887143Y-86193333D01*
X175839524Y-86240952D01*
X175744286Y-86288571D01*
X175410952Y-86288571D01*
X176268095Y-85812381D02*
X176839524Y-85812381D01*
X176553809Y-86812381D02*
X176553809Y-85812381D01*
X177696667Y-86812381D02*
X177125238Y-86812381D01*
X177410952Y-86812381D02*
X177410952Y-85812381D01*
X177315714Y-85955238D01*
X177220476Y-86050476D01*
X177125238Y-86098095D01*
X179840000Y-84581904D02*
X179792381Y-84677142D01*
X179792381Y-84819999D01*
X179840000Y-84962857D01*
X179935238Y-85058095D01*
X180030476Y-85105714D01*
X180220952Y-85153333D01*
X180363810Y-85153333D01*
X180554286Y-85105714D01*
X180649524Y-85058095D01*
X180744762Y-84962857D01*
X180792381Y-84819999D01*
X180792381Y-84724761D01*
X180744762Y-84581904D01*
X180697143Y-84534285D01*
X180363810Y-84534285D01*
X180363810Y-84724761D01*
X180792381Y-84105714D02*
X179792381Y-84105714D01*
X180792381Y-83534285D01*
X179792381Y-83534285D01*
X180792381Y-83058095D02*
X179792381Y-83058095D01*
X179792381Y-82820000D01*
X179840000Y-82677142D01*
X179935238Y-82581904D01*
X180030476Y-82534285D01*
X180220952Y-82486666D01*
X180363810Y-82486666D01*
X180554286Y-82534285D01*
X180649524Y-82581904D01*
X180744762Y-82677142D01*
X180792381Y-82820000D01*
X180792381Y-83058095D01*
X172172381Y-85010476D02*
X173172381Y-84677143D01*
X172172381Y-84343809D01*
X173124762Y-83581904D02*
X173172381Y-83677142D01*
X173172381Y-83867619D01*
X173124762Y-83962857D01*
X173077143Y-84010476D01*
X172981905Y-84058095D01*
X172696190Y-84058095D01*
X172600952Y-84010476D01*
X172553333Y-83962857D01*
X172505714Y-83867619D01*
X172505714Y-83677142D01*
X172553333Y-83581904D01*
X173124762Y-82724761D02*
X173172381Y-82819999D01*
X173172381Y-83010476D01*
X173124762Y-83105714D01*
X173077143Y-83153333D01*
X172981905Y-83200952D01*
X172696190Y-83200952D01*
X172600952Y-83153333D01*
X172553333Y-83105714D01*
X172505714Y-83010476D01*
X172505714Y-82819999D01*
X172553333Y-82724761D01*
X151487143Y-119546666D02*
X151534762Y-119594285D01*
X151582381Y-119737142D01*
X151582381Y-119832380D01*
X151534762Y-119975238D01*
X151439524Y-120070476D01*
X151344286Y-120118095D01*
X151153810Y-120165714D01*
X151010952Y-120165714D01*
X150820476Y-120118095D01*
X150725238Y-120070476D01*
X150630000Y-119975238D01*
X150582381Y-119832380D01*
X150582381Y-119737142D01*
X150630000Y-119594285D01*
X150677619Y-119546666D01*
X151582381Y-118594285D02*
X151582381Y-119165714D01*
X151582381Y-118880000D02*
X150582381Y-118880000D01*
X150725238Y-118975238D01*
X150820476Y-119070476D01*
X150868095Y-119165714D01*
X147391429Y-126110952D02*
X147391429Y-125349047D01*
X147772381Y-125729999D02*
X147010476Y-125729999D01*
X128627143Y-91606666D02*
X128674762Y-91654285D01*
X128722381Y-91797142D01*
X128722381Y-91892380D01*
X128674762Y-92035238D01*
X128579524Y-92130476D01*
X128484286Y-92178095D01*
X128293810Y-92225714D01*
X128150952Y-92225714D01*
X127960476Y-92178095D01*
X127865238Y-92130476D01*
X127770000Y-92035238D01*
X127722381Y-91892380D01*
X127722381Y-91797142D01*
X127770000Y-91654285D01*
X127817619Y-91606666D01*
X127817619Y-91225714D02*
X127770000Y-91178095D01*
X127722381Y-91082857D01*
X127722381Y-90844761D01*
X127770000Y-90749523D01*
X127817619Y-90701904D01*
X127912857Y-90654285D01*
X128008095Y-90654285D01*
X128150952Y-90701904D01*
X128722381Y-91273333D01*
X128722381Y-90654285D01*
X140803334Y-86717143D02*
X140755715Y-86764762D01*
X140612858Y-86812381D01*
X140517620Y-86812381D01*
X140374762Y-86764762D01*
X140279524Y-86669524D01*
X140231905Y-86574286D01*
X140184286Y-86383810D01*
X140184286Y-86240952D01*
X140231905Y-86050476D01*
X140279524Y-85955238D01*
X140374762Y-85860000D01*
X140517620Y-85812381D01*
X140612858Y-85812381D01*
X140755715Y-85860000D01*
X140803334Y-85907619D01*
X141136667Y-85812381D02*
X141755715Y-85812381D01*
X141422381Y-86193333D01*
X141565239Y-86193333D01*
X141660477Y-86240952D01*
X141708096Y-86288571D01*
X141755715Y-86383810D01*
X141755715Y-86621905D01*
X141708096Y-86717143D01*
X141660477Y-86764762D01*
X141565239Y-86812381D01*
X141279524Y-86812381D01*
X141184286Y-86764762D01*
X141136667Y-86717143D01*
X146939048Y-90241429D02*
X147700953Y-90241429D01*
X147320001Y-90622381D02*
X147320001Y-89860476D01*
X159107143Y-120816666D02*
X159154762Y-120864285D01*
X159202381Y-121007142D01*
X159202381Y-121102380D01*
X159154762Y-121245238D01*
X159059524Y-121340476D01*
X158964286Y-121388095D01*
X158773810Y-121435714D01*
X158630952Y-121435714D01*
X158440476Y-121388095D01*
X158345238Y-121340476D01*
X158250000Y-121245238D01*
X158202381Y-121102380D01*
X158202381Y-121007142D01*
X158250000Y-120864285D01*
X158297619Y-120816666D01*
X158535714Y-119959523D02*
X159202381Y-119959523D01*
X158154762Y-120197619D02*
X158869048Y-120435714D01*
X158869048Y-119816666D01*
X199921905Y-117292381D02*
X199921905Y-116292381D01*
X200160000Y-116292381D01*
X200302858Y-116340000D01*
X200398096Y-116435238D01*
X200445715Y-116530476D01*
X200493334Y-116720952D01*
X200493334Y-116863810D01*
X200445715Y-117054286D01*
X200398096Y-117149524D01*
X200302858Y-117244762D01*
X200160000Y-117292381D01*
X199921905Y-117292381D01*
X201445715Y-117292381D02*
X200874286Y-117292381D01*
X201160000Y-117292381D02*
X201160000Y-116292381D01*
X201064762Y-116435238D01*
X200969524Y-116530476D01*
X200874286Y-116578095D01*
X199763095Y-115387381D02*
X199763095Y-114387381D01*
X200334524Y-115387381D02*
X199905952Y-114815952D01*
X200334524Y-114387381D02*
X199763095Y-114958810D01*
X199921905Y-110942381D02*
X199921905Y-109942381D01*
X200160000Y-109942381D01*
X200302858Y-109990000D01*
X200398096Y-110085238D01*
X200445715Y-110180476D01*
X200493334Y-110370952D01*
X200493334Y-110513810D01*
X200445715Y-110704286D01*
X200398096Y-110799524D01*
X200302858Y-110894762D01*
X200160000Y-110942381D01*
X199921905Y-110942381D01*
X200874286Y-110037619D02*
X200921905Y-109990000D01*
X201017143Y-109942381D01*
X201255239Y-109942381D01*
X201350477Y-109990000D01*
X201398096Y-110037619D01*
X201445715Y-110132857D01*
X201445715Y-110228095D01*
X201398096Y-110370952D01*
X200826667Y-110942381D01*
X201445715Y-110942381D01*
X199763095Y-109037381D02*
X199763095Y-108037381D01*
X200334524Y-109037381D02*
X199905952Y-108465952D01*
X200334524Y-108037381D02*
X199763095Y-108608810D01*
X128143333Y-84272381D02*
X128143333Y-83272381D01*
X128381428Y-83272381D01*
X128524286Y-83320000D01*
X128619524Y-83415238D01*
X128667143Y-83510476D01*
X128714762Y-83700952D01*
X128714762Y-83843810D01*
X128667143Y-84034286D01*
X128619524Y-84129524D01*
X128524286Y-84224762D01*
X128381428Y-84272381D01*
X128143333Y-84272381D01*
X129095714Y-84224762D02*
X129238571Y-84272381D01*
X129476667Y-84272381D01*
X129571905Y-84224762D01*
X129619524Y-84177143D01*
X129667143Y-84081905D01*
X129667143Y-83986667D01*
X129619524Y-83891429D01*
X129571905Y-83843810D01*
X129476667Y-83796190D01*
X129286190Y-83748571D01*
X129190952Y-83700952D01*
X129143333Y-83653333D01*
X129095714Y-83558095D01*
X129095714Y-83462857D01*
X129143333Y-83367619D01*
X129190952Y-83320000D01*
X129286190Y-83272381D01*
X129524286Y-83272381D01*
X129667143Y-83320000D01*
X130619524Y-84272381D02*
X130048095Y-84272381D01*
X130333809Y-84272381D02*
X130333809Y-83272381D01*
X130238571Y-83415238D01*
X130143333Y-83510476D01*
X130048095Y-83558095D01*
X131190952Y-83700952D02*
X131095714Y-83653333D01*
X131048095Y-83605714D01*
X131000476Y-83510476D01*
X131000476Y-83462857D01*
X131048095Y-83367619D01*
X131095714Y-83320000D01*
X131190952Y-83272381D01*
X131381429Y-83272381D01*
X131476667Y-83320000D01*
X131524286Y-83367619D01*
X131571905Y-83462857D01*
X131571905Y-83510476D01*
X131524286Y-83605714D01*
X131476667Y-83653333D01*
X131381429Y-83700952D01*
X131190952Y-83700952D01*
X131095714Y-83748571D01*
X131048095Y-83796190D01*
X131000476Y-83891429D01*
X131000476Y-84081905D01*
X131048095Y-84177143D01*
X131095714Y-84224762D01*
X131190952Y-84272381D01*
X131381429Y-84272381D01*
X131476667Y-84224762D01*
X131524286Y-84177143D01*
X131571905Y-84081905D01*
X131571905Y-83891429D01*
X131524286Y-83796190D01*
X131476667Y-83748571D01*
X131381429Y-83700952D01*
X132333810Y-83748571D02*
X132476667Y-83796190D01*
X132524286Y-83843810D01*
X132571905Y-83939048D01*
X132571905Y-84081905D01*
X132524286Y-84177143D01*
X132476667Y-84224762D01*
X132381429Y-84272381D01*
X132000476Y-84272381D01*
X132000476Y-83272381D01*
X132333810Y-83272381D01*
X132429048Y-83320000D01*
X132476667Y-83367619D01*
X132524286Y-83462857D01*
X132524286Y-83558095D01*
X132476667Y-83653333D01*
X132429048Y-83700952D01*
X132333810Y-83748571D01*
X132000476Y-83748571D01*
X133524286Y-84272381D02*
X132952857Y-84272381D01*
X133238571Y-84272381D02*
X133238571Y-83272381D01*
X133143333Y-83415238D01*
X133048095Y-83510476D01*
X132952857Y-83558095D01*
X127071429Y-81660952D02*
X127071429Y-80899047D01*
X122372381Y-81541905D02*
X121372381Y-81541905D01*
X121372381Y-81303810D01*
X121420000Y-81160952D01*
X121515238Y-81065714D01*
X121610476Y-81018095D01*
X121800952Y-80970476D01*
X121943810Y-80970476D01*
X122134286Y-81018095D01*
X122229524Y-81065714D01*
X122324762Y-81160952D01*
X122372381Y-81303810D01*
X122372381Y-81541905D01*
X119451429Y-81660952D02*
X119451429Y-80899047D01*
X119832381Y-81279999D02*
X119070476Y-81279999D01*
X170473810Y-121102381D02*
X170473810Y-120102381D01*
X171521429Y-121007143D02*
X171473810Y-121054762D01*
X171330953Y-121102381D01*
X171235715Y-121102381D01*
X171092857Y-121054762D01*
X170997619Y-120959524D01*
X170950000Y-120864286D01*
X170902381Y-120673810D01*
X170902381Y-120530952D01*
X170950000Y-120340476D01*
X170997619Y-120245238D01*
X171092857Y-120150000D01*
X171235715Y-120102381D01*
X171330953Y-120102381D01*
X171473810Y-120150000D01*
X171521429Y-120197619D01*
X172473810Y-121102381D02*
X171902381Y-121102381D01*
X172188095Y-121102381D02*
X172188095Y-120102381D01*
X172092857Y-120245238D01*
X171997619Y-120340476D01*
X171902381Y-120388095D01*
X106584762Y-91987619D02*
X106489524Y-91940000D01*
X106394286Y-91844762D01*
X106251429Y-91701905D01*
X106156190Y-91654286D01*
X106060952Y-91654286D01*
X106108571Y-91892381D02*
X106013333Y-91844762D01*
X105918095Y-91749524D01*
X105870476Y-91559048D01*
X105870476Y-91225714D01*
X105918095Y-91035238D01*
X106013333Y-90940000D01*
X106108571Y-90892381D01*
X106299048Y-90892381D01*
X106394286Y-90940000D01*
X106489524Y-91035238D01*
X106537143Y-91225714D01*
X106537143Y-91559048D01*
X106489524Y-91749524D01*
X106394286Y-91844762D01*
X106299048Y-91892381D01*
X106108571Y-91892381D01*
X107489524Y-91892381D02*
X106918095Y-91892381D01*
X107203809Y-91892381D02*
X107203809Y-90892381D01*
X107108571Y-91035238D01*
X107013333Y-91130476D01*
X106918095Y-91178095D01*
X195484762Y-93257619D02*
X195389524Y-93210000D01*
X195294286Y-93114762D01*
X195151429Y-92971905D01*
X195056190Y-92924286D01*
X194960952Y-92924286D01*
X195008571Y-93162381D02*
X194913333Y-93114762D01*
X194818095Y-93019524D01*
X194770476Y-92829048D01*
X194770476Y-92495714D01*
X194818095Y-92305238D01*
X194913333Y-92210000D01*
X195008571Y-92162381D01*
X195199048Y-92162381D01*
X195294286Y-92210000D01*
X195389524Y-92305238D01*
X195437143Y-92495714D01*
X195437143Y-92829048D01*
X195389524Y-93019524D01*
X195294286Y-93114762D01*
X195199048Y-93162381D01*
X195008571Y-93162381D01*
X195818095Y-92257619D02*
X195865714Y-92210000D01*
X195960952Y-92162381D01*
X196199048Y-92162381D01*
X196294286Y-92210000D01*
X196341905Y-92257619D01*
X196389524Y-92352857D01*
X196389524Y-92448095D01*
X196341905Y-92590952D01*
X195770476Y-93162381D01*
X196389524Y-93162381D01*
X168743334Y-113482381D02*
X168410000Y-113006190D01*
X168171905Y-113482381D02*
X168171905Y-112482381D01*
X168552858Y-112482381D01*
X168648096Y-112530000D01*
X168695715Y-112577619D01*
X168743334Y-112672857D01*
X168743334Y-112815714D01*
X168695715Y-112910952D01*
X168648096Y-112958571D01*
X168552858Y-113006190D01*
X168171905Y-113006190D01*
X169695715Y-113482381D02*
X169124286Y-113482381D01*
X169410000Y-113482381D02*
X169410000Y-112482381D01*
X169314762Y-112625238D01*
X169219524Y-112720476D01*
X169124286Y-112768095D01*
X190333334Y-123642381D02*
X190000000Y-123166190D01*
X189761905Y-123642381D02*
X189761905Y-122642381D01*
X190142858Y-122642381D01*
X190238096Y-122690000D01*
X190285715Y-122737619D01*
X190333334Y-122832857D01*
X190333334Y-122975714D01*
X190285715Y-123070952D01*
X190238096Y-123118571D01*
X190142858Y-123166190D01*
X189761905Y-123166190D01*
X190714286Y-122737619D02*
X190761905Y-122690000D01*
X190857143Y-122642381D01*
X191095239Y-122642381D01*
X191190477Y-122690000D01*
X191238096Y-122737619D01*
X191285715Y-122832857D01*
X191285715Y-122928095D01*
X191238096Y-123070952D01*
X190666667Y-123642381D01*
X191285715Y-123642381D01*
X112863334Y-88082381D02*
X112530000Y-87606190D01*
X112291905Y-88082381D02*
X112291905Y-87082381D01*
X112672858Y-87082381D01*
X112768096Y-87130000D01*
X112815715Y-87177619D01*
X112863334Y-87272857D01*
X112863334Y-87415714D01*
X112815715Y-87510952D01*
X112768096Y-87558571D01*
X112672858Y-87606190D01*
X112291905Y-87606190D01*
X113196667Y-87082381D02*
X113815715Y-87082381D01*
X113482381Y-87463333D01*
X113625239Y-87463333D01*
X113720477Y-87510952D01*
X113768096Y-87558571D01*
X113815715Y-87653810D01*
X113815715Y-87891905D01*
X113768096Y-87987143D01*
X113720477Y-88034762D01*
X113625239Y-88082381D01*
X113339524Y-88082381D01*
X113244286Y-88034762D01*
X113196667Y-87987143D01*
X195413334Y-100782381D02*
X195080000Y-100306190D01*
X194841905Y-100782381D02*
X194841905Y-99782381D01*
X195222858Y-99782381D01*
X195318096Y-99830000D01*
X195365715Y-99877619D01*
X195413334Y-99972857D01*
X195413334Y-100115714D01*
X195365715Y-100210952D01*
X195318096Y-100258571D01*
X195222858Y-100306190D01*
X194841905Y-100306190D01*
X196270477Y-100115714D02*
X196270477Y-100782381D01*
X196032381Y-99734762D02*
X195794286Y-100449048D01*
X196413334Y-100449048D01*
X195413334Y-105862381D02*
X195080000Y-105386190D01*
X194841905Y-105862381D02*
X194841905Y-104862381D01*
X195222858Y-104862381D01*
X195318096Y-104910000D01*
X195365715Y-104957619D01*
X195413334Y-105052857D01*
X195413334Y-105195714D01*
X195365715Y-105290952D01*
X195318096Y-105338571D01*
X195222858Y-105386190D01*
X194841905Y-105386190D01*
X196318096Y-104862381D02*
X195841905Y-104862381D01*
X195794286Y-105338571D01*
X195841905Y-105290952D01*
X195937143Y-105243333D01*
X196175239Y-105243333D01*
X196270477Y-105290952D01*
X196318096Y-105338571D01*
X196365715Y-105433810D01*
X196365715Y-105671905D01*
X196318096Y-105767143D01*
X196270477Y-105814762D01*
X196175239Y-105862381D01*
X195937143Y-105862381D01*
X195841905Y-105814762D01*
X195794286Y-105767143D01*
X163766667Y-86764762D02*
X163909524Y-86812381D01*
X164147620Y-86812381D01*
X164242858Y-86764762D01*
X164290477Y-86717143D01*
X164338096Y-86621905D01*
X164338096Y-86526667D01*
X164290477Y-86431429D01*
X164242858Y-86383810D01*
X164147620Y-86336190D01*
X163957143Y-86288571D01*
X163861905Y-86240952D01*
X163814286Y-86193333D01*
X163766667Y-86098095D01*
X163766667Y-86002857D01*
X163814286Y-85907619D01*
X163861905Y-85860000D01*
X163957143Y-85812381D01*
X164195239Y-85812381D01*
X164338096Y-85860000D01*
X164671429Y-85812381D02*
X164909524Y-86812381D01*
X165100001Y-86098095D01*
X165290477Y-86812381D01*
X165528572Y-85812381D01*
X166433334Y-86812381D02*
X165861905Y-86812381D01*
X166147619Y-86812381D02*
X166147619Y-85812381D01*
X166052381Y-85955238D01*
X165957143Y-86050476D01*
X165861905Y-86098095D01*
X140208095Y-90892381D02*
X140208095Y-91701905D01*
X140255714Y-91797143D01*
X140303333Y-91844762D01*
X140398571Y-91892381D01*
X140589048Y-91892381D01*
X140684286Y-91844762D01*
X140731905Y-91797143D01*
X140779524Y-91701905D01*
X140779524Y-90892381D01*
X141779524Y-91892381D02*
X141208095Y-91892381D01*
X141493809Y-91892381D02*
X141493809Y-90892381D01*
X141398571Y-91035238D01*
X141303333Y-91130476D01*
X141208095Y-91178095D01*
X133858095Y-118832381D02*
X133858095Y-119641905D01*
X133905714Y-119737143D01*
X133953333Y-119784762D01*
X134048571Y-119832381D01*
X134239048Y-119832381D01*
X134334286Y-119784762D01*
X134381905Y-119737143D01*
X134429524Y-119641905D01*
X134429524Y-118832381D01*
X134810476Y-118832381D02*
X135429524Y-118832381D01*
X135096190Y-119213333D01*
X135239048Y-119213333D01*
X135334286Y-119260952D01*
X135381905Y-119308571D01*
X135429524Y-119403810D01*
X135429524Y-119641905D01*
X135381905Y-119737143D01*
X135334286Y-119784762D01*
X135239048Y-119832381D01*
X134953333Y-119832381D01*
X134858095Y-119784762D01*
X134810476Y-119737143D01*
X133858095Y-103592381D02*
X133858095Y-104401905D01*
X133905714Y-104497143D01*
X133953333Y-104544762D01*
X134048571Y-104592381D01*
X134239048Y-104592381D01*
X134334286Y-104544762D01*
X134381905Y-104497143D01*
X134429524Y-104401905D01*
X134429524Y-103592381D01*
X135334286Y-103925714D02*
X135334286Y-104592381D01*
X135096190Y-103544762D02*
X134858095Y-104259048D01*
X135477143Y-104259048D01*
X105918095Y-109942381D02*
X105918095Y-110751905D01*
X105965714Y-110847143D01*
X106013333Y-110894762D01*
X106108571Y-110942381D01*
X106299048Y-110942381D01*
X106394286Y-110894762D01*
X106441905Y-110847143D01*
X106489524Y-110751905D01*
X106489524Y-109942381D01*
X107441905Y-109942381D02*
X106965714Y-109942381D01*
X106918095Y-110418571D01*
X106965714Y-110370952D01*
X107060952Y-110323333D01*
X107299048Y-110323333D01*
X107394286Y-110370952D01*
X107441905Y-110418571D01*
X107489524Y-110513810D01*
X107489524Y-110751905D01*
X107441905Y-110847143D01*
X107394286Y-110894762D01*
X107299048Y-110942381D01*
X107060952Y-110942381D01*
X106965714Y-110894762D01*
X106918095Y-110847143D01*
X99782381Y-101591905D02*
X99782381Y-101020476D01*
X100782381Y-101306191D02*
X99782381Y-101306191D01*
X99782381Y-100782381D02*
X100782381Y-100115714D01*
X99782381Y-100115714D02*
X100782381Y-100782381D01*
X100782381Y-99734762D02*
X99782381Y-99734762D01*
X99782381Y-99496667D01*
X99830000Y-99353809D01*
X99925238Y-99258571D01*
X100020476Y-99210952D01*
X100210952Y-99163333D01*
X100353810Y-99163333D01*
X100544286Y-99210952D01*
X100639524Y-99258571D01*
X100734762Y-99353809D01*
X100782381Y-99496667D01*
X100782381Y-99734762D01*
X103322381Y-100996666D02*
X102846190Y-101330000D01*
X103322381Y-101568095D02*
X102322381Y-101568095D01*
X102322381Y-101187142D01*
X102370000Y-101091904D01*
X102417619Y-101044285D01*
X102512857Y-100996666D01*
X102655714Y-100996666D01*
X102750952Y-101044285D01*
X102798571Y-101091904D01*
X102846190Y-101187142D01*
X102846190Y-101568095D01*
X102322381Y-100663333D02*
X103322381Y-99996666D01*
X102322381Y-99996666D02*
X103322381Y-100663333D01*
X103322381Y-99615714D02*
X102322381Y-99615714D01*
X102322381Y-99377619D01*
X102370000Y-99234761D01*
X102465238Y-99139523D01*
X102560476Y-99091904D01*
X102750952Y-99044285D01*
X102893810Y-99044285D01*
X103084286Y-99091904D01*
X103179524Y-99139523D01*
X103274762Y-99234761D01*
X103322381Y-99377619D01*
X103322381Y-99615714D01*
X104910000Y-103552380D02*
X104862381Y-103647618D01*
X104862381Y-103790475D01*
X104910000Y-103933333D01*
X105005238Y-104028571D01*
X105100476Y-104076190D01*
X105290952Y-104123809D01*
X105433810Y-104123809D01*
X105624286Y-104076190D01*
X105719524Y-104028571D01*
X105814762Y-103933333D01*
X105862381Y-103790475D01*
X105862381Y-103695237D01*
X105814762Y-103552380D01*
X105767143Y-103504761D01*
X105433810Y-103504761D01*
X105433810Y-103695237D01*
X105862381Y-103076190D02*
X104862381Y-103076190D01*
X104862381Y-102695237D01*
X104910000Y-102599999D01*
X104957619Y-102552380D01*
X105052857Y-102504761D01*
X105195714Y-102504761D01*
X105290952Y-102552380D01*
X105338571Y-102599999D01*
X105386190Y-102695237D01*
X105386190Y-103076190D01*
X105862381Y-102076190D02*
X104862381Y-102076190D01*
X104862381Y-101409524D02*
X104862381Y-101219047D01*
X104910000Y-101123809D01*
X105005238Y-101028571D01*
X105195714Y-100980952D01*
X105529048Y-100980952D01*
X105719524Y-101028571D01*
X105814762Y-101123809D01*
X105862381Y-101219047D01*
X105862381Y-101409524D01*
X105814762Y-101504762D01*
X105719524Y-101600000D01*
X105529048Y-101647619D01*
X105195714Y-101647619D01*
X105005238Y-101600000D01*
X104910000Y-101504762D01*
X104862381Y-101409524D01*
X104862381Y-100361905D02*
X104862381Y-100266666D01*
X104910000Y-100171428D01*
X104957619Y-100123809D01*
X105052857Y-100076190D01*
X105243333Y-100028571D01*
X105481429Y-100028571D01*
X105671905Y-100076190D01*
X105767143Y-100123809D01*
X105814762Y-100171428D01*
X105862381Y-100266666D01*
X105862381Y-100361905D01*
X105814762Y-100457143D01*
X105767143Y-100504762D01*
X105671905Y-100552381D01*
X105481429Y-100600000D01*
X105243333Y-100600000D01*
X105052857Y-100552381D01*
X104957619Y-100504762D01*
X104910000Y-100457143D01*
X104862381Y-100361905D01*
X104862381Y-99123809D02*
X104862381Y-99600000D01*
X105338571Y-99647619D01*
X105290952Y-99600000D01*
X105243333Y-99504762D01*
X105243333Y-99266666D01*
X105290952Y-99171428D01*
X105338571Y-99123809D01*
X105433810Y-99076190D01*
X105671905Y-99076190D01*
X105767143Y-99123809D01*
X105814762Y-99171428D01*
X105862381Y-99266666D01*
X105862381Y-99504762D01*
X105814762Y-99600000D01*
X105767143Y-99647619D01*
X107450000Y-103552380D02*
X107402381Y-103647618D01*
X107402381Y-103790475D01*
X107450000Y-103933333D01*
X107545238Y-104028571D01*
X107640476Y-104076190D01*
X107830952Y-104123809D01*
X107973810Y-104123809D01*
X108164286Y-104076190D01*
X108259524Y-104028571D01*
X108354762Y-103933333D01*
X108402381Y-103790475D01*
X108402381Y-103695237D01*
X108354762Y-103552380D01*
X108307143Y-103504761D01*
X107973810Y-103504761D01*
X107973810Y-103695237D01*
X108402381Y-103076190D02*
X107402381Y-103076190D01*
X107402381Y-102695237D01*
X107450000Y-102599999D01*
X107497619Y-102552380D01*
X107592857Y-102504761D01*
X107735714Y-102504761D01*
X107830952Y-102552380D01*
X107878571Y-102599999D01*
X107926190Y-102695237D01*
X107926190Y-103076190D01*
X108402381Y-102076190D02*
X107402381Y-102076190D01*
X107402381Y-101409524D02*
X107402381Y-101219047D01*
X107450000Y-101123809D01*
X107545238Y-101028571D01*
X107735714Y-100980952D01*
X108069048Y-100980952D01*
X108259524Y-101028571D01*
X108354762Y-101123809D01*
X108402381Y-101219047D01*
X108402381Y-101409524D01*
X108354762Y-101504762D01*
X108259524Y-101600000D01*
X108069048Y-101647619D01*
X107735714Y-101647619D01*
X107545238Y-101600000D01*
X107450000Y-101504762D01*
X107402381Y-101409524D01*
X107402381Y-100361905D02*
X107402381Y-100266666D01*
X107450000Y-100171428D01*
X107497619Y-100123809D01*
X107592857Y-100076190D01*
X107783333Y-100028571D01*
X108021429Y-100028571D01*
X108211905Y-100076190D01*
X108307143Y-100123809D01*
X108354762Y-100171428D01*
X108402381Y-100266666D01*
X108402381Y-100361905D01*
X108354762Y-100457143D01*
X108307143Y-100504762D01*
X108211905Y-100552381D01*
X108021429Y-100600000D01*
X107783333Y-100600000D01*
X107592857Y-100552381D01*
X107497619Y-100504762D01*
X107450000Y-100457143D01*
X107402381Y-100361905D01*
X107735714Y-99171428D02*
X108402381Y-99171428D01*
X107354762Y-99409524D02*
X108069048Y-99647619D01*
X108069048Y-99028571D01*
X109990000Y-103552380D02*
X109942381Y-103647618D01*
X109942381Y-103790475D01*
X109990000Y-103933333D01*
X110085238Y-104028571D01*
X110180476Y-104076190D01*
X110370952Y-104123809D01*
X110513810Y-104123809D01*
X110704286Y-104076190D01*
X110799524Y-104028571D01*
X110894762Y-103933333D01*
X110942381Y-103790475D01*
X110942381Y-103695237D01*
X110894762Y-103552380D01*
X110847143Y-103504761D01*
X110513810Y-103504761D01*
X110513810Y-103695237D01*
X110942381Y-103076190D02*
X109942381Y-103076190D01*
X109942381Y-102695237D01*
X109990000Y-102599999D01*
X110037619Y-102552380D01*
X110132857Y-102504761D01*
X110275714Y-102504761D01*
X110370952Y-102552380D01*
X110418571Y-102599999D01*
X110466190Y-102695237D01*
X110466190Y-103076190D01*
X110942381Y-102076190D02*
X109942381Y-102076190D01*
X109942381Y-101409524D02*
X109942381Y-101219047D01*
X109990000Y-101123809D01*
X110085238Y-101028571D01*
X110275714Y-100980952D01*
X110609048Y-100980952D01*
X110799524Y-101028571D01*
X110894762Y-101123809D01*
X110942381Y-101219047D01*
X110942381Y-101409524D01*
X110894762Y-101504762D01*
X110799524Y-101600000D01*
X110609048Y-101647619D01*
X110275714Y-101647619D01*
X110085238Y-101600000D01*
X109990000Y-101504762D01*
X109942381Y-101409524D01*
X109942381Y-100361905D02*
X109942381Y-100266666D01*
X109990000Y-100171428D01*
X110037619Y-100123809D01*
X110132857Y-100076190D01*
X110323333Y-100028571D01*
X110561429Y-100028571D01*
X110751905Y-100076190D01*
X110847143Y-100123809D01*
X110894762Y-100171428D01*
X110942381Y-100266666D01*
X110942381Y-100361905D01*
X110894762Y-100457143D01*
X110847143Y-100504762D01*
X110751905Y-100552381D01*
X110561429Y-100600000D01*
X110323333Y-100600000D01*
X110132857Y-100552381D01*
X110037619Y-100504762D01*
X109990000Y-100457143D01*
X109942381Y-100361905D01*
X109942381Y-99409524D02*
X109942381Y-99314285D01*
X109990000Y-99219047D01*
X110037619Y-99171428D01*
X110132857Y-99123809D01*
X110323333Y-99076190D01*
X110561429Y-99076190D01*
X110751905Y-99123809D01*
X110847143Y-99171428D01*
X110894762Y-99219047D01*
X110942381Y-99314285D01*
X110942381Y-99409524D01*
X110894762Y-99504762D01*
X110847143Y-99552381D01*
X110751905Y-99600000D01*
X110561429Y-99647619D01*
X110323333Y-99647619D01*
X110132857Y-99600000D01*
X110037619Y-99552381D01*
X109990000Y-99504762D01*
X109942381Y-99409524D01*
X112530000Y-103552380D02*
X112482381Y-103647618D01*
X112482381Y-103790475D01*
X112530000Y-103933333D01*
X112625238Y-104028571D01*
X112720476Y-104076190D01*
X112910952Y-104123809D01*
X113053810Y-104123809D01*
X113244286Y-104076190D01*
X113339524Y-104028571D01*
X113434762Y-103933333D01*
X113482381Y-103790475D01*
X113482381Y-103695237D01*
X113434762Y-103552380D01*
X113387143Y-103504761D01*
X113053810Y-103504761D01*
X113053810Y-103695237D01*
X113482381Y-103076190D02*
X112482381Y-103076190D01*
X112482381Y-102695237D01*
X112530000Y-102599999D01*
X112577619Y-102552380D01*
X112672857Y-102504761D01*
X112815714Y-102504761D01*
X112910952Y-102552380D01*
X112958571Y-102599999D01*
X113006190Y-102695237D01*
X113006190Y-103076190D01*
X113482381Y-102076190D02*
X112482381Y-102076190D01*
X112482381Y-101409524D02*
X112482381Y-101219047D01*
X112530000Y-101123809D01*
X112625238Y-101028571D01*
X112815714Y-100980952D01*
X113149048Y-100980952D01*
X113339524Y-101028571D01*
X113434762Y-101123809D01*
X113482381Y-101219047D01*
X113482381Y-101409524D01*
X113434762Y-101504762D01*
X113339524Y-101600000D01*
X113149048Y-101647619D01*
X112815714Y-101647619D01*
X112625238Y-101600000D01*
X112530000Y-101504762D01*
X112482381Y-101409524D01*
X112482381Y-100361905D02*
X112482381Y-100266666D01*
X112530000Y-100171428D01*
X112577619Y-100123809D01*
X112672857Y-100076190D01*
X112863333Y-100028571D01*
X113101429Y-100028571D01*
X113291905Y-100076190D01*
X113387143Y-100123809D01*
X113434762Y-100171428D01*
X113482381Y-100266666D01*
X113482381Y-100361905D01*
X113434762Y-100457143D01*
X113387143Y-100504762D01*
X113291905Y-100552381D01*
X113101429Y-100600000D01*
X112863333Y-100600000D01*
X112672857Y-100552381D01*
X112577619Y-100504762D01*
X112530000Y-100457143D01*
X112482381Y-100361905D01*
X112577619Y-99647619D02*
X112530000Y-99600000D01*
X112482381Y-99504762D01*
X112482381Y-99266666D01*
X112530000Y-99171428D01*
X112577619Y-99123809D01*
X112672857Y-99076190D01*
X112768095Y-99076190D01*
X112910952Y-99123809D01*
X113482381Y-99695238D01*
X113482381Y-99076190D01*
X115070000Y-103552380D02*
X115022381Y-103647618D01*
X115022381Y-103790475D01*
X115070000Y-103933333D01*
X115165238Y-104028571D01*
X115260476Y-104076190D01*
X115450952Y-104123809D01*
X115593810Y-104123809D01*
X115784286Y-104076190D01*
X115879524Y-104028571D01*
X115974762Y-103933333D01*
X116022381Y-103790475D01*
X116022381Y-103695237D01*
X115974762Y-103552380D01*
X115927143Y-103504761D01*
X115593810Y-103504761D01*
X115593810Y-103695237D01*
X116022381Y-103076190D02*
X115022381Y-103076190D01*
X115022381Y-102695237D01*
X115070000Y-102599999D01*
X115117619Y-102552380D01*
X115212857Y-102504761D01*
X115355714Y-102504761D01*
X115450952Y-102552380D01*
X115498571Y-102599999D01*
X115546190Y-102695237D01*
X115546190Y-103076190D01*
X116022381Y-102076190D02*
X115022381Y-102076190D01*
X115022381Y-101409524D02*
X115022381Y-101219047D01*
X115070000Y-101123809D01*
X115165238Y-101028571D01*
X115355714Y-100980952D01*
X115689048Y-100980952D01*
X115879524Y-101028571D01*
X115974762Y-101123809D01*
X116022381Y-101219047D01*
X116022381Y-101409524D01*
X115974762Y-101504762D01*
X115879524Y-101600000D01*
X115689048Y-101647619D01*
X115355714Y-101647619D01*
X115165238Y-101600000D01*
X115070000Y-101504762D01*
X115022381Y-101409524D01*
X116022381Y-100028571D02*
X116022381Y-100600000D01*
X116022381Y-100314286D02*
X115022381Y-100314286D01*
X115165238Y-100409524D01*
X115260476Y-100504762D01*
X115308095Y-100600000D01*
X115022381Y-99123809D02*
X115022381Y-99600000D01*
X115498571Y-99647619D01*
X115450952Y-99600000D01*
X115403333Y-99504762D01*
X115403333Y-99266666D01*
X115450952Y-99171428D01*
X115498571Y-99123809D01*
X115593810Y-99076190D01*
X115831905Y-99076190D01*
X115927143Y-99123809D01*
X115974762Y-99171428D01*
X116022381Y-99266666D01*
X116022381Y-99504762D01*
X115974762Y-99600000D01*
X115927143Y-99647619D01*
X117610000Y-101091904D02*
X117562381Y-101187142D01*
X117562381Y-101329999D01*
X117610000Y-101472857D01*
X117705238Y-101568095D01*
X117800476Y-101615714D01*
X117990952Y-101663333D01*
X118133810Y-101663333D01*
X118324286Y-101615714D01*
X118419524Y-101568095D01*
X118514762Y-101472857D01*
X118562381Y-101329999D01*
X118562381Y-101234761D01*
X118514762Y-101091904D01*
X118467143Y-101044285D01*
X118133810Y-101044285D01*
X118133810Y-101234761D01*
X118562381Y-100615714D02*
X117562381Y-100615714D01*
X118562381Y-100044285D01*
X117562381Y-100044285D01*
X118562381Y-99568095D02*
X117562381Y-99568095D01*
X117562381Y-99330000D01*
X117610000Y-99187142D01*
X117705238Y-99091904D01*
X117800476Y-99044285D01*
X117990952Y-98996666D01*
X118133810Y-98996666D01*
X118324286Y-99044285D01*
X118419524Y-99091904D01*
X118514762Y-99187142D01*
X118562381Y-99330000D01*
X118562381Y-99568095D01*
X117562381Y-123110476D02*
X118562381Y-122777143D01*
X117562381Y-122443809D01*
X118514762Y-121681904D02*
X118562381Y-121777142D01*
X118562381Y-121967619D01*
X118514762Y-122062857D01*
X118467143Y-122110476D01*
X118371905Y-122158095D01*
X118086190Y-122158095D01*
X117990952Y-122110476D01*
X117943333Y-122062857D01*
X117895714Y-121967619D01*
X117895714Y-121777142D01*
X117943333Y-121681904D01*
X118514762Y-120824761D02*
X118562381Y-120919999D01*
X118562381Y-121110476D01*
X118514762Y-121205714D01*
X118467143Y-121253333D01*
X118371905Y-121300952D01*
X118086190Y-121300952D01*
X117990952Y-121253333D01*
X117943333Y-121205714D01*
X117895714Y-121110476D01*
X117895714Y-120919999D01*
X117943333Y-120824761D01*
X115070000Y-122602380D02*
X115022381Y-122697618D01*
X115022381Y-122840475D01*
X115070000Y-122983333D01*
X115165238Y-123078571D01*
X115260476Y-123126190D01*
X115450952Y-123173809D01*
X115593810Y-123173809D01*
X115784286Y-123126190D01*
X115879524Y-123078571D01*
X115974762Y-122983333D01*
X116022381Y-122840475D01*
X116022381Y-122745237D01*
X115974762Y-122602380D01*
X115927143Y-122554761D01*
X115593810Y-122554761D01*
X115593810Y-122745237D01*
X116022381Y-122126190D02*
X115022381Y-122126190D01*
X115022381Y-121745237D01*
X115070000Y-121649999D01*
X115117619Y-121602380D01*
X115212857Y-121554761D01*
X115355714Y-121554761D01*
X115450952Y-121602380D01*
X115498571Y-121649999D01*
X115546190Y-121745237D01*
X115546190Y-122126190D01*
X116022381Y-121126190D02*
X115022381Y-121126190D01*
X115022381Y-120459524D02*
X115022381Y-120269047D01*
X115070000Y-120173809D01*
X115165238Y-120078571D01*
X115355714Y-120030952D01*
X115689048Y-120030952D01*
X115879524Y-120078571D01*
X115974762Y-120173809D01*
X116022381Y-120269047D01*
X116022381Y-120459524D01*
X115974762Y-120554762D01*
X115879524Y-120650000D01*
X115689048Y-120697619D01*
X115355714Y-120697619D01*
X115165238Y-120650000D01*
X115070000Y-120554762D01*
X115022381Y-120459524D01*
X116022381Y-119078571D02*
X116022381Y-119650000D01*
X116022381Y-119364286D02*
X115022381Y-119364286D01*
X115165238Y-119459524D01*
X115260476Y-119554762D01*
X115308095Y-119650000D01*
X115022381Y-118745238D02*
X115022381Y-118126190D01*
X115403333Y-118459524D01*
X115403333Y-118316666D01*
X115450952Y-118221428D01*
X115498571Y-118173809D01*
X115593810Y-118126190D01*
X115831905Y-118126190D01*
X115927143Y-118173809D01*
X115974762Y-118221428D01*
X116022381Y-118316666D01*
X116022381Y-118602381D01*
X115974762Y-118697619D01*
X115927143Y-118745238D01*
X112530000Y-122602380D02*
X112482381Y-122697618D01*
X112482381Y-122840475D01*
X112530000Y-122983333D01*
X112625238Y-123078571D01*
X112720476Y-123126190D01*
X112910952Y-123173809D01*
X113053810Y-123173809D01*
X113244286Y-123126190D01*
X113339524Y-123078571D01*
X113434762Y-122983333D01*
X113482381Y-122840475D01*
X113482381Y-122745237D01*
X113434762Y-122602380D01*
X113387143Y-122554761D01*
X113053810Y-122554761D01*
X113053810Y-122745237D01*
X113482381Y-122126190D02*
X112482381Y-122126190D01*
X112482381Y-121745237D01*
X112530000Y-121649999D01*
X112577619Y-121602380D01*
X112672857Y-121554761D01*
X112815714Y-121554761D01*
X112910952Y-121602380D01*
X112958571Y-121649999D01*
X113006190Y-121745237D01*
X113006190Y-122126190D01*
X113482381Y-121126190D02*
X112482381Y-121126190D01*
X112482381Y-120459524D02*
X112482381Y-120269047D01*
X112530000Y-120173809D01*
X112625238Y-120078571D01*
X112815714Y-120030952D01*
X113149048Y-120030952D01*
X113339524Y-120078571D01*
X113434762Y-120173809D01*
X113482381Y-120269047D01*
X113482381Y-120459524D01*
X113434762Y-120554762D01*
X113339524Y-120650000D01*
X113149048Y-120697619D01*
X112815714Y-120697619D01*
X112625238Y-120650000D01*
X112530000Y-120554762D01*
X112482381Y-120459524D01*
X113482381Y-119078571D02*
X113482381Y-119650000D01*
X113482381Y-119364286D02*
X112482381Y-119364286D01*
X112625238Y-119459524D01*
X112720476Y-119554762D01*
X112768095Y-119650000D01*
X112577619Y-118697619D02*
X112530000Y-118650000D01*
X112482381Y-118554762D01*
X112482381Y-118316666D01*
X112530000Y-118221428D01*
X112577619Y-118173809D01*
X112672857Y-118126190D01*
X112768095Y-118126190D01*
X112910952Y-118173809D01*
X113482381Y-118745238D01*
X113482381Y-118126190D01*
X109990000Y-122602380D02*
X109942381Y-122697618D01*
X109942381Y-122840475D01*
X109990000Y-122983333D01*
X110085238Y-123078571D01*
X110180476Y-123126190D01*
X110370952Y-123173809D01*
X110513810Y-123173809D01*
X110704286Y-123126190D01*
X110799524Y-123078571D01*
X110894762Y-122983333D01*
X110942381Y-122840475D01*
X110942381Y-122745237D01*
X110894762Y-122602380D01*
X110847143Y-122554761D01*
X110513810Y-122554761D01*
X110513810Y-122745237D01*
X110942381Y-122126190D02*
X109942381Y-122126190D01*
X109942381Y-121745237D01*
X109990000Y-121649999D01*
X110037619Y-121602380D01*
X110132857Y-121554761D01*
X110275714Y-121554761D01*
X110370952Y-121602380D01*
X110418571Y-121649999D01*
X110466190Y-121745237D01*
X110466190Y-122126190D01*
X110942381Y-121126190D02*
X109942381Y-121126190D01*
X109942381Y-120459524D02*
X109942381Y-120269047D01*
X109990000Y-120173809D01*
X110085238Y-120078571D01*
X110275714Y-120030952D01*
X110609048Y-120030952D01*
X110799524Y-120078571D01*
X110894762Y-120173809D01*
X110942381Y-120269047D01*
X110942381Y-120459524D01*
X110894762Y-120554762D01*
X110799524Y-120650000D01*
X110609048Y-120697619D01*
X110275714Y-120697619D01*
X110085238Y-120650000D01*
X109990000Y-120554762D01*
X109942381Y-120459524D01*
X110942381Y-119078571D02*
X110942381Y-119650000D01*
X110942381Y-119364286D02*
X109942381Y-119364286D01*
X110085238Y-119459524D01*
X110180476Y-119554762D01*
X110228095Y-119650000D01*
X110275714Y-118221428D02*
X110942381Y-118221428D01*
X109894762Y-118459524D02*
X110609048Y-118697619D01*
X110609048Y-118078571D01*
X107450000Y-122602380D02*
X107402381Y-122697618D01*
X107402381Y-122840475D01*
X107450000Y-122983333D01*
X107545238Y-123078571D01*
X107640476Y-123126190D01*
X107830952Y-123173809D01*
X107973810Y-123173809D01*
X108164286Y-123126190D01*
X108259524Y-123078571D01*
X108354762Y-122983333D01*
X108402381Y-122840475D01*
X108402381Y-122745237D01*
X108354762Y-122602380D01*
X108307143Y-122554761D01*
X107973810Y-122554761D01*
X107973810Y-122745237D01*
X108402381Y-122126190D02*
X107402381Y-122126190D01*
X107402381Y-121745237D01*
X107450000Y-121649999D01*
X107497619Y-121602380D01*
X107592857Y-121554761D01*
X107735714Y-121554761D01*
X107830952Y-121602380D01*
X107878571Y-121649999D01*
X107926190Y-121745237D01*
X107926190Y-122126190D01*
X108402381Y-121126190D02*
X107402381Y-121126190D01*
X107402381Y-120459524D02*
X107402381Y-120269047D01*
X107450000Y-120173809D01*
X107545238Y-120078571D01*
X107735714Y-120030952D01*
X108069048Y-120030952D01*
X108259524Y-120078571D01*
X108354762Y-120173809D01*
X108402381Y-120269047D01*
X108402381Y-120459524D01*
X108354762Y-120554762D01*
X108259524Y-120650000D01*
X108069048Y-120697619D01*
X107735714Y-120697619D01*
X107545238Y-120650000D01*
X107450000Y-120554762D01*
X107402381Y-120459524D01*
X108402381Y-119078571D02*
X108402381Y-119650000D01*
X108402381Y-119364286D02*
X107402381Y-119364286D01*
X107545238Y-119459524D01*
X107640476Y-119554762D01*
X107688095Y-119650000D01*
X107402381Y-118221428D02*
X107402381Y-118411905D01*
X107450000Y-118507143D01*
X107497619Y-118554762D01*
X107640476Y-118650000D01*
X107830952Y-118697619D01*
X108211905Y-118697619D01*
X108307143Y-118650000D01*
X108354762Y-118602381D01*
X108402381Y-118507143D01*
X108402381Y-118316666D01*
X108354762Y-118221428D01*
X108307143Y-118173809D01*
X108211905Y-118126190D01*
X107973810Y-118126190D01*
X107878571Y-118173809D01*
X107830952Y-118221428D01*
X107783333Y-118316666D01*
X107783333Y-118507143D01*
X107830952Y-118602381D01*
X107878571Y-118650000D01*
X107973810Y-118697619D01*
X105767143Y-122245238D02*
X105814762Y-122292857D01*
X105862381Y-122435714D01*
X105862381Y-122530952D01*
X105814762Y-122673810D01*
X105719524Y-122769048D01*
X105624286Y-122816667D01*
X105433810Y-122864286D01*
X105290952Y-122864286D01*
X105100476Y-122816667D01*
X105005238Y-122769048D01*
X104910000Y-122673810D01*
X104862381Y-122530952D01*
X104862381Y-122435714D01*
X104910000Y-122292857D01*
X104957619Y-122245238D01*
X105862381Y-121816667D02*
X104862381Y-121816667D01*
X105338571Y-121816667D02*
X105338571Y-121245238D01*
X105862381Y-121245238D02*
X104862381Y-121245238D01*
X105957619Y-121007143D02*
X105957619Y-120245238D01*
X105862381Y-120007143D02*
X104862381Y-120007143D01*
X104862381Y-119626190D01*
X104910000Y-119530952D01*
X104957619Y-119483333D01*
X105052857Y-119435714D01*
X105195714Y-119435714D01*
X105290952Y-119483333D01*
X105338571Y-119530952D01*
X105386190Y-119626190D01*
X105386190Y-120007143D01*
X105862381Y-119007143D02*
X104862381Y-119007143D01*
X104862381Y-118769048D01*
X104910000Y-118626190D01*
X105005238Y-118530952D01*
X105100476Y-118483333D01*
X105290952Y-118435714D01*
X105433810Y-118435714D01*
X105624286Y-118483333D01*
X105719524Y-118530952D01*
X105814762Y-118626190D01*
X105862381Y-118769048D01*
X105862381Y-119007143D01*
X103036667Y-123158095D02*
X103036667Y-122681904D01*
X103322381Y-123253333D02*
X102322381Y-122920000D01*
X103322381Y-122586666D01*
X103322381Y-122253333D02*
X102322381Y-122253333D01*
X102322381Y-122015238D01*
X102370000Y-121872380D01*
X102465238Y-121777142D01*
X102560476Y-121729523D01*
X102750952Y-121681904D01*
X102893810Y-121681904D01*
X103084286Y-121729523D01*
X103179524Y-121777142D01*
X103274762Y-121872380D01*
X103322381Y-122015238D01*
X103322381Y-122253333D01*
X103227143Y-120681904D02*
X103274762Y-120729523D01*
X103322381Y-120872380D01*
X103322381Y-120967618D01*
X103274762Y-121110476D01*
X103179524Y-121205714D01*
X103084286Y-121253333D01*
X102893810Y-121300952D01*
X102750952Y-121300952D01*
X102560476Y-121253333D01*
X102465238Y-121205714D01*
X102370000Y-121110476D01*
X102322381Y-120967618D01*
X102322381Y-120872380D01*
X102370000Y-120729523D01*
X102417619Y-120681904D01*
X100782381Y-122467619D02*
X100306190Y-122800953D01*
X100782381Y-123039048D02*
X99782381Y-123039048D01*
X99782381Y-122658095D01*
X99830000Y-122562857D01*
X99877619Y-122515238D01*
X99972857Y-122467619D01*
X100115714Y-122467619D01*
X100210952Y-122515238D01*
X100258571Y-122562857D01*
X100306190Y-122658095D01*
X100306190Y-123039048D01*
X100734762Y-122086667D02*
X100782381Y-121943810D01*
X100782381Y-121705714D01*
X100734762Y-121610476D01*
X100687143Y-121562857D01*
X100591905Y-121515238D01*
X100496667Y-121515238D01*
X100401429Y-121562857D01*
X100353810Y-121610476D01*
X100306190Y-121705714D01*
X100258571Y-121896191D01*
X100210952Y-121991429D01*
X100163333Y-122039048D01*
X100068095Y-122086667D01*
X99972857Y-122086667D01*
X99877619Y-122039048D01*
X99830000Y-121991429D01*
X99782381Y-121896191D01*
X99782381Y-121658095D01*
X99830000Y-121515238D01*
X99782381Y-121229524D02*
X99782381Y-120658095D01*
X100782381Y-120943810D02*
X99782381Y-120943810D01*
X94488095Y-80732381D02*
X94488095Y-81541905D01*
X94535714Y-81637143D01*
X94583333Y-81684762D01*
X94678571Y-81732381D01*
X94869048Y-81732381D01*
X94964286Y-81684762D01*
X95011905Y-81637143D01*
X95059524Y-81541905D01*
X95059524Y-80732381D01*
X95964286Y-80732381D02*
X95773809Y-80732381D01*
X95678571Y-80780000D01*
X95630952Y-80827619D01*
X95535714Y-80970476D01*
X95488095Y-81160952D01*
X95488095Y-81541905D01*
X95535714Y-81637143D01*
X95583333Y-81684762D01*
X95678571Y-81732381D01*
X95869048Y-81732381D01*
X95964286Y-81684762D01*
X96011905Y-81637143D01*
X96059524Y-81541905D01*
X96059524Y-81303810D01*
X96011905Y-81208571D01*
X95964286Y-81160952D01*
X95869048Y-81113333D01*
X95678571Y-81113333D01*
X95583333Y-81160952D01*
X95535714Y-81208571D01*
X95488095Y-81303810D01*
X96972381Y-87026666D02*
X96496190Y-87360000D01*
X96972381Y-87598095D02*
X95972381Y-87598095D01*
X95972381Y-87217142D01*
X96020000Y-87121904D01*
X96067619Y-87074285D01*
X96162857Y-87026666D01*
X96305714Y-87026666D01*
X96400952Y-87074285D01*
X96448571Y-87121904D01*
X96496190Y-87217142D01*
X96496190Y-87598095D01*
X95972381Y-86693333D02*
X96972381Y-86026666D01*
X95972381Y-86026666D02*
X96972381Y-86693333D01*
X96972381Y-85645714D02*
X95972381Y-85645714D01*
X95972381Y-85407619D01*
X96020000Y-85264761D01*
X96115238Y-85169523D01*
X96210476Y-85121904D01*
X96400952Y-85074285D01*
X96543810Y-85074285D01*
X96734286Y-85121904D01*
X96829524Y-85169523D01*
X96924762Y-85264761D01*
X96972381Y-85407619D01*
X96972381Y-85645714D01*
X98512381Y-87621905D02*
X98512381Y-87050476D01*
X99512381Y-87336191D02*
X98512381Y-87336191D01*
X98512381Y-86812381D02*
X99512381Y-86145714D01*
X98512381Y-86145714D02*
X99512381Y-86812381D01*
X99512381Y-85764762D02*
X98512381Y-85764762D01*
X98512381Y-85526667D01*
X98560000Y-85383809D01*
X98655238Y-85288571D01*
X98750476Y-85240952D01*
X98940952Y-85193333D01*
X99083810Y-85193333D01*
X99274286Y-85240952D01*
X99369524Y-85288571D01*
X99464762Y-85383809D01*
X99512381Y-85526667D01*
X99512381Y-85764762D01*
X106180000Y-87121904D02*
X106132381Y-87217142D01*
X106132381Y-87359999D01*
X106180000Y-87502857D01*
X106275238Y-87598095D01*
X106370476Y-87645714D01*
X106560952Y-87693333D01*
X106703810Y-87693333D01*
X106894286Y-87645714D01*
X106989524Y-87598095D01*
X107084762Y-87502857D01*
X107132381Y-87359999D01*
X107132381Y-87264761D01*
X107084762Y-87121904D01*
X107037143Y-87074285D01*
X106703810Y-87074285D01*
X106703810Y-87264761D01*
X107132381Y-86645714D02*
X106132381Y-86645714D01*
X107132381Y-86074285D01*
X106132381Y-86074285D01*
X107132381Y-85598095D02*
X106132381Y-85598095D01*
X106132381Y-85360000D01*
X106180000Y-85217142D01*
X106275238Y-85121904D01*
X106370476Y-85074285D01*
X106560952Y-85026666D01*
X106703810Y-85026666D01*
X106894286Y-85074285D01*
X106989524Y-85121904D01*
X107084762Y-85217142D01*
X107132381Y-85360000D01*
X107132381Y-85598095D01*
M02*
