M48
;DRILL file {KiCad 4.0.6} date Wednesday, 03 May 2017 'AMt' 11:52:51
;FORMAT={-:-/ absolute / inch / decimal}
FMAT,2
INCH,TZ
T1C0.016
T2C0.030
T3C0.035
T4C0.039
T5C0.126
%
G90
G05
M72
T1
X4.65Y-4.
X5.05Y-4.9
X5.3Y-3.55
X5.3Y-4.6
X5.35Y-4.
X5.75Y-4.3
X5.75Y-4.55
X6.05Y-3.5
X6.35Y-3.6
X6.7Y-3.6
T2
X3.7Y-3.3
X3.8Y-3.3
X3.9Y-3.3
X3.95Y-3.8
X3.95Y-4.9
X4.Y-3.3
X4.05Y-3.8
X4.05Y-4.9
X4.1Y-3.3
X4.15Y-3.8
X4.15Y-4.9
X4.2Y-3.3
X4.25Y-3.8
X4.25Y-4.9
X4.3Y-3.6
X4.35Y-3.8
X4.35Y-4.9
X4.4Y-3.6
X4.45Y-3.8
X4.45Y-4.9
X4.5Y-3.6
X4.55Y-3.8
X4.55Y-4.9
X4.65Y-3.8
X4.65Y-4.9
X4.7Y-3.3
X4.8Y-3.3
X4.9Y-3.3
X5.Y-3.3
X5.05Y-3.5
X5.05Y-3.7
X5.05Y-3.9
X5.05Y-4.3
X5.05Y-4.5
X5.05Y-4.9
X5.15Y-3.9
X5.15Y-4.3
X5.15Y-4.5
X5.15Y-4.9
X5.25Y-3.9
X5.25Y-4.3
X5.25Y-4.5
X5.25Y-4.9
X5.35Y-3.9
X5.35Y-4.3
X5.35Y-4.5
X5.35Y-4.9
X5.45Y-3.65
X5.45Y-3.9
X5.45Y-4.3
X5.45Y-4.5
X5.45Y-4.9
X5.55Y-3.65
X5.55Y-3.9
X5.55Y-4.3
X5.55Y-4.5
X5.55Y-4.9
X5.65Y-3.65
X5.95Y-3.75
X5.95Y-3.85
X5.95Y-3.95
X5.95Y-4.05
X6.25Y-4.65
X6.25Y-4.85
X6.45Y-3.3
X6.5Y-4.6
X6.5Y-4.9
X6.55Y-3.3
X6.6Y-4.6
X6.6Y-4.9
X6.7Y-4.6
X6.7Y-4.9
X6.8Y-4.6
X6.8Y-4.9
X6.9Y-3.3
X6.9Y-4.6
X6.9Y-4.9
X7.Y-3.3
X7.Y-4.6
X7.Y-4.9
X7.1Y-4.6
X7.1Y-4.9
X7.35Y-3.65
X7.35Y-3.75
X7.35Y-3.85
X7.35Y-3.95
X7.35Y-4.05
X7.35Y-4.15
X7.6Y-3.75
X7.7Y-3.75
X7.8Y-3.75
T3
X5.3563Y-3.4
X5.75Y-3.4
X5.95Y-4.5063
X5.95Y-4.9
T4
X4.3Y-3.45
X4.6Y-3.45
X6.5Y-4.45
X6.8Y-4.45
X7.35Y-4.85
X7.55Y-3.95
X7.55Y-4.15
X7.65Y-4.85
X7.7Y-4.35
X7.7Y-4.6
X7.8Y-4.35
X7.8Y-4.6
X7.85Y-3.95
X7.85Y-4.15
T5
X3.55Y-3.25
X3.55Y-5.05
X7.9Y-3.25
X7.9Y-5.05
T0
M30
