G04 #@! TF.FileFunction,Soldermask,Top*
%FSLAX46Y46*%
G04 Gerber Fmt 4.6, Leading zero omitted, Abs format (unit mm)*
G04 Created by KiCad (PCBNEW 4.0.6) date Wednesday, 03 May 2017 'AMt' 11:52:44*
%MOMM*%
%LPD*%
G01*
G04 APERTURE LIST*
%ADD10C,0.100000*%
%ADD11C,1.524000*%
%ADD12R,1.524000X1.524000*%
%ADD13R,1.400000X1.400000*%
%ADD14C,1.400000*%
%ADD15R,1.900000X2.000000*%
%ADD16C,1.900000*%
%ADD17C,1.998980*%
%ADD18C,5.000000*%
G04 APERTURE END LIST*
D10*
D11*
X151130000Y-102870000D03*
X151130000Y-100330000D03*
X151130000Y-97790000D03*
X151130000Y-95250000D03*
X186690000Y-105410000D03*
X186690000Y-102870000D03*
X186690000Y-100330000D03*
X186690000Y-97790000D03*
X186690000Y-95250000D03*
X186690000Y-92710000D03*
D12*
X175260000Y-83820000D03*
D11*
X177800000Y-83820000D03*
D13*
X151130000Y-124460000D03*
D14*
X151130000Y-114460000D03*
D11*
X128270000Y-93980000D03*
X128270000Y-88900000D03*
D13*
X146050000Y-86360000D03*
D14*
X136050000Y-86360000D03*
D11*
X158750000Y-123190000D03*
X158750000Y-118110000D03*
D15*
X198120000Y-116840000D03*
D16*
X195580000Y-116840000D03*
D15*
X198120000Y-110490000D03*
D16*
X195580000Y-110490000D03*
D12*
X119380000Y-83820000D03*
D11*
X121920000Y-83820000D03*
X124460000Y-83820000D03*
X127000000Y-83820000D03*
X165100000Y-124460000D03*
X167640000Y-124460000D03*
X170180000Y-124460000D03*
X172720000Y-124460000D03*
X175260000Y-124460000D03*
X177800000Y-124460000D03*
X180340000Y-124460000D03*
X180340000Y-116840000D03*
X177800000Y-116840000D03*
X175260000Y-116840000D03*
X172720000Y-116840000D03*
X170180000Y-116840000D03*
X167640000Y-116840000D03*
X165100000Y-116840000D03*
D12*
X114300000Y-91440000D03*
D11*
X111760000Y-91440000D03*
X109220000Y-91440000D03*
X195580000Y-95250000D03*
X198120000Y-95250000D03*
D12*
X193040000Y-95250000D03*
D17*
X172720000Y-113030000D03*
X165100000Y-113030000D03*
X194310000Y-123190000D03*
X186690000Y-123190000D03*
X116840000Y-87630000D03*
X109220000Y-87630000D03*
X199390000Y-100330000D03*
X191770000Y-100330000D03*
X199390000Y-105410000D03*
X191770000Y-105410000D03*
D12*
X163830000Y-83820000D03*
D11*
X166370000Y-83820000D03*
D12*
X138430000Y-92710000D03*
D11*
X140970000Y-92710000D03*
X143510000Y-92710000D03*
X128270000Y-124460000D03*
X130810000Y-124460000D03*
X133350000Y-124460000D03*
X135890000Y-124460000D03*
X138430000Y-124460000D03*
X140970000Y-124460000D03*
X140970000Y-114300000D03*
X138430000Y-114300000D03*
X135890000Y-114300000D03*
X133350000Y-114300000D03*
X130810000Y-114300000D03*
X128270000Y-114300000D03*
X128270000Y-109220000D03*
X130810000Y-109220000D03*
X133350000Y-109220000D03*
X135890000Y-109220000D03*
X138430000Y-109220000D03*
X140970000Y-109220000D03*
X140970000Y-99060000D03*
X138430000Y-99060000D03*
X135890000Y-99060000D03*
X133350000Y-99060000D03*
X130810000Y-99060000D03*
X128270000Y-99060000D03*
X100330000Y-124460000D03*
X102870000Y-124460000D03*
X105410000Y-124460000D03*
X107950000Y-124460000D03*
X110490000Y-124460000D03*
X113030000Y-124460000D03*
X115570000Y-124460000D03*
X118110000Y-124460000D03*
X118110000Y-96520000D03*
X115570000Y-96520000D03*
X113030000Y-96520000D03*
X110490000Y-96520000D03*
X107950000Y-96520000D03*
X105410000Y-96520000D03*
X102870000Y-96520000D03*
X100330000Y-96520000D03*
X106680000Y-83820000D03*
X104140000Y-83820000D03*
D12*
X101600000Y-83820000D03*
D11*
X99060000Y-83820000D03*
X96520000Y-83820000D03*
X93980000Y-83820000D03*
D18*
X200660000Y-82550000D03*
X200660000Y-128270000D03*
X90170000Y-82550000D03*
X90170000Y-128270000D03*
M02*
