G04 #@! TF.FileFunction,Legend,Bot*
%FSLAX46Y46*%
G04 Gerber Fmt 4.6, Leading zero omitted, Abs format (unit mm)*
G04 Created by KiCad (PCBNEW 4.0.6) date Wednesday, 03 May 2017 'AMt' 11:52:44*
%MOMM*%
%LPD*%
G01*
G04 APERTURE LIST*
%ADD10C,0.100000*%
%ADD11C,0.300000*%
%ADD12C,0.002540*%
G04 APERTURE END LIST*
D10*
D11*
X192087142Y-82998571D02*
X191587142Y-84498571D01*
X191087142Y-82998571D01*
X189515714Y-83141429D02*
X189444285Y-83070000D01*
X189301428Y-82998571D01*
X188944285Y-82998571D01*
X188801428Y-83070000D01*
X188729999Y-83141429D01*
X188658571Y-83284286D01*
X188658571Y-83427143D01*
X188729999Y-83641429D01*
X189587142Y-84498571D01*
X188658571Y-84498571D01*
X188015714Y-84355714D02*
X187944286Y-84427143D01*
X188015714Y-84498571D01*
X188087143Y-84427143D01*
X188015714Y-84355714D01*
X188015714Y-84498571D01*
X187444285Y-82998571D02*
X186515714Y-82998571D01*
X187015714Y-83570000D01*
X186801428Y-83570000D01*
X186658571Y-83641429D01*
X186587142Y-83712857D01*
X186515714Y-83855714D01*
X186515714Y-84212857D01*
X186587142Y-84355714D01*
X186658571Y-84427143D01*
X186801428Y-84498571D01*
X187230000Y-84498571D01*
X187372857Y-84427143D01*
X187444285Y-84355714D01*
X182211427Y-109200000D02*
X182282855Y-109128571D01*
X182425712Y-108914286D01*
X182497141Y-108771429D01*
X182568570Y-108557143D01*
X182639998Y-108200000D01*
X182639998Y-107914286D01*
X182568570Y-107557143D01*
X182497141Y-107342857D01*
X182425712Y-107200000D01*
X182282855Y-106985714D01*
X182211427Y-106914286D01*
X180997141Y-108557143D02*
X181139998Y-108628571D01*
X181425712Y-108628571D01*
X181568570Y-108557143D01*
X181639998Y-108485714D01*
X181711427Y-108342857D01*
X181711427Y-107914286D01*
X181639998Y-107771429D01*
X181568570Y-107700000D01*
X181425712Y-107628571D01*
X181139998Y-107628571D01*
X180997141Y-107700000D01*
X180497141Y-109200000D02*
X180425713Y-109128571D01*
X180282856Y-108914286D01*
X180211427Y-108771429D01*
X180139998Y-108557143D01*
X180068570Y-108200000D01*
X180068570Y-107914286D01*
X180139998Y-107557143D01*
X180211427Y-107342857D01*
X180282856Y-107200000D01*
X180425713Y-106985714D01*
X180497141Y-106914286D01*
X178282856Y-107271429D02*
X178211427Y-107200000D01*
X178068570Y-107128571D01*
X177711427Y-107128571D01*
X177568570Y-107200000D01*
X177497141Y-107271429D01*
X177425713Y-107414286D01*
X177425713Y-107557143D01*
X177497141Y-107771429D01*
X178354284Y-108628571D01*
X177425713Y-108628571D01*
X176497142Y-107128571D02*
X176354285Y-107128571D01*
X176211428Y-107200000D01*
X176139999Y-107271429D01*
X176068570Y-107414286D01*
X175997142Y-107700000D01*
X175997142Y-108057143D01*
X176068570Y-108342857D01*
X176139999Y-108485714D01*
X176211428Y-108557143D01*
X176354285Y-108628571D01*
X176497142Y-108628571D01*
X176639999Y-108557143D01*
X176711428Y-108485714D01*
X176782856Y-108342857D01*
X176854285Y-108057143D01*
X176854285Y-107700000D01*
X176782856Y-107414286D01*
X176711428Y-107271429D01*
X176639999Y-107200000D01*
X176497142Y-107128571D01*
X174568571Y-108628571D02*
X175425714Y-108628571D01*
X174997142Y-108628571D02*
X174997142Y-107128571D01*
X175139999Y-107342857D01*
X175282857Y-107485714D01*
X175425714Y-107557143D01*
X174068571Y-107128571D02*
X173068571Y-107128571D01*
X173711428Y-108628571D01*
X171497143Y-107128571D02*
X171140000Y-108628571D01*
X170854286Y-107557143D01*
X170568572Y-108628571D01*
X170211429Y-107128571D01*
X169640000Y-108628571D02*
X169640000Y-107628571D01*
X169640000Y-107128571D02*
X169711429Y-107200000D01*
X169640000Y-107271429D01*
X169568572Y-107200000D01*
X169640000Y-107128571D01*
X169640000Y-107271429D01*
X168711428Y-108628571D02*
X168854286Y-108557143D01*
X168925714Y-108414286D01*
X168925714Y-107128571D01*
X167925714Y-108628571D02*
X168068572Y-108557143D01*
X168140000Y-108414286D01*
X168140000Y-107128571D01*
X166782858Y-108557143D02*
X166925715Y-108628571D01*
X167211429Y-108628571D01*
X167354286Y-108557143D01*
X167425715Y-108414286D01*
X167425715Y-107842857D01*
X167354286Y-107700000D01*
X167211429Y-107628571D01*
X166925715Y-107628571D01*
X166782858Y-107700000D01*
X166711429Y-107842857D01*
X166711429Y-107985714D01*
X167425715Y-108128571D01*
X166068572Y-108628571D02*
X166068572Y-107628571D01*
X166068572Y-107771429D02*
X165997144Y-107700000D01*
X165854286Y-107628571D01*
X165640001Y-107628571D01*
X165497144Y-107700000D01*
X165425715Y-107842857D01*
X165425715Y-108628571D01*
X165425715Y-107842857D02*
X165354286Y-107700000D01*
X165211429Y-107628571D01*
X164997144Y-107628571D01*
X164854286Y-107700000D01*
X164782858Y-107842857D01*
X164782858Y-108628571D01*
X162997144Y-108200000D02*
X162282858Y-108200000D01*
X163140001Y-108628571D02*
X162640001Y-107128571D01*
X162140001Y-108628571D01*
X160997144Y-108628571D02*
X160997144Y-107842857D01*
X161068573Y-107700000D01*
X161211430Y-107628571D01*
X161497144Y-107628571D01*
X161640001Y-107700000D01*
X160997144Y-108557143D02*
X161140001Y-108628571D01*
X161497144Y-108628571D01*
X161640001Y-108557143D01*
X161711430Y-108414286D01*
X161711430Y-108271429D01*
X161640001Y-108128571D01*
X161497144Y-108057143D01*
X161140001Y-108057143D01*
X160997144Y-107985714D01*
X160282858Y-107628571D02*
X160282858Y-108628571D01*
X160282858Y-107771429D02*
X160211430Y-107700000D01*
X160068572Y-107628571D01*
X159854287Y-107628571D01*
X159711430Y-107700000D01*
X159640001Y-107842857D01*
X159640001Y-108628571D01*
X158282858Y-108628571D02*
X158282858Y-107128571D01*
X158282858Y-108557143D02*
X158425715Y-108628571D01*
X158711429Y-108628571D01*
X158854287Y-108557143D01*
X158925715Y-108485714D01*
X158997144Y-108342857D01*
X158997144Y-107914286D01*
X158925715Y-107771429D01*
X158854287Y-107700000D01*
X158711429Y-107628571D01*
X158425715Y-107628571D01*
X158282858Y-107700000D01*
X156997144Y-108557143D02*
X157140001Y-108628571D01*
X157425715Y-108628571D01*
X157568572Y-108557143D01*
X157640001Y-108414286D01*
X157640001Y-107842857D01*
X157568572Y-107700000D01*
X157425715Y-107628571D01*
X157140001Y-107628571D01*
X156997144Y-107700000D01*
X156925715Y-107842857D01*
X156925715Y-107985714D01*
X157640001Y-108128571D01*
X156425715Y-107628571D02*
X156140001Y-108628571D01*
X155854287Y-107914286D01*
X155568572Y-108628571D01*
X155282858Y-107628571D01*
X154711429Y-108628571D02*
X154711429Y-107628571D01*
X154711429Y-107128571D02*
X154782858Y-107200000D01*
X154711429Y-107271429D01*
X154640001Y-107200000D01*
X154711429Y-107128571D01*
X154711429Y-107271429D01*
X153425715Y-108557143D02*
X153568572Y-108628571D01*
X153854286Y-108628571D01*
X153997143Y-108557143D01*
X154068572Y-108414286D01*
X154068572Y-107842857D01*
X153997143Y-107700000D01*
X153854286Y-107628571D01*
X153568572Y-107628571D01*
X153425715Y-107700000D01*
X153354286Y-107842857D01*
X153354286Y-107985714D01*
X154068572Y-108128571D01*
X152497143Y-108628571D02*
X152640001Y-108557143D01*
X152711429Y-108414286D01*
X152711429Y-107128571D01*
D12*
G36*
X100820220Y-114980720D02*
X100769420Y-114952780D01*
X100650040Y-114879120D01*
X100484940Y-114769900D01*
X100286820Y-114637820D01*
X100088700Y-114505740D01*
X99926140Y-114396520D01*
X99811840Y-114322860D01*
X99763580Y-114294920D01*
X99738180Y-114305080D01*
X99644200Y-114350800D01*
X99507040Y-114421920D01*
X99428300Y-114462560D01*
X99303840Y-114515900D01*
X99240340Y-114528600D01*
X99230180Y-114510820D01*
X99184460Y-114414300D01*
X99113340Y-114251740D01*
X99019360Y-114033300D01*
X98910140Y-113779300D01*
X98795840Y-113507520D01*
X98679000Y-113228120D01*
X98567240Y-112961420D01*
X98470720Y-112722660D01*
X98391980Y-112527080D01*
X98341180Y-112392460D01*
X98320860Y-112334040D01*
X98325940Y-112321340D01*
X98389440Y-112260380D01*
X98498660Y-112179100D01*
X98734880Y-111986060D01*
X98968560Y-111693960D01*
X99110800Y-111363760D01*
X99159060Y-110995460D01*
X99118420Y-110655100D01*
X98983800Y-110327440D01*
X98755200Y-110032800D01*
X98478340Y-109811820D01*
X98153220Y-109674660D01*
X97790000Y-109628940D01*
X97442020Y-109669580D01*
X97106740Y-109801660D01*
X96812100Y-110025180D01*
X96687640Y-110169960D01*
X96514920Y-110467140D01*
X96418400Y-110787180D01*
X96408240Y-110868460D01*
X96420940Y-111218980D01*
X96525080Y-111556800D01*
X96710500Y-111859060D01*
X96969580Y-112105440D01*
X97000060Y-112128300D01*
X97119440Y-112217200D01*
X97200720Y-112278160D01*
X97261680Y-112328960D01*
X96814640Y-113405920D01*
X96743520Y-113576100D01*
X96621600Y-113870740D01*
X96512380Y-114124740D01*
X96428560Y-114325400D01*
X96367600Y-114460020D01*
X96342200Y-114515900D01*
X96339660Y-114518440D01*
X96299020Y-114526060D01*
X96217740Y-114495580D01*
X96067880Y-114421920D01*
X95968820Y-114371120D01*
X95854520Y-114315240D01*
X95801180Y-114294920D01*
X95758000Y-114320320D01*
X95648780Y-114391440D01*
X95488760Y-114498120D01*
X95295720Y-114627660D01*
X95112840Y-114752120D01*
X94945200Y-114863880D01*
X94820740Y-114942620D01*
X94762320Y-114975640D01*
X94752160Y-114975640D01*
X94698820Y-114945160D01*
X94602300Y-114863880D01*
X94454980Y-114726720D01*
X94249240Y-114520980D01*
X94216220Y-114490500D01*
X94046040Y-114315240D01*
X93908880Y-114170460D01*
X93814900Y-114066320D01*
X93781880Y-114020600D01*
X93781880Y-114020600D01*
X93812360Y-113962180D01*
X93888560Y-113840260D01*
X94000320Y-113667540D01*
X94137480Y-113469420D01*
X94493080Y-112951260D01*
X94297500Y-112461040D01*
X94239080Y-112311180D01*
X94162880Y-112130840D01*
X94104460Y-112001300D01*
X94076520Y-111945420D01*
X94023180Y-111925100D01*
X93888560Y-111894620D01*
X93695520Y-111853980D01*
X93464380Y-111810800D01*
X93243400Y-111770160D01*
X93045280Y-111732060D01*
X92900500Y-111704120D01*
X92837000Y-111691420D01*
X92821760Y-111681260D01*
X92806520Y-111650780D01*
X92798900Y-111582200D01*
X92793820Y-111462820D01*
X92791280Y-111272320D01*
X92791280Y-110995460D01*
X92791280Y-110964980D01*
X92793820Y-110703360D01*
X92798900Y-110492540D01*
X92806520Y-110355380D01*
X92814140Y-110302040D01*
X92816680Y-110302040D01*
X92877640Y-110286800D01*
X93017340Y-110256320D01*
X93218000Y-110218220D01*
X93454220Y-110172500D01*
X93469460Y-110169960D01*
X93705680Y-110124240D01*
X93903800Y-110083600D01*
X94043500Y-110050580D01*
X94101920Y-110032800D01*
X94114620Y-110015020D01*
X94160340Y-109923580D01*
X94228920Y-109776260D01*
X94307660Y-109598460D01*
X94383860Y-109413040D01*
X94452440Y-109245400D01*
X94495620Y-109120940D01*
X94510860Y-109065060D01*
X94508320Y-109062520D01*
X94472760Y-109006640D01*
X94391480Y-108884720D01*
X94277180Y-108714540D01*
X94140020Y-108511340D01*
X94129860Y-108496100D01*
X93992700Y-108297980D01*
X93883480Y-108127800D01*
X93809820Y-108008420D01*
X93781880Y-107952540D01*
X93781880Y-107950000D01*
X93827600Y-107889040D01*
X93929200Y-107777280D01*
X94073980Y-107624880D01*
X94249240Y-107447080D01*
X94305120Y-107393740D01*
X94500700Y-107203240D01*
X94635320Y-107078780D01*
X94719140Y-107012740D01*
X94759780Y-106997500D01*
X94759780Y-107000040D01*
X94820740Y-107035600D01*
X94947740Y-107116880D01*
X95117920Y-107233720D01*
X95321120Y-107370880D01*
X95336360Y-107381040D01*
X95534480Y-107518200D01*
X95702120Y-107629960D01*
X95818960Y-107708700D01*
X95872300Y-107739180D01*
X95879920Y-107739180D01*
X95961200Y-107716320D01*
X96103440Y-107665520D01*
X96278700Y-107596940D01*
X96464120Y-107523280D01*
X96631760Y-107452160D01*
X96758760Y-107396280D01*
X96817180Y-107360720D01*
X96819720Y-107358180D01*
X96840040Y-107287060D01*
X96875600Y-107137200D01*
X96916240Y-106931460D01*
X96964500Y-106687620D01*
X96972120Y-106646980D01*
X97015300Y-106408220D01*
X97053400Y-106212640D01*
X97081340Y-106075480D01*
X97096580Y-106019600D01*
X97129600Y-106011980D01*
X97246440Y-106004360D01*
X97424240Y-105999280D01*
X97640140Y-105996740D01*
X97866200Y-105999280D01*
X98087180Y-106004360D01*
X98275140Y-106009440D01*
X98409760Y-106019600D01*
X98465640Y-106029760D01*
X98468180Y-106034840D01*
X98488500Y-106108500D01*
X98521520Y-106258360D01*
X98564700Y-106464100D01*
X98610420Y-106710480D01*
X98620580Y-106753660D01*
X98663760Y-106989880D01*
X98704400Y-107185460D01*
X98732340Y-107320080D01*
X98747580Y-107373420D01*
X98770440Y-107383580D01*
X98866960Y-107426760D01*
X99026980Y-107492800D01*
X99225100Y-107571540D01*
X99682300Y-107756960D01*
X100243640Y-107373420D01*
X100294440Y-107337860D01*
X100497640Y-107200700D01*
X100662740Y-107091480D01*
X100777040Y-107015280D01*
X100825300Y-106989880D01*
X100830380Y-106989880D01*
X100886260Y-107040680D01*
X100995480Y-107144820D01*
X101147880Y-107292140D01*
X101325680Y-107467400D01*
X101455220Y-107599480D01*
X101610160Y-107756960D01*
X101709220Y-107861100D01*
X101762560Y-107929680D01*
X101780340Y-107970320D01*
X101775260Y-107998260D01*
X101739700Y-108056680D01*
X101658420Y-108178600D01*
X101541580Y-108348780D01*
X101404420Y-108546900D01*
X101292660Y-108714540D01*
X101170740Y-108902500D01*
X101092000Y-109037120D01*
X101064060Y-109103160D01*
X101071680Y-109128560D01*
X101109780Y-109240320D01*
X101178360Y-109405420D01*
X101262180Y-109603540D01*
X101457760Y-110048040D01*
X101747320Y-110103920D01*
X101925120Y-110136940D01*
X102171500Y-110185200D01*
X102407720Y-110230920D01*
X102776020Y-110302040D01*
X102788720Y-111655860D01*
X102732840Y-111681260D01*
X102676960Y-111696500D01*
X102539800Y-111726980D01*
X102346760Y-111765080D01*
X102115620Y-111808260D01*
X101920040Y-111843820D01*
X101721920Y-111881920D01*
X101579680Y-111909860D01*
X101518720Y-111922560D01*
X101500940Y-111945420D01*
X101452680Y-112039400D01*
X101381560Y-112191800D01*
X101302820Y-112374680D01*
X101224080Y-112565180D01*
X101155500Y-112740440D01*
X101107240Y-112872520D01*
X101086920Y-112941100D01*
X101114860Y-112994440D01*
X101188520Y-113111280D01*
X101297740Y-113276380D01*
X101432360Y-113471960D01*
X101566980Y-113667540D01*
X101681280Y-113835180D01*
X101760020Y-113957100D01*
X101793040Y-114012980D01*
X101775260Y-114048540D01*
X101696520Y-114145060D01*
X101549200Y-114297460D01*
X101328220Y-114515900D01*
X101292660Y-114551460D01*
X101117400Y-114719100D01*
X100970080Y-114856260D01*
X100865940Y-114947700D01*
X100820220Y-114980720D01*
X100820220Y-114980720D01*
G37*
X100820220Y-114980720D02*
X100769420Y-114952780D01*
X100650040Y-114879120D01*
X100484940Y-114769900D01*
X100286820Y-114637820D01*
X100088700Y-114505740D01*
X99926140Y-114396520D01*
X99811840Y-114322860D01*
X99763580Y-114294920D01*
X99738180Y-114305080D01*
X99644200Y-114350800D01*
X99507040Y-114421920D01*
X99428300Y-114462560D01*
X99303840Y-114515900D01*
X99240340Y-114528600D01*
X99230180Y-114510820D01*
X99184460Y-114414300D01*
X99113340Y-114251740D01*
X99019360Y-114033300D01*
X98910140Y-113779300D01*
X98795840Y-113507520D01*
X98679000Y-113228120D01*
X98567240Y-112961420D01*
X98470720Y-112722660D01*
X98391980Y-112527080D01*
X98341180Y-112392460D01*
X98320860Y-112334040D01*
X98325940Y-112321340D01*
X98389440Y-112260380D01*
X98498660Y-112179100D01*
X98734880Y-111986060D01*
X98968560Y-111693960D01*
X99110800Y-111363760D01*
X99159060Y-110995460D01*
X99118420Y-110655100D01*
X98983800Y-110327440D01*
X98755200Y-110032800D01*
X98478340Y-109811820D01*
X98153220Y-109674660D01*
X97790000Y-109628940D01*
X97442020Y-109669580D01*
X97106740Y-109801660D01*
X96812100Y-110025180D01*
X96687640Y-110169960D01*
X96514920Y-110467140D01*
X96418400Y-110787180D01*
X96408240Y-110868460D01*
X96420940Y-111218980D01*
X96525080Y-111556800D01*
X96710500Y-111859060D01*
X96969580Y-112105440D01*
X97000060Y-112128300D01*
X97119440Y-112217200D01*
X97200720Y-112278160D01*
X97261680Y-112328960D01*
X96814640Y-113405920D01*
X96743520Y-113576100D01*
X96621600Y-113870740D01*
X96512380Y-114124740D01*
X96428560Y-114325400D01*
X96367600Y-114460020D01*
X96342200Y-114515900D01*
X96339660Y-114518440D01*
X96299020Y-114526060D01*
X96217740Y-114495580D01*
X96067880Y-114421920D01*
X95968820Y-114371120D01*
X95854520Y-114315240D01*
X95801180Y-114294920D01*
X95758000Y-114320320D01*
X95648780Y-114391440D01*
X95488760Y-114498120D01*
X95295720Y-114627660D01*
X95112840Y-114752120D01*
X94945200Y-114863880D01*
X94820740Y-114942620D01*
X94762320Y-114975640D01*
X94752160Y-114975640D01*
X94698820Y-114945160D01*
X94602300Y-114863880D01*
X94454980Y-114726720D01*
X94249240Y-114520980D01*
X94216220Y-114490500D01*
X94046040Y-114315240D01*
X93908880Y-114170460D01*
X93814900Y-114066320D01*
X93781880Y-114020600D01*
X93781880Y-114020600D01*
X93812360Y-113962180D01*
X93888560Y-113840260D01*
X94000320Y-113667540D01*
X94137480Y-113469420D01*
X94493080Y-112951260D01*
X94297500Y-112461040D01*
X94239080Y-112311180D01*
X94162880Y-112130840D01*
X94104460Y-112001300D01*
X94076520Y-111945420D01*
X94023180Y-111925100D01*
X93888560Y-111894620D01*
X93695520Y-111853980D01*
X93464380Y-111810800D01*
X93243400Y-111770160D01*
X93045280Y-111732060D01*
X92900500Y-111704120D01*
X92837000Y-111691420D01*
X92821760Y-111681260D01*
X92806520Y-111650780D01*
X92798900Y-111582200D01*
X92793820Y-111462820D01*
X92791280Y-111272320D01*
X92791280Y-110995460D01*
X92791280Y-110964980D01*
X92793820Y-110703360D01*
X92798900Y-110492540D01*
X92806520Y-110355380D01*
X92814140Y-110302040D01*
X92816680Y-110302040D01*
X92877640Y-110286800D01*
X93017340Y-110256320D01*
X93218000Y-110218220D01*
X93454220Y-110172500D01*
X93469460Y-110169960D01*
X93705680Y-110124240D01*
X93903800Y-110083600D01*
X94043500Y-110050580D01*
X94101920Y-110032800D01*
X94114620Y-110015020D01*
X94160340Y-109923580D01*
X94228920Y-109776260D01*
X94307660Y-109598460D01*
X94383860Y-109413040D01*
X94452440Y-109245400D01*
X94495620Y-109120940D01*
X94510860Y-109065060D01*
X94508320Y-109062520D01*
X94472760Y-109006640D01*
X94391480Y-108884720D01*
X94277180Y-108714540D01*
X94140020Y-108511340D01*
X94129860Y-108496100D01*
X93992700Y-108297980D01*
X93883480Y-108127800D01*
X93809820Y-108008420D01*
X93781880Y-107952540D01*
X93781880Y-107950000D01*
X93827600Y-107889040D01*
X93929200Y-107777280D01*
X94073980Y-107624880D01*
X94249240Y-107447080D01*
X94305120Y-107393740D01*
X94500700Y-107203240D01*
X94635320Y-107078780D01*
X94719140Y-107012740D01*
X94759780Y-106997500D01*
X94759780Y-107000040D01*
X94820740Y-107035600D01*
X94947740Y-107116880D01*
X95117920Y-107233720D01*
X95321120Y-107370880D01*
X95336360Y-107381040D01*
X95534480Y-107518200D01*
X95702120Y-107629960D01*
X95818960Y-107708700D01*
X95872300Y-107739180D01*
X95879920Y-107739180D01*
X95961200Y-107716320D01*
X96103440Y-107665520D01*
X96278700Y-107596940D01*
X96464120Y-107523280D01*
X96631760Y-107452160D01*
X96758760Y-107396280D01*
X96817180Y-107360720D01*
X96819720Y-107358180D01*
X96840040Y-107287060D01*
X96875600Y-107137200D01*
X96916240Y-106931460D01*
X96964500Y-106687620D01*
X96972120Y-106646980D01*
X97015300Y-106408220D01*
X97053400Y-106212640D01*
X97081340Y-106075480D01*
X97096580Y-106019600D01*
X97129600Y-106011980D01*
X97246440Y-106004360D01*
X97424240Y-105999280D01*
X97640140Y-105996740D01*
X97866200Y-105999280D01*
X98087180Y-106004360D01*
X98275140Y-106009440D01*
X98409760Y-106019600D01*
X98465640Y-106029760D01*
X98468180Y-106034840D01*
X98488500Y-106108500D01*
X98521520Y-106258360D01*
X98564700Y-106464100D01*
X98610420Y-106710480D01*
X98620580Y-106753660D01*
X98663760Y-106989880D01*
X98704400Y-107185460D01*
X98732340Y-107320080D01*
X98747580Y-107373420D01*
X98770440Y-107383580D01*
X98866960Y-107426760D01*
X99026980Y-107492800D01*
X99225100Y-107571540D01*
X99682300Y-107756960D01*
X100243640Y-107373420D01*
X100294440Y-107337860D01*
X100497640Y-107200700D01*
X100662740Y-107091480D01*
X100777040Y-107015280D01*
X100825300Y-106989880D01*
X100830380Y-106989880D01*
X100886260Y-107040680D01*
X100995480Y-107144820D01*
X101147880Y-107292140D01*
X101325680Y-107467400D01*
X101455220Y-107599480D01*
X101610160Y-107756960D01*
X101709220Y-107861100D01*
X101762560Y-107929680D01*
X101780340Y-107970320D01*
X101775260Y-107998260D01*
X101739700Y-108056680D01*
X101658420Y-108178600D01*
X101541580Y-108348780D01*
X101404420Y-108546900D01*
X101292660Y-108714540D01*
X101170740Y-108902500D01*
X101092000Y-109037120D01*
X101064060Y-109103160D01*
X101071680Y-109128560D01*
X101109780Y-109240320D01*
X101178360Y-109405420D01*
X101262180Y-109603540D01*
X101457760Y-110048040D01*
X101747320Y-110103920D01*
X101925120Y-110136940D01*
X102171500Y-110185200D01*
X102407720Y-110230920D01*
X102776020Y-110302040D01*
X102788720Y-111655860D01*
X102732840Y-111681260D01*
X102676960Y-111696500D01*
X102539800Y-111726980D01*
X102346760Y-111765080D01*
X102115620Y-111808260D01*
X101920040Y-111843820D01*
X101721920Y-111881920D01*
X101579680Y-111909860D01*
X101518720Y-111922560D01*
X101500940Y-111945420D01*
X101452680Y-112039400D01*
X101381560Y-112191800D01*
X101302820Y-112374680D01*
X101224080Y-112565180D01*
X101155500Y-112740440D01*
X101107240Y-112872520D01*
X101086920Y-112941100D01*
X101114860Y-112994440D01*
X101188520Y-113111280D01*
X101297740Y-113276380D01*
X101432360Y-113471960D01*
X101566980Y-113667540D01*
X101681280Y-113835180D01*
X101760020Y-113957100D01*
X101793040Y-114012980D01*
X101775260Y-114048540D01*
X101696520Y-114145060D01*
X101549200Y-114297460D01*
X101328220Y-114515900D01*
X101292660Y-114551460D01*
X101117400Y-114719100D01*
X100970080Y-114856260D01*
X100865940Y-114947700D01*
X100820220Y-114980720D01*
M02*
