M48
;DRILL file {KiCad 4.0.6} date Wednesday, 03 May 2017 'PMt' 19:41:29
;FORMAT={-:-/ absolute / inch / decimal}
FMAT,2
INCH,TZ
T1C0.016
T2C0.030
T3C0.047
T4C0.120
%
G90
G05
M72
T1
X4.55Y-2.4
T2
X3.5Y-1.7
X3.6Y-1.7
X3.6Y-2.
X3.6Y-3.1
X3.7Y-2.
X3.7Y-3.1
X3.8Y-2.
X3.8Y-3.1
X3.9Y-2.
X3.9Y-3.1
X3.95Y-1.7
X4.Y-2.
X4.Y-3.1
X4.05Y-1.7
X4.1Y-2.
X4.1Y-3.1
X4.15Y-1.7
X4.2Y-2.
X4.2Y-3.1
X4.3Y-2.
X4.3Y-3.1
X4.75Y-3.05
X4.85Y-3.05
X4.95Y-3.05
X5.05Y-3.05
X5.15Y-3.05
X5.25Y-3.05
X6.Y-2.85
X6.Y-2.95
X6.Y-3.05
X6.1Y-1.6
X6.2Y-1.6
X6.3Y-1.6
X6.4Y-1.6
X6.5Y-2.85
X6.5Y-3.05
T3
X4.55Y-1.55
X5.45Y-1.55
X6.25Y-2.8
X6.25Y-3.1
T4
X3.2Y-1.55
X3.2Y-3.15
X6.85Y-1.55
X6.85Y-3.15
T0
M30
