G04 #@! TF.FileFunction,Copper,L1,Top,Signal*
%FSLAX46Y46*%
G04 Gerber Fmt 4.6, Leading zero omitted, Abs format (unit mm)*
G04 Created by KiCad (PCBNEW 4.0.6) date Wednesday, 03 May 2017 'PMt' 19:41:19*
%MOMM*%
%LPD*%
G01*
G04 APERTURE LIST*
%ADD10C,0.100000*%
%ADD11C,1.524000*%
%ADD12O,1.524000X1.100000*%
%ADD13R,1.524000X1.524000*%
%ADD14C,4.064000*%
%ADD15C,0.600000*%
%ADD16C,0.250000*%
%ADD17C,0.254000*%
G04 APERTURE END LIST*
D10*
D11*
X120650000Y-77470000D03*
X123190000Y-77470000D03*
X125730000Y-77470000D03*
X128270000Y-77470000D03*
X130810000Y-77470000D03*
X133350000Y-77470000D03*
X91440000Y-78740000D03*
X93980000Y-78740000D03*
X96520000Y-78740000D03*
X99060000Y-78740000D03*
X101600000Y-78740000D03*
X104140000Y-78740000D03*
X106680000Y-78740000D03*
X109220000Y-78740000D03*
X109220000Y-50800000D03*
X106680000Y-50800000D03*
X104140000Y-50800000D03*
X101600000Y-50800000D03*
X99060000Y-50800000D03*
X96520000Y-50800000D03*
X93980000Y-50800000D03*
X91440000Y-50800000D03*
X162560000Y-40640000D03*
X160020000Y-40640000D03*
X157480000Y-40640000D03*
X154940000Y-40640000D03*
D12*
X152400000Y-72390000D03*
X152400000Y-74930000D03*
X152400000Y-77470000D03*
X165100000Y-72390000D03*
X165100000Y-77470000D03*
D11*
X158750000Y-71120000D03*
X158750000Y-78740000D03*
D13*
X100330000Y-43180000D03*
D11*
X102870000Y-43180000D03*
X105410000Y-43180000D03*
D13*
X88900000Y-43180000D03*
D11*
X91440000Y-43180000D03*
D14*
X173990000Y-39370000D03*
X173990000Y-80010000D03*
X81280000Y-39370000D03*
X81280000Y-80010000D03*
D15*
X115570000Y-60960000D03*
D16*
X96520000Y-50800000D02*
X96520000Y-52070000D01*
X151130000Y-46990000D02*
X157480000Y-40640000D01*
X101600000Y-46990000D02*
X151130000Y-46990000D01*
X100330000Y-48260000D02*
X101600000Y-46990000D01*
X100330000Y-52070000D02*
X100330000Y-48260000D01*
X99060000Y-53340000D02*
X100330000Y-52070000D01*
X97790000Y-53340000D02*
X99060000Y-53340000D01*
X96520000Y-52070000D02*
X97790000Y-53340000D01*
X99060000Y-50800000D02*
X99060000Y-46990000D01*
X148590000Y-40640000D02*
X154940000Y-40640000D01*
X143510000Y-45720000D02*
X148590000Y-40640000D01*
X100330000Y-45720000D02*
X143510000Y-45720000D01*
X99060000Y-46990000D02*
X100330000Y-45720000D01*
X104140000Y-50800000D02*
X106680000Y-53340000D01*
X148590000Y-68580000D02*
X152400000Y-72390000D01*
X129540000Y-68580000D02*
X148590000Y-68580000D01*
X114300000Y-53340000D02*
X129540000Y-68580000D01*
X106680000Y-53340000D02*
X114300000Y-53340000D01*
X101600000Y-50800000D02*
X101600000Y-52070000D01*
X148590000Y-77470000D02*
X152400000Y-77470000D01*
X142240000Y-71120000D02*
X148590000Y-77470000D01*
X129540000Y-71120000D02*
X142240000Y-71120000D01*
X114300000Y-55880000D02*
X129540000Y-71120000D01*
X105410000Y-55880000D02*
X114300000Y-55880000D01*
X101600000Y-52070000D02*
X105410000Y-55880000D01*
X93980000Y-50800000D02*
X93980000Y-59690000D01*
X95250000Y-60960000D02*
X115570000Y-60960000D01*
X93980000Y-59690000D02*
X95250000Y-60960000D01*
X128270000Y-77470000D02*
X124460000Y-73660000D01*
X106680000Y-74930000D02*
X106680000Y-78740000D01*
X107950000Y-73660000D02*
X106680000Y-74930000D01*
X124460000Y-73660000D02*
X107950000Y-73660000D01*
X130810000Y-77470000D02*
X130810000Y-76200000D01*
X101600000Y-72390000D02*
X101600000Y-78740000D01*
X102870000Y-71120000D02*
X101600000Y-72390000D01*
X125730000Y-71120000D02*
X102870000Y-71120000D01*
X130810000Y-76200000D02*
X125730000Y-71120000D01*
X88900000Y-43180000D02*
X88900000Y-41910000D01*
X102870000Y-41910000D02*
X102870000Y-43180000D01*
X101600000Y-40640000D02*
X102870000Y-41910000D01*
X90170000Y-40640000D02*
X101600000Y-40640000D01*
X88900000Y-41910000D02*
X90170000Y-40640000D01*
D17*
G36*
X111633000Y-40640000D02*
X111643006Y-40689410D01*
X111670197Y-40729803D01*
X114210197Y-43269803D01*
X114252211Y-43297666D01*
X114300000Y-43307000D01*
X116840000Y-43307000D01*
X116889410Y-43296994D01*
X116929803Y-43269803D01*
X119469803Y-40729803D01*
X119497666Y-40687789D01*
X119507000Y-40640000D01*
X119507000Y-38227000D01*
X134493000Y-38227000D01*
X134493000Y-41910000D01*
X134503006Y-41959410D01*
X134530197Y-41999803D01*
X137070197Y-44539803D01*
X137112211Y-44567666D01*
X137160000Y-44577000D01*
X139700000Y-44577000D01*
X139749410Y-44566994D01*
X139789803Y-44539803D01*
X142329803Y-41999803D01*
X142357666Y-41957789D01*
X142367000Y-41910000D01*
X142367000Y-38227000D01*
X170053000Y-38227000D01*
X170053000Y-40640000D01*
X170063006Y-40689410D01*
X170090197Y-40729803D01*
X172630197Y-43269803D01*
X172672211Y-43297666D01*
X172720000Y-43307000D01*
X175133000Y-43307000D01*
X175133000Y-76073000D01*
X172720000Y-76073000D01*
X172670590Y-76083006D01*
X172630197Y-76110197D01*
X170090197Y-78650197D01*
X170062334Y-78692211D01*
X170053000Y-78740000D01*
X170053000Y-81153000D01*
X85217000Y-81153000D01*
X85217000Y-79016661D01*
X90042758Y-79016661D01*
X90254990Y-79530303D01*
X90647630Y-79923629D01*
X91160900Y-80136757D01*
X91716661Y-80137242D01*
X92230303Y-79925010D01*
X92623629Y-79532370D01*
X92709949Y-79324488D01*
X92794990Y-79530303D01*
X93187630Y-79923629D01*
X93700900Y-80136757D01*
X94256661Y-80137242D01*
X94770303Y-79925010D01*
X95163629Y-79532370D01*
X95249949Y-79324488D01*
X95334990Y-79530303D01*
X95727630Y-79923629D01*
X96240900Y-80136757D01*
X96796661Y-80137242D01*
X97310303Y-79925010D01*
X97703629Y-79532370D01*
X97789949Y-79324488D01*
X97874990Y-79530303D01*
X98267630Y-79923629D01*
X98780900Y-80136757D01*
X99336661Y-80137242D01*
X99850303Y-79925010D01*
X100243629Y-79532370D01*
X100329949Y-79324488D01*
X100414990Y-79530303D01*
X100807630Y-79923629D01*
X101320900Y-80136757D01*
X101876661Y-80137242D01*
X102390303Y-79925010D01*
X102783629Y-79532370D01*
X102869949Y-79324488D01*
X102954990Y-79530303D01*
X103347630Y-79923629D01*
X103860900Y-80136757D01*
X104416661Y-80137242D01*
X104930303Y-79925010D01*
X105323629Y-79532370D01*
X105409949Y-79324488D01*
X105494990Y-79530303D01*
X105887630Y-79923629D01*
X106400900Y-80136757D01*
X106956661Y-80137242D01*
X107470303Y-79925010D01*
X107675457Y-79720213D01*
X108419392Y-79720213D01*
X108488857Y-79962397D01*
X109012302Y-80149144D01*
X109567368Y-80121362D01*
X109951143Y-79962397D01*
X110020608Y-79720213D01*
X109220000Y-78919605D01*
X108419392Y-79720213D01*
X107675457Y-79720213D01*
X107863629Y-79532370D01*
X107943395Y-79340273D01*
X107997603Y-79471143D01*
X108239787Y-79540608D01*
X109040395Y-78740000D01*
X109399605Y-78740000D01*
X110200213Y-79540608D01*
X110442397Y-79471143D01*
X110604540Y-79016661D01*
X157352758Y-79016661D01*
X157564990Y-79530303D01*
X157957630Y-79923629D01*
X158470900Y-80136757D01*
X159026661Y-80137242D01*
X159540303Y-79925010D01*
X159933629Y-79532370D01*
X160146757Y-79019100D01*
X160147242Y-78463339D01*
X159935010Y-77949697D01*
X159542370Y-77556371D01*
X159334366Y-77470000D01*
X163675631Y-77470000D01*
X163765834Y-77923480D01*
X164022709Y-78307922D01*
X164407151Y-78564797D01*
X164860631Y-78655000D01*
X165339369Y-78655000D01*
X165792849Y-78564797D01*
X166177291Y-78307922D01*
X166434166Y-77923480D01*
X166524369Y-77470000D01*
X166434166Y-77016520D01*
X166177291Y-76632078D01*
X165792849Y-76375203D01*
X165339369Y-76285000D01*
X164860631Y-76285000D01*
X164407151Y-76375203D01*
X164022709Y-76632078D01*
X163765834Y-77016520D01*
X163675631Y-77470000D01*
X159334366Y-77470000D01*
X159029100Y-77343243D01*
X158473339Y-77342758D01*
X157959697Y-77554990D01*
X157566371Y-77947630D01*
X157353243Y-78460900D01*
X157352758Y-79016661D01*
X110604540Y-79016661D01*
X110629144Y-78947698D01*
X110601362Y-78392632D01*
X110442397Y-78008857D01*
X110200213Y-77939392D01*
X109399605Y-78740000D01*
X109040395Y-78740000D01*
X108239787Y-77939392D01*
X107997603Y-78008857D01*
X107947491Y-78149318D01*
X107865010Y-77949697D01*
X107675432Y-77759787D01*
X108419392Y-77759787D01*
X109220000Y-78560395D01*
X110020608Y-77759787D01*
X110016844Y-77746661D01*
X119252758Y-77746661D01*
X119464990Y-78260303D01*
X119857630Y-78653629D01*
X120370900Y-78866757D01*
X120926661Y-78867242D01*
X121440303Y-78655010D01*
X121645457Y-78450213D01*
X122389392Y-78450213D01*
X122458857Y-78692397D01*
X122982302Y-78879144D01*
X123537368Y-78851362D01*
X123921143Y-78692397D01*
X123990608Y-78450213D01*
X123190000Y-77649605D01*
X122389392Y-78450213D01*
X121645457Y-78450213D01*
X121833629Y-78262370D01*
X121913395Y-78070273D01*
X121967603Y-78201143D01*
X122209787Y-78270608D01*
X123010395Y-77470000D01*
X122209787Y-76669392D01*
X121967603Y-76738857D01*
X121917491Y-76879318D01*
X121835010Y-76679697D01*
X121645432Y-76489787D01*
X122389392Y-76489787D01*
X123190000Y-77290395D01*
X123990608Y-76489787D01*
X123921143Y-76247603D01*
X123397698Y-76060856D01*
X122842632Y-76088638D01*
X122458857Y-76247603D01*
X122389392Y-76489787D01*
X121645432Y-76489787D01*
X121442370Y-76286371D01*
X120929100Y-76073243D01*
X120373339Y-76072758D01*
X119859697Y-76284990D01*
X119466371Y-76677630D01*
X119253243Y-77190900D01*
X119252758Y-77746661D01*
X110016844Y-77746661D01*
X109951143Y-77517603D01*
X109427698Y-77330856D01*
X108872632Y-77358638D01*
X108488857Y-77517603D01*
X108419392Y-77759787D01*
X107675432Y-77759787D01*
X107472370Y-77556371D01*
X107440000Y-77542930D01*
X107440000Y-75244802D01*
X108264802Y-74420000D01*
X124145198Y-74420000D01*
X125798257Y-76073059D01*
X125453339Y-76072758D01*
X124939697Y-76284990D01*
X124546371Y-76677630D01*
X124466605Y-76869727D01*
X124412397Y-76738857D01*
X124170213Y-76669392D01*
X123369605Y-77470000D01*
X124170213Y-78270608D01*
X124412397Y-78201143D01*
X124462509Y-78060682D01*
X124544990Y-78260303D01*
X124937630Y-78653629D01*
X125450900Y-78866757D01*
X126006661Y-78867242D01*
X126520303Y-78655010D01*
X126913629Y-78262370D01*
X126999949Y-78054488D01*
X127084990Y-78260303D01*
X127477630Y-78653629D01*
X127990900Y-78866757D01*
X128546661Y-78867242D01*
X129060303Y-78655010D01*
X129453629Y-78262370D01*
X129539949Y-78054488D01*
X129624990Y-78260303D01*
X130017630Y-78653629D01*
X130530900Y-78866757D01*
X131086661Y-78867242D01*
X131600303Y-78655010D01*
X131993629Y-78262370D01*
X132079949Y-78054488D01*
X132164990Y-78260303D01*
X132557630Y-78653629D01*
X133070900Y-78866757D01*
X133626661Y-78867242D01*
X134140303Y-78655010D01*
X134533629Y-78262370D01*
X134746757Y-77749100D01*
X134747242Y-77193339D01*
X134535010Y-76679697D01*
X134142370Y-76286371D01*
X133629100Y-76073243D01*
X133073339Y-76072758D01*
X132559697Y-76284990D01*
X132166371Y-76677630D01*
X132080051Y-76885512D01*
X131995010Y-76679697D01*
X131602370Y-76286371D01*
X131570000Y-76272930D01*
X131570000Y-76200000D01*
X131512148Y-75909161D01*
X131347401Y-75662599D01*
X126267401Y-70582599D01*
X126020839Y-70417852D01*
X125730000Y-70360000D01*
X102870000Y-70360000D01*
X102579160Y-70417852D01*
X102332599Y-70582599D01*
X101062599Y-71852599D01*
X100897852Y-72099161D01*
X100840000Y-72390000D01*
X100840000Y-77542469D01*
X100809697Y-77554990D01*
X100416371Y-77947630D01*
X100330051Y-78155512D01*
X100245010Y-77949697D01*
X99852370Y-77556371D01*
X99339100Y-77343243D01*
X98783339Y-77342758D01*
X98269697Y-77554990D01*
X97876371Y-77947630D01*
X97790051Y-78155512D01*
X97705010Y-77949697D01*
X97312370Y-77556371D01*
X96799100Y-77343243D01*
X96243339Y-77342758D01*
X95729697Y-77554990D01*
X95336371Y-77947630D01*
X95250051Y-78155512D01*
X95165010Y-77949697D01*
X94772370Y-77556371D01*
X94259100Y-77343243D01*
X93703339Y-77342758D01*
X93189697Y-77554990D01*
X92796371Y-77947630D01*
X92710051Y-78155512D01*
X92625010Y-77949697D01*
X92232370Y-77556371D01*
X91719100Y-77343243D01*
X91163339Y-77342758D01*
X90649697Y-77554990D01*
X90256371Y-77947630D01*
X90043243Y-78460900D01*
X90042758Y-79016661D01*
X85217000Y-79016661D01*
X85217000Y-78740000D01*
X85206994Y-78690590D01*
X85179803Y-78650197D01*
X82639803Y-76110197D01*
X82597789Y-76082334D01*
X82550000Y-76073000D01*
X80137000Y-76073000D01*
X80137000Y-51076661D01*
X90042758Y-51076661D01*
X90254990Y-51590303D01*
X90647630Y-51983629D01*
X91160900Y-52196757D01*
X91716661Y-52197242D01*
X92230303Y-51985010D01*
X92623629Y-51592370D01*
X92709949Y-51384488D01*
X92794990Y-51590303D01*
X93187630Y-51983629D01*
X93220000Y-51997070D01*
X93220000Y-59690000D01*
X93277852Y-59980839D01*
X93442599Y-60227401D01*
X94712599Y-61497401D01*
X94959160Y-61662148D01*
X95250000Y-61720000D01*
X115007537Y-61720000D01*
X115039673Y-61752192D01*
X115383201Y-61894838D01*
X115755167Y-61895162D01*
X116098943Y-61753117D01*
X116362192Y-61490327D01*
X116504838Y-61146799D01*
X116505162Y-60774833D01*
X116363117Y-60431057D01*
X116100327Y-60167808D01*
X115756799Y-60025162D01*
X115384833Y-60024838D01*
X115041057Y-60166883D01*
X115007882Y-60200000D01*
X95564802Y-60200000D01*
X94740000Y-59375198D01*
X94740000Y-51997531D01*
X94770303Y-51985010D01*
X95163629Y-51592370D01*
X95249949Y-51384488D01*
X95334990Y-51590303D01*
X95727630Y-51983629D01*
X95760000Y-51997070D01*
X95760000Y-52070000D01*
X95817852Y-52360839D01*
X95982599Y-52607401D01*
X97252599Y-53877401D01*
X97499160Y-54042148D01*
X97790000Y-54100000D01*
X99060000Y-54100000D01*
X99350839Y-54042148D01*
X99597401Y-53877401D01*
X100867401Y-52607401D01*
X100965000Y-52461334D01*
X101062599Y-52607401D01*
X104872599Y-56417401D01*
X105119161Y-56582148D01*
X105410000Y-56640000D01*
X113985198Y-56640000D01*
X129002599Y-71657401D01*
X129249161Y-71822148D01*
X129540000Y-71880000D01*
X141925198Y-71880000D01*
X148052599Y-78007401D01*
X148299161Y-78172148D01*
X148590000Y-78230000D01*
X151270643Y-78230000D01*
X151322709Y-78307922D01*
X151707151Y-78564797D01*
X152160631Y-78655000D01*
X152639369Y-78655000D01*
X153092849Y-78564797D01*
X153477291Y-78307922D01*
X153734166Y-77923480D01*
X153824369Y-77470000D01*
X153734166Y-77016520D01*
X153477291Y-76632078D01*
X153092849Y-76375203D01*
X152639369Y-76285000D01*
X152160631Y-76285000D01*
X151707151Y-76375203D01*
X151322709Y-76632078D01*
X151270643Y-76710000D01*
X148904802Y-76710000D01*
X147124802Y-74930000D01*
X150975631Y-74930000D01*
X151065834Y-75383480D01*
X151322709Y-75767922D01*
X151707151Y-76024797D01*
X152160631Y-76115000D01*
X152639369Y-76115000D01*
X153092849Y-76024797D01*
X153477291Y-75767922D01*
X153734166Y-75383480D01*
X153824369Y-74930000D01*
X153734166Y-74476520D01*
X153477291Y-74092078D01*
X153092849Y-73835203D01*
X152639369Y-73745000D01*
X152160631Y-73745000D01*
X151707151Y-73835203D01*
X151322709Y-74092078D01*
X151065834Y-74476520D01*
X150975631Y-74930000D01*
X147124802Y-74930000D01*
X142777401Y-70582599D01*
X142530839Y-70417852D01*
X142240000Y-70360000D01*
X129854802Y-70360000D01*
X114837401Y-55342599D01*
X114590839Y-55177852D01*
X114300000Y-55120000D01*
X105724802Y-55120000D01*
X102490145Y-51885343D01*
X102783629Y-51592370D01*
X102869949Y-51384488D01*
X102954990Y-51590303D01*
X103347630Y-51983629D01*
X103860900Y-52196757D01*
X104416661Y-52197242D01*
X104449055Y-52183857D01*
X106142599Y-53877401D01*
X106389160Y-54042148D01*
X106437414Y-54051746D01*
X106680000Y-54100000D01*
X113985198Y-54100000D01*
X129002599Y-69117401D01*
X129249161Y-69282148D01*
X129540000Y-69340000D01*
X148275198Y-69340000D01*
X151033628Y-72098430D01*
X150975631Y-72390000D01*
X151065834Y-72843480D01*
X151322709Y-73227922D01*
X151707151Y-73484797D01*
X152160631Y-73575000D01*
X152639369Y-73575000D01*
X153092849Y-73484797D01*
X153477291Y-73227922D01*
X153734166Y-72843480D01*
X153824369Y-72390000D01*
X153734166Y-71936520D01*
X153477291Y-71552078D01*
X153244693Y-71396661D01*
X157352758Y-71396661D01*
X157564990Y-71910303D01*
X157957630Y-72303629D01*
X158470900Y-72516757D01*
X159026661Y-72517242D01*
X159334610Y-72390000D01*
X163675631Y-72390000D01*
X163765834Y-72843480D01*
X164022709Y-73227922D01*
X164407151Y-73484797D01*
X164860631Y-73575000D01*
X165339369Y-73575000D01*
X165792849Y-73484797D01*
X166177291Y-73227922D01*
X166434166Y-72843480D01*
X166524369Y-72390000D01*
X166434166Y-71936520D01*
X166177291Y-71552078D01*
X165792849Y-71295203D01*
X165339369Y-71205000D01*
X164860631Y-71205000D01*
X164407151Y-71295203D01*
X164022709Y-71552078D01*
X163765834Y-71936520D01*
X163675631Y-72390000D01*
X159334610Y-72390000D01*
X159540303Y-72305010D01*
X159933629Y-71912370D01*
X160146757Y-71399100D01*
X160147242Y-70843339D01*
X159935010Y-70329697D01*
X159542370Y-69936371D01*
X159029100Y-69723243D01*
X158473339Y-69722758D01*
X157959697Y-69934990D01*
X157566371Y-70327630D01*
X157353243Y-70840900D01*
X157352758Y-71396661D01*
X153244693Y-71396661D01*
X153092849Y-71295203D01*
X152639369Y-71205000D01*
X152289802Y-71205000D01*
X149127401Y-68042599D01*
X148880839Y-67877852D01*
X148590000Y-67820000D01*
X129854802Y-67820000D01*
X114837401Y-52802599D01*
X114590839Y-52637852D01*
X114300000Y-52580000D01*
X106994802Y-52580000D01*
X106611743Y-52196941D01*
X106956661Y-52197242D01*
X107470303Y-51985010D01*
X107863629Y-51592370D01*
X107949949Y-51384488D01*
X108034990Y-51590303D01*
X108427630Y-51983629D01*
X108940900Y-52196757D01*
X109496661Y-52197242D01*
X110010303Y-51985010D01*
X110403629Y-51592370D01*
X110616757Y-51079100D01*
X110617242Y-50523339D01*
X110405010Y-50009697D01*
X110012370Y-49616371D01*
X109499100Y-49403243D01*
X108943339Y-49402758D01*
X108429697Y-49614990D01*
X108036371Y-50007630D01*
X107950051Y-50215512D01*
X107865010Y-50009697D01*
X107472370Y-49616371D01*
X106959100Y-49403243D01*
X106403339Y-49402758D01*
X105889697Y-49614990D01*
X105496371Y-50007630D01*
X105410051Y-50215512D01*
X105325010Y-50009697D01*
X104932370Y-49616371D01*
X104419100Y-49403243D01*
X103863339Y-49402758D01*
X103349697Y-49614990D01*
X102956371Y-50007630D01*
X102870051Y-50215512D01*
X102785010Y-50009697D01*
X102392370Y-49616371D01*
X101879100Y-49403243D01*
X101323339Y-49402758D01*
X101090000Y-49499171D01*
X101090000Y-48574802D01*
X101914802Y-47750000D01*
X151130000Y-47750000D01*
X151420839Y-47692148D01*
X151667401Y-47527401D01*
X157170619Y-42024183D01*
X157200900Y-42036757D01*
X157756661Y-42037242D01*
X158270303Y-41825010D01*
X158663629Y-41432370D01*
X158749949Y-41224488D01*
X158834990Y-41430303D01*
X159227630Y-41823629D01*
X159740900Y-42036757D01*
X160296661Y-42037242D01*
X160810303Y-41825010D01*
X161015457Y-41620213D01*
X161759392Y-41620213D01*
X161828857Y-41862397D01*
X162352302Y-42049144D01*
X162907368Y-42021362D01*
X163291143Y-41862397D01*
X163360608Y-41620213D01*
X162560000Y-40819605D01*
X161759392Y-41620213D01*
X161015457Y-41620213D01*
X161203629Y-41432370D01*
X161283395Y-41240273D01*
X161337603Y-41371143D01*
X161579787Y-41440608D01*
X162380395Y-40640000D01*
X162739605Y-40640000D01*
X163540213Y-41440608D01*
X163782397Y-41371143D01*
X163969144Y-40847698D01*
X163941362Y-40292632D01*
X163782397Y-39908857D01*
X163540213Y-39839392D01*
X162739605Y-40640000D01*
X162380395Y-40640000D01*
X161579787Y-39839392D01*
X161337603Y-39908857D01*
X161287491Y-40049318D01*
X161205010Y-39849697D01*
X161015432Y-39659787D01*
X161759392Y-39659787D01*
X162560000Y-40460395D01*
X163360608Y-39659787D01*
X163291143Y-39417603D01*
X162767698Y-39230856D01*
X162212632Y-39258638D01*
X161828857Y-39417603D01*
X161759392Y-39659787D01*
X161015432Y-39659787D01*
X160812370Y-39456371D01*
X160299100Y-39243243D01*
X159743339Y-39242758D01*
X159229697Y-39454990D01*
X158836371Y-39847630D01*
X158750051Y-40055512D01*
X158665010Y-39849697D01*
X158272370Y-39456371D01*
X157759100Y-39243243D01*
X157203339Y-39242758D01*
X156689697Y-39454990D01*
X156296371Y-39847630D01*
X156210051Y-40055512D01*
X156125010Y-39849697D01*
X155732370Y-39456371D01*
X155219100Y-39243243D01*
X154663339Y-39242758D01*
X154149697Y-39454990D01*
X153756371Y-39847630D01*
X153742930Y-39880000D01*
X148590000Y-39880000D01*
X148299161Y-39937852D01*
X148052599Y-40102599D01*
X143195198Y-44960000D01*
X100330000Y-44960000D01*
X100039160Y-45017852D01*
X99792599Y-45182599D01*
X98522599Y-46452599D01*
X98357852Y-46699161D01*
X98300000Y-46990000D01*
X98300000Y-49602469D01*
X98269697Y-49614990D01*
X97876371Y-50007630D01*
X97790051Y-50215512D01*
X97705010Y-50009697D01*
X97312370Y-49616371D01*
X96799100Y-49403243D01*
X96243339Y-49402758D01*
X95729697Y-49614990D01*
X95336371Y-50007630D01*
X95250051Y-50215512D01*
X95165010Y-50009697D01*
X94772370Y-49616371D01*
X94259100Y-49403243D01*
X93703339Y-49402758D01*
X93189697Y-49614990D01*
X92796371Y-50007630D01*
X92710051Y-50215512D01*
X92625010Y-50009697D01*
X92232370Y-49616371D01*
X91719100Y-49403243D01*
X91163339Y-49402758D01*
X90649697Y-49614990D01*
X90256371Y-50007630D01*
X90043243Y-50520900D01*
X90042758Y-51076661D01*
X80137000Y-51076661D01*
X80137000Y-44577000D01*
X82550000Y-44577000D01*
X82599410Y-44566994D01*
X82655670Y-44520447D01*
X84057301Y-42418000D01*
X87490560Y-42418000D01*
X87490560Y-43942000D01*
X87534838Y-44177317D01*
X87673910Y-44393441D01*
X87886110Y-44538431D01*
X88138000Y-44589440D01*
X89662000Y-44589440D01*
X89897317Y-44545162D01*
X90113441Y-44406090D01*
X90258431Y-44193890D01*
X90295492Y-44010876D01*
X90647630Y-44363629D01*
X91160900Y-44576757D01*
X91716661Y-44577242D01*
X92230303Y-44365010D01*
X92623629Y-43972370D01*
X92836757Y-43459100D01*
X92837242Y-42903339D01*
X92625010Y-42389697D01*
X92232370Y-41996371D01*
X91719100Y-41783243D01*
X91163339Y-41782758D01*
X90649697Y-41994990D01*
X90296237Y-42347833D01*
X90265162Y-42182683D01*
X90126090Y-41966559D01*
X90002612Y-41882190D01*
X90484802Y-41400000D01*
X101285198Y-41400000D01*
X101979855Y-42094657D01*
X101726237Y-42347833D01*
X101695162Y-42182683D01*
X101556090Y-41966559D01*
X101343890Y-41821569D01*
X101092000Y-41770560D01*
X99568000Y-41770560D01*
X99332683Y-41814838D01*
X99116559Y-41953910D01*
X98971569Y-42166110D01*
X98920560Y-42418000D01*
X98920560Y-43942000D01*
X98964838Y-44177317D01*
X99103910Y-44393441D01*
X99316110Y-44538431D01*
X99568000Y-44589440D01*
X101092000Y-44589440D01*
X101327317Y-44545162D01*
X101543441Y-44406090D01*
X101688431Y-44193890D01*
X101725492Y-44010876D01*
X102077630Y-44363629D01*
X102590900Y-44576757D01*
X103146661Y-44577242D01*
X103660303Y-44365010D01*
X103865457Y-44160213D01*
X104609392Y-44160213D01*
X104678857Y-44402397D01*
X105202302Y-44589144D01*
X105757368Y-44561362D01*
X106141143Y-44402397D01*
X106210608Y-44160213D01*
X105410000Y-43359605D01*
X104609392Y-44160213D01*
X103865457Y-44160213D01*
X104053629Y-43972370D01*
X104133395Y-43780273D01*
X104187603Y-43911143D01*
X104429787Y-43980608D01*
X105230395Y-43180000D01*
X105589605Y-43180000D01*
X106390213Y-43980608D01*
X106632397Y-43911143D01*
X106819144Y-43387698D01*
X106791362Y-42832632D01*
X106632397Y-42448857D01*
X106390213Y-42379392D01*
X105589605Y-43180000D01*
X105230395Y-43180000D01*
X104429787Y-42379392D01*
X104187603Y-42448857D01*
X104137491Y-42589318D01*
X104055010Y-42389697D01*
X103865432Y-42199787D01*
X104609392Y-42199787D01*
X105410000Y-43000395D01*
X106210608Y-42199787D01*
X106141143Y-41957603D01*
X105617698Y-41770856D01*
X105062632Y-41798638D01*
X104678857Y-41957603D01*
X104609392Y-42199787D01*
X103865432Y-42199787D01*
X103662370Y-41996371D01*
X103630000Y-41982930D01*
X103630000Y-41910000D01*
X103602322Y-41770856D01*
X103572148Y-41619160D01*
X103407401Y-41372599D01*
X102137401Y-40102599D01*
X101890839Y-39937852D01*
X101600000Y-39880000D01*
X90170000Y-39880000D01*
X89879160Y-39937852D01*
X89632599Y-40102599D01*
X88362599Y-41372599D01*
X88197852Y-41619161D01*
X88167737Y-41770560D01*
X88138000Y-41770560D01*
X87902683Y-41814838D01*
X87686559Y-41953910D01*
X87541569Y-42166110D01*
X87490560Y-42418000D01*
X84057301Y-42418000D01*
X85195670Y-40710447D01*
X85217000Y-40640000D01*
X85217000Y-38227000D01*
X111633000Y-38227000D01*
X111633000Y-40640000D01*
X111633000Y-40640000D01*
G37*
X111633000Y-40640000D02*
X111643006Y-40689410D01*
X111670197Y-40729803D01*
X114210197Y-43269803D01*
X114252211Y-43297666D01*
X114300000Y-43307000D01*
X116840000Y-43307000D01*
X116889410Y-43296994D01*
X116929803Y-43269803D01*
X119469803Y-40729803D01*
X119497666Y-40687789D01*
X119507000Y-40640000D01*
X119507000Y-38227000D01*
X134493000Y-38227000D01*
X134493000Y-41910000D01*
X134503006Y-41959410D01*
X134530197Y-41999803D01*
X137070197Y-44539803D01*
X137112211Y-44567666D01*
X137160000Y-44577000D01*
X139700000Y-44577000D01*
X139749410Y-44566994D01*
X139789803Y-44539803D01*
X142329803Y-41999803D01*
X142357666Y-41957789D01*
X142367000Y-41910000D01*
X142367000Y-38227000D01*
X170053000Y-38227000D01*
X170053000Y-40640000D01*
X170063006Y-40689410D01*
X170090197Y-40729803D01*
X172630197Y-43269803D01*
X172672211Y-43297666D01*
X172720000Y-43307000D01*
X175133000Y-43307000D01*
X175133000Y-76073000D01*
X172720000Y-76073000D01*
X172670590Y-76083006D01*
X172630197Y-76110197D01*
X170090197Y-78650197D01*
X170062334Y-78692211D01*
X170053000Y-78740000D01*
X170053000Y-81153000D01*
X85217000Y-81153000D01*
X85217000Y-79016661D01*
X90042758Y-79016661D01*
X90254990Y-79530303D01*
X90647630Y-79923629D01*
X91160900Y-80136757D01*
X91716661Y-80137242D01*
X92230303Y-79925010D01*
X92623629Y-79532370D01*
X92709949Y-79324488D01*
X92794990Y-79530303D01*
X93187630Y-79923629D01*
X93700900Y-80136757D01*
X94256661Y-80137242D01*
X94770303Y-79925010D01*
X95163629Y-79532370D01*
X95249949Y-79324488D01*
X95334990Y-79530303D01*
X95727630Y-79923629D01*
X96240900Y-80136757D01*
X96796661Y-80137242D01*
X97310303Y-79925010D01*
X97703629Y-79532370D01*
X97789949Y-79324488D01*
X97874990Y-79530303D01*
X98267630Y-79923629D01*
X98780900Y-80136757D01*
X99336661Y-80137242D01*
X99850303Y-79925010D01*
X100243629Y-79532370D01*
X100329949Y-79324488D01*
X100414990Y-79530303D01*
X100807630Y-79923629D01*
X101320900Y-80136757D01*
X101876661Y-80137242D01*
X102390303Y-79925010D01*
X102783629Y-79532370D01*
X102869949Y-79324488D01*
X102954990Y-79530303D01*
X103347630Y-79923629D01*
X103860900Y-80136757D01*
X104416661Y-80137242D01*
X104930303Y-79925010D01*
X105323629Y-79532370D01*
X105409949Y-79324488D01*
X105494990Y-79530303D01*
X105887630Y-79923629D01*
X106400900Y-80136757D01*
X106956661Y-80137242D01*
X107470303Y-79925010D01*
X107675457Y-79720213D01*
X108419392Y-79720213D01*
X108488857Y-79962397D01*
X109012302Y-80149144D01*
X109567368Y-80121362D01*
X109951143Y-79962397D01*
X110020608Y-79720213D01*
X109220000Y-78919605D01*
X108419392Y-79720213D01*
X107675457Y-79720213D01*
X107863629Y-79532370D01*
X107943395Y-79340273D01*
X107997603Y-79471143D01*
X108239787Y-79540608D01*
X109040395Y-78740000D01*
X109399605Y-78740000D01*
X110200213Y-79540608D01*
X110442397Y-79471143D01*
X110604540Y-79016661D01*
X157352758Y-79016661D01*
X157564990Y-79530303D01*
X157957630Y-79923629D01*
X158470900Y-80136757D01*
X159026661Y-80137242D01*
X159540303Y-79925010D01*
X159933629Y-79532370D01*
X160146757Y-79019100D01*
X160147242Y-78463339D01*
X159935010Y-77949697D01*
X159542370Y-77556371D01*
X159334366Y-77470000D01*
X163675631Y-77470000D01*
X163765834Y-77923480D01*
X164022709Y-78307922D01*
X164407151Y-78564797D01*
X164860631Y-78655000D01*
X165339369Y-78655000D01*
X165792849Y-78564797D01*
X166177291Y-78307922D01*
X166434166Y-77923480D01*
X166524369Y-77470000D01*
X166434166Y-77016520D01*
X166177291Y-76632078D01*
X165792849Y-76375203D01*
X165339369Y-76285000D01*
X164860631Y-76285000D01*
X164407151Y-76375203D01*
X164022709Y-76632078D01*
X163765834Y-77016520D01*
X163675631Y-77470000D01*
X159334366Y-77470000D01*
X159029100Y-77343243D01*
X158473339Y-77342758D01*
X157959697Y-77554990D01*
X157566371Y-77947630D01*
X157353243Y-78460900D01*
X157352758Y-79016661D01*
X110604540Y-79016661D01*
X110629144Y-78947698D01*
X110601362Y-78392632D01*
X110442397Y-78008857D01*
X110200213Y-77939392D01*
X109399605Y-78740000D01*
X109040395Y-78740000D01*
X108239787Y-77939392D01*
X107997603Y-78008857D01*
X107947491Y-78149318D01*
X107865010Y-77949697D01*
X107675432Y-77759787D01*
X108419392Y-77759787D01*
X109220000Y-78560395D01*
X110020608Y-77759787D01*
X110016844Y-77746661D01*
X119252758Y-77746661D01*
X119464990Y-78260303D01*
X119857630Y-78653629D01*
X120370900Y-78866757D01*
X120926661Y-78867242D01*
X121440303Y-78655010D01*
X121645457Y-78450213D01*
X122389392Y-78450213D01*
X122458857Y-78692397D01*
X122982302Y-78879144D01*
X123537368Y-78851362D01*
X123921143Y-78692397D01*
X123990608Y-78450213D01*
X123190000Y-77649605D01*
X122389392Y-78450213D01*
X121645457Y-78450213D01*
X121833629Y-78262370D01*
X121913395Y-78070273D01*
X121967603Y-78201143D01*
X122209787Y-78270608D01*
X123010395Y-77470000D01*
X122209787Y-76669392D01*
X121967603Y-76738857D01*
X121917491Y-76879318D01*
X121835010Y-76679697D01*
X121645432Y-76489787D01*
X122389392Y-76489787D01*
X123190000Y-77290395D01*
X123990608Y-76489787D01*
X123921143Y-76247603D01*
X123397698Y-76060856D01*
X122842632Y-76088638D01*
X122458857Y-76247603D01*
X122389392Y-76489787D01*
X121645432Y-76489787D01*
X121442370Y-76286371D01*
X120929100Y-76073243D01*
X120373339Y-76072758D01*
X119859697Y-76284990D01*
X119466371Y-76677630D01*
X119253243Y-77190900D01*
X119252758Y-77746661D01*
X110016844Y-77746661D01*
X109951143Y-77517603D01*
X109427698Y-77330856D01*
X108872632Y-77358638D01*
X108488857Y-77517603D01*
X108419392Y-77759787D01*
X107675432Y-77759787D01*
X107472370Y-77556371D01*
X107440000Y-77542930D01*
X107440000Y-75244802D01*
X108264802Y-74420000D01*
X124145198Y-74420000D01*
X125798257Y-76073059D01*
X125453339Y-76072758D01*
X124939697Y-76284990D01*
X124546371Y-76677630D01*
X124466605Y-76869727D01*
X124412397Y-76738857D01*
X124170213Y-76669392D01*
X123369605Y-77470000D01*
X124170213Y-78270608D01*
X124412397Y-78201143D01*
X124462509Y-78060682D01*
X124544990Y-78260303D01*
X124937630Y-78653629D01*
X125450900Y-78866757D01*
X126006661Y-78867242D01*
X126520303Y-78655010D01*
X126913629Y-78262370D01*
X126999949Y-78054488D01*
X127084990Y-78260303D01*
X127477630Y-78653629D01*
X127990900Y-78866757D01*
X128546661Y-78867242D01*
X129060303Y-78655010D01*
X129453629Y-78262370D01*
X129539949Y-78054488D01*
X129624990Y-78260303D01*
X130017630Y-78653629D01*
X130530900Y-78866757D01*
X131086661Y-78867242D01*
X131600303Y-78655010D01*
X131993629Y-78262370D01*
X132079949Y-78054488D01*
X132164990Y-78260303D01*
X132557630Y-78653629D01*
X133070900Y-78866757D01*
X133626661Y-78867242D01*
X134140303Y-78655010D01*
X134533629Y-78262370D01*
X134746757Y-77749100D01*
X134747242Y-77193339D01*
X134535010Y-76679697D01*
X134142370Y-76286371D01*
X133629100Y-76073243D01*
X133073339Y-76072758D01*
X132559697Y-76284990D01*
X132166371Y-76677630D01*
X132080051Y-76885512D01*
X131995010Y-76679697D01*
X131602370Y-76286371D01*
X131570000Y-76272930D01*
X131570000Y-76200000D01*
X131512148Y-75909161D01*
X131347401Y-75662599D01*
X126267401Y-70582599D01*
X126020839Y-70417852D01*
X125730000Y-70360000D01*
X102870000Y-70360000D01*
X102579160Y-70417852D01*
X102332599Y-70582599D01*
X101062599Y-71852599D01*
X100897852Y-72099161D01*
X100840000Y-72390000D01*
X100840000Y-77542469D01*
X100809697Y-77554990D01*
X100416371Y-77947630D01*
X100330051Y-78155512D01*
X100245010Y-77949697D01*
X99852370Y-77556371D01*
X99339100Y-77343243D01*
X98783339Y-77342758D01*
X98269697Y-77554990D01*
X97876371Y-77947630D01*
X97790051Y-78155512D01*
X97705010Y-77949697D01*
X97312370Y-77556371D01*
X96799100Y-77343243D01*
X96243339Y-77342758D01*
X95729697Y-77554990D01*
X95336371Y-77947630D01*
X95250051Y-78155512D01*
X95165010Y-77949697D01*
X94772370Y-77556371D01*
X94259100Y-77343243D01*
X93703339Y-77342758D01*
X93189697Y-77554990D01*
X92796371Y-77947630D01*
X92710051Y-78155512D01*
X92625010Y-77949697D01*
X92232370Y-77556371D01*
X91719100Y-77343243D01*
X91163339Y-77342758D01*
X90649697Y-77554990D01*
X90256371Y-77947630D01*
X90043243Y-78460900D01*
X90042758Y-79016661D01*
X85217000Y-79016661D01*
X85217000Y-78740000D01*
X85206994Y-78690590D01*
X85179803Y-78650197D01*
X82639803Y-76110197D01*
X82597789Y-76082334D01*
X82550000Y-76073000D01*
X80137000Y-76073000D01*
X80137000Y-51076661D01*
X90042758Y-51076661D01*
X90254990Y-51590303D01*
X90647630Y-51983629D01*
X91160900Y-52196757D01*
X91716661Y-52197242D01*
X92230303Y-51985010D01*
X92623629Y-51592370D01*
X92709949Y-51384488D01*
X92794990Y-51590303D01*
X93187630Y-51983629D01*
X93220000Y-51997070D01*
X93220000Y-59690000D01*
X93277852Y-59980839D01*
X93442599Y-60227401D01*
X94712599Y-61497401D01*
X94959160Y-61662148D01*
X95250000Y-61720000D01*
X115007537Y-61720000D01*
X115039673Y-61752192D01*
X115383201Y-61894838D01*
X115755167Y-61895162D01*
X116098943Y-61753117D01*
X116362192Y-61490327D01*
X116504838Y-61146799D01*
X116505162Y-60774833D01*
X116363117Y-60431057D01*
X116100327Y-60167808D01*
X115756799Y-60025162D01*
X115384833Y-60024838D01*
X115041057Y-60166883D01*
X115007882Y-60200000D01*
X95564802Y-60200000D01*
X94740000Y-59375198D01*
X94740000Y-51997531D01*
X94770303Y-51985010D01*
X95163629Y-51592370D01*
X95249949Y-51384488D01*
X95334990Y-51590303D01*
X95727630Y-51983629D01*
X95760000Y-51997070D01*
X95760000Y-52070000D01*
X95817852Y-52360839D01*
X95982599Y-52607401D01*
X97252599Y-53877401D01*
X97499160Y-54042148D01*
X97790000Y-54100000D01*
X99060000Y-54100000D01*
X99350839Y-54042148D01*
X99597401Y-53877401D01*
X100867401Y-52607401D01*
X100965000Y-52461334D01*
X101062599Y-52607401D01*
X104872599Y-56417401D01*
X105119161Y-56582148D01*
X105410000Y-56640000D01*
X113985198Y-56640000D01*
X129002599Y-71657401D01*
X129249161Y-71822148D01*
X129540000Y-71880000D01*
X141925198Y-71880000D01*
X148052599Y-78007401D01*
X148299161Y-78172148D01*
X148590000Y-78230000D01*
X151270643Y-78230000D01*
X151322709Y-78307922D01*
X151707151Y-78564797D01*
X152160631Y-78655000D01*
X152639369Y-78655000D01*
X153092849Y-78564797D01*
X153477291Y-78307922D01*
X153734166Y-77923480D01*
X153824369Y-77470000D01*
X153734166Y-77016520D01*
X153477291Y-76632078D01*
X153092849Y-76375203D01*
X152639369Y-76285000D01*
X152160631Y-76285000D01*
X151707151Y-76375203D01*
X151322709Y-76632078D01*
X151270643Y-76710000D01*
X148904802Y-76710000D01*
X147124802Y-74930000D01*
X150975631Y-74930000D01*
X151065834Y-75383480D01*
X151322709Y-75767922D01*
X151707151Y-76024797D01*
X152160631Y-76115000D01*
X152639369Y-76115000D01*
X153092849Y-76024797D01*
X153477291Y-75767922D01*
X153734166Y-75383480D01*
X153824369Y-74930000D01*
X153734166Y-74476520D01*
X153477291Y-74092078D01*
X153092849Y-73835203D01*
X152639369Y-73745000D01*
X152160631Y-73745000D01*
X151707151Y-73835203D01*
X151322709Y-74092078D01*
X151065834Y-74476520D01*
X150975631Y-74930000D01*
X147124802Y-74930000D01*
X142777401Y-70582599D01*
X142530839Y-70417852D01*
X142240000Y-70360000D01*
X129854802Y-70360000D01*
X114837401Y-55342599D01*
X114590839Y-55177852D01*
X114300000Y-55120000D01*
X105724802Y-55120000D01*
X102490145Y-51885343D01*
X102783629Y-51592370D01*
X102869949Y-51384488D01*
X102954990Y-51590303D01*
X103347630Y-51983629D01*
X103860900Y-52196757D01*
X104416661Y-52197242D01*
X104449055Y-52183857D01*
X106142599Y-53877401D01*
X106389160Y-54042148D01*
X106437414Y-54051746D01*
X106680000Y-54100000D01*
X113985198Y-54100000D01*
X129002599Y-69117401D01*
X129249161Y-69282148D01*
X129540000Y-69340000D01*
X148275198Y-69340000D01*
X151033628Y-72098430D01*
X150975631Y-72390000D01*
X151065834Y-72843480D01*
X151322709Y-73227922D01*
X151707151Y-73484797D01*
X152160631Y-73575000D01*
X152639369Y-73575000D01*
X153092849Y-73484797D01*
X153477291Y-73227922D01*
X153734166Y-72843480D01*
X153824369Y-72390000D01*
X153734166Y-71936520D01*
X153477291Y-71552078D01*
X153244693Y-71396661D01*
X157352758Y-71396661D01*
X157564990Y-71910303D01*
X157957630Y-72303629D01*
X158470900Y-72516757D01*
X159026661Y-72517242D01*
X159334610Y-72390000D01*
X163675631Y-72390000D01*
X163765834Y-72843480D01*
X164022709Y-73227922D01*
X164407151Y-73484797D01*
X164860631Y-73575000D01*
X165339369Y-73575000D01*
X165792849Y-73484797D01*
X166177291Y-73227922D01*
X166434166Y-72843480D01*
X166524369Y-72390000D01*
X166434166Y-71936520D01*
X166177291Y-71552078D01*
X165792849Y-71295203D01*
X165339369Y-71205000D01*
X164860631Y-71205000D01*
X164407151Y-71295203D01*
X164022709Y-71552078D01*
X163765834Y-71936520D01*
X163675631Y-72390000D01*
X159334610Y-72390000D01*
X159540303Y-72305010D01*
X159933629Y-71912370D01*
X160146757Y-71399100D01*
X160147242Y-70843339D01*
X159935010Y-70329697D01*
X159542370Y-69936371D01*
X159029100Y-69723243D01*
X158473339Y-69722758D01*
X157959697Y-69934990D01*
X157566371Y-70327630D01*
X157353243Y-70840900D01*
X157352758Y-71396661D01*
X153244693Y-71396661D01*
X153092849Y-71295203D01*
X152639369Y-71205000D01*
X152289802Y-71205000D01*
X149127401Y-68042599D01*
X148880839Y-67877852D01*
X148590000Y-67820000D01*
X129854802Y-67820000D01*
X114837401Y-52802599D01*
X114590839Y-52637852D01*
X114300000Y-52580000D01*
X106994802Y-52580000D01*
X106611743Y-52196941D01*
X106956661Y-52197242D01*
X107470303Y-51985010D01*
X107863629Y-51592370D01*
X107949949Y-51384488D01*
X108034990Y-51590303D01*
X108427630Y-51983629D01*
X108940900Y-52196757D01*
X109496661Y-52197242D01*
X110010303Y-51985010D01*
X110403629Y-51592370D01*
X110616757Y-51079100D01*
X110617242Y-50523339D01*
X110405010Y-50009697D01*
X110012370Y-49616371D01*
X109499100Y-49403243D01*
X108943339Y-49402758D01*
X108429697Y-49614990D01*
X108036371Y-50007630D01*
X107950051Y-50215512D01*
X107865010Y-50009697D01*
X107472370Y-49616371D01*
X106959100Y-49403243D01*
X106403339Y-49402758D01*
X105889697Y-49614990D01*
X105496371Y-50007630D01*
X105410051Y-50215512D01*
X105325010Y-50009697D01*
X104932370Y-49616371D01*
X104419100Y-49403243D01*
X103863339Y-49402758D01*
X103349697Y-49614990D01*
X102956371Y-50007630D01*
X102870051Y-50215512D01*
X102785010Y-50009697D01*
X102392370Y-49616371D01*
X101879100Y-49403243D01*
X101323339Y-49402758D01*
X101090000Y-49499171D01*
X101090000Y-48574802D01*
X101914802Y-47750000D01*
X151130000Y-47750000D01*
X151420839Y-47692148D01*
X151667401Y-47527401D01*
X157170619Y-42024183D01*
X157200900Y-42036757D01*
X157756661Y-42037242D01*
X158270303Y-41825010D01*
X158663629Y-41432370D01*
X158749949Y-41224488D01*
X158834990Y-41430303D01*
X159227630Y-41823629D01*
X159740900Y-42036757D01*
X160296661Y-42037242D01*
X160810303Y-41825010D01*
X161015457Y-41620213D01*
X161759392Y-41620213D01*
X161828857Y-41862397D01*
X162352302Y-42049144D01*
X162907368Y-42021362D01*
X163291143Y-41862397D01*
X163360608Y-41620213D01*
X162560000Y-40819605D01*
X161759392Y-41620213D01*
X161015457Y-41620213D01*
X161203629Y-41432370D01*
X161283395Y-41240273D01*
X161337603Y-41371143D01*
X161579787Y-41440608D01*
X162380395Y-40640000D01*
X162739605Y-40640000D01*
X163540213Y-41440608D01*
X163782397Y-41371143D01*
X163969144Y-40847698D01*
X163941362Y-40292632D01*
X163782397Y-39908857D01*
X163540213Y-39839392D01*
X162739605Y-40640000D01*
X162380395Y-40640000D01*
X161579787Y-39839392D01*
X161337603Y-39908857D01*
X161287491Y-40049318D01*
X161205010Y-39849697D01*
X161015432Y-39659787D01*
X161759392Y-39659787D01*
X162560000Y-40460395D01*
X163360608Y-39659787D01*
X163291143Y-39417603D01*
X162767698Y-39230856D01*
X162212632Y-39258638D01*
X161828857Y-39417603D01*
X161759392Y-39659787D01*
X161015432Y-39659787D01*
X160812370Y-39456371D01*
X160299100Y-39243243D01*
X159743339Y-39242758D01*
X159229697Y-39454990D01*
X158836371Y-39847630D01*
X158750051Y-40055512D01*
X158665010Y-39849697D01*
X158272370Y-39456371D01*
X157759100Y-39243243D01*
X157203339Y-39242758D01*
X156689697Y-39454990D01*
X156296371Y-39847630D01*
X156210051Y-40055512D01*
X156125010Y-39849697D01*
X155732370Y-39456371D01*
X155219100Y-39243243D01*
X154663339Y-39242758D01*
X154149697Y-39454990D01*
X153756371Y-39847630D01*
X153742930Y-39880000D01*
X148590000Y-39880000D01*
X148299161Y-39937852D01*
X148052599Y-40102599D01*
X143195198Y-44960000D01*
X100330000Y-44960000D01*
X100039160Y-45017852D01*
X99792599Y-45182599D01*
X98522599Y-46452599D01*
X98357852Y-46699161D01*
X98300000Y-46990000D01*
X98300000Y-49602469D01*
X98269697Y-49614990D01*
X97876371Y-50007630D01*
X97790051Y-50215512D01*
X97705010Y-50009697D01*
X97312370Y-49616371D01*
X96799100Y-49403243D01*
X96243339Y-49402758D01*
X95729697Y-49614990D01*
X95336371Y-50007630D01*
X95250051Y-50215512D01*
X95165010Y-50009697D01*
X94772370Y-49616371D01*
X94259100Y-49403243D01*
X93703339Y-49402758D01*
X93189697Y-49614990D01*
X92796371Y-50007630D01*
X92710051Y-50215512D01*
X92625010Y-50009697D01*
X92232370Y-49616371D01*
X91719100Y-49403243D01*
X91163339Y-49402758D01*
X90649697Y-49614990D01*
X90256371Y-50007630D01*
X90043243Y-50520900D01*
X90042758Y-51076661D01*
X80137000Y-51076661D01*
X80137000Y-44577000D01*
X82550000Y-44577000D01*
X82599410Y-44566994D01*
X82655670Y-44520447D01*
X84057301Y-42418000D01*
X87490560Y-42418000D01*
X87490560Y-43942000D01*
X87534838Y-44177317D01*
X87673910Y-44393441D01*
X87886110Y-44538431D01*
X88138000Y-44589440D01*
X89662000Y-44589440D01*
X89897317Y-44545162D01*
X90113441Y-44406090D01*
X90258431Y-44193890D01*
X90295492Y-44010876D01*
X90647630Y-44363629D01*
X91160900Y-44576757D01*
X91716661Y-44577242D01*
X92230303Y-44365010D01*
X92623629Y-43972370D01*
X92836757Y-43459100D01*
X92837242Y-42903339D01*
X92625010Y-42389697D01*
X92232370Y-41996371D01*
X91719100Y-41783243D01*
X91163339Y-41782758D01*
X90649697Y-41994990D01*
X90296237Y-42347833D01*
X90265162Y-42182683D01*
X90126090Y-41966559D01*
X90002612Y-41882190D01*
X90484802Y-41400000D01*
X101285198Y-41400000D01*
X101979855Y-42094657D01*
X101726237Y-42347833D01*
X101695162Y-42182683D01*
X101556090Y-41966559D01*
X101343890Y-41821569D01*
X101092000Y-41770560D01*
X99568000Y-41770560D01*
X99332683Y-41814838D01*
X99116559Y-41953910D01*
X98971569Y-42166110D01*
X98920560Y-42418000D01*
X98920560Y-43942000D01*
X98964838Y-44177317D01*
X99103910Y-44393441D01*
X99316110Y-44538431D01*
X99568000Y-44589440D01*
X101092000Y-44589440D01*
X101327317Y-44545162D01*
X101543441Y-44406090D01*
X101688431Y-44193890D01*
X101725492Y-44010876D01*
X102077630Y-44363629D01*
X102590900Y-44576757D01*
X103146661Y-44577242D01*
X103660303Y-44365010D01*
X103865457Y-44160213D01*
X104609392Y-44160213D01*
X104678857Y-44402397D01*
X105202302Y-44589144D01*
X105757368Y-44561362D01*
X106141143Y-44402397D01*
X106210608Y-44160213D01*
X105410000Y-43359605D01*
X104609392Y-44160213D01*
X103865457Y-44160213D01*
X104053629Y-43972370D01*
X104133395Y-43780273D01*
X104187603Y-43911143D01*
X104429787Y-43980608D01*
X105230395Y-43180000D01*
X105589605Y-43180000D01*
X106390213Y-43980608D01*
X106632397Y-43911143D01*
X106819144Y-43387698D01*
X106791362Y-42832632D01*
X106632397Y-42448857D01*
X106390213Y-42379392D01*
X105589605Y-43180000D01*
X105230395Y-43180000D01*
X104429787Y-42379392D01*
X104187603Y-42448857D01*
X104137491Y-42589318D01*
X104055010Y-42389697D01*
X103865432Y-42199787D01*
X104609392Y-42199787D01*
X105410000Y-43000395D01*
X106210608Y-42199787D01*
X106141143Y-41957603D01*
X105617698Y-41770856D01*
X105062632Y-41798638D01*
X104678857Y-41957603D01*
X104609392Y-42199787D01*
X103865432Y-42199787D01*
X103662370Y-41996371D01*
X103630000Y-41982930D01*
X103630000Y-41910000D01*
X103602322Y-41770856D01*
X103572148Y-41619160D01*
X103407401Y-41372599D01*
X102137401Y-40102599D01*
X101890839Y-39937852D01*
X101600000Y-39880000D01*
X90170000Y-39880000D01*
X89879160Y-39937852D01*
X89632599Y-40102599D01*
X88362599Y-41372599D01*
X88197852Y-41619161D01*
X88167737Y-41770560D01*
X88138000Y-41770560D01*
X87902683Y-41814838D01*
X87686559Y-41953910D01*
X87541569Y-42166110D01*
X87490560Y-42418000D01*
X84057301Y-42418000D01*
X85195670Y-40710447D01*
X85217000Y-40640000D01*
X85217000Y-38227000D01*
X111633000Y-38227000D01*
X111633000Y-40640000D01*
M02*
