G04 #@! TF.FileFunction,Soldermask,Top*
%FSLAX46Y46*%
G04 Gerber Fmt 4.6, Leading zero omitted, Abs format (unit mm)*
G04 Created by KiCad (PCBNEW 4.0.6) date Wednesday, 03 May 2017 'PMt' 19:44:35*
%MOMM*%
%LPD*%
G01*
G04 APERTURE LIST*
%ADD10C,0.100000*%
%ADD11C,1.900000*%
%ADD12C,1.924000*%
%ADD13O,1.924000X1.500000*%
%ADD14R,1.924000X1.924000*%
%ADD15C,4.464000*%
G04 APERTURE END LIST*
D10*
D11*
X115570000Y-39370000D03*
D12*
X120650000Y-77470000D03*
X123190000Y-77470000D03*
X125730000Y-77470000D03*
X128270000Y-77470000D03*
X130810000Y-77470000D03*
X133350000Y-77470000D03*
D11*
X138430000Y-39370000D03*
D12*
X91440000Y-78740000D03*
X93980000Y-78740000D03*
X96520000Y-78740000D03*
X99060000Y-78740000D03*
X101600000Y-78740000D03*
X104140000Y-78740000D03*
X106680000Y-78740000D03*
X109220000Y-78740000D03*
X109220000Y-50800000D03*
X106680000Y-50800000D03*
X104140000Y-50800000D03*
X101600000Y-50800000D03*
X99060000Y-50800000D03*
X96520000Y-50800000D03*
X93980000Y-50800000D03*
X91440000Y-50800000D03*
X162560000Y-40640000D03*
X160020000Y-40640000D03*
X157480000Y-40640000D03*
X154940000Y-40640000D03*
D13*
X152400000Y-72390000D03*
X152400000Y-74930000D03*
X152400000Y-77470000D03*
X165100000Y-72390000D03*
X165100000Y-77470000D03*
D12*
X158750000Y-71120000D03*
X158750000Y-78740000D03*
D14*
X100330000Y-43180000D03*
D12*
X102870000Y-43180000D03*
X105410000Y-43180000D03*
D14*
X88900000Y-43180000D03*
D12*
X91440000Y-43180000D03*
D15*
X173990000Y-39370000D03*
X173990000Y-80010000D03*
X81280000Y-39370000D03*
X81280000Y-80010000D03*
M02*
